<?xml version="1.0" encoding="UTF-8" standalone="no"?>
<svg
   xmlns:dc="http://purl.org/dc/elements/1.1/"
   xmlns:cc="http://creativecommons.org/ns#"
   xmlns:rdf="http://www.w3.org/1999/02/22-rdf-syntax-ns#"
   xmlns:svg="http://www.w3.org/2000/svg"
   xmlns="http://www.w3.org/2000/svg"
   xmlns:sodipodi="http://sodipodi.sourceforge.net/DTD/sodipodi-0.dtd"
   xmlns:inkscape="http://www.inkscape.org/namespaces/inkscape"
   version="1.1"
   width="24"
   height="24"
   viewBox="0 0 24 24"
   id="svg4"
   sodipodi:docname="watering-can.svg"
   inkscape:version="1.0.2-2 (e86c870879, 2021-01-15)">
  <metadata
     id="metadata10">
    <rdf:RDF>
      <cc:Work
         rdf:about="">
        <dc:format>image/svg+xml</dc:format>
        <dc:type
           rdf:resource="http://purl.org/dc/dcmitype/StillImage" />
      </cc:Work>
    </rdf:RDF>
  </metadata>
  <defs
     id="defs8" />
  <sodipodi:namedview
     pagecolor="#ffffff"
     bordercolor="#666666"
     borderopacity="1"
     objecttolerance="10"
     gridtolerance="10"
     guidetolerance="10"
     inkscape:pageopacity="0"
     inkscape:pageshadow="2"
     inkscape:window-width="1920"
     inkscape:window-height="1017"
     id="namedview6"
     showgrid="false"
     inkscape:zoom="24.651478"
     inkscape:cx="9.5119349"
     inkscape:cy="12"
     inkscape:window-x="-8"
     inkscape:window-y="-8"
     inkscape:window-maximized="1"
     inkscape:current-layer="svg4"
     inkscape:document-rotation="0" />
  <rect
     style="fill:#fff8e1;stroke-width:0.5;fill-opacity:1;stroke:#008577;stroke-opacity:1;stroke-miterlimit:4;stroke-dasharray:none"
     id="rect832"
     width="21.904568"
     height="20.897411"
     x="0.85268736"
     y="2.346632"
     rx="2.1092968"
     ry="1.9587531" />
  <path
     d="M18.5 7.47C17.76 8.2 17.57 9.25 17.92 10.15L15 13.07V11C15 10.45 14.55 10 14 10H12.97C13 9.83 13 9.67 13 9.5C13 6.46 10.54 4 7.5 4S2 6.46 2 9.5C2 11.21 2.78 12.73 4 13.74V20C4 20.55 4.45 21 5 21H14C14.55 21 15 20.55 15 20V15.89L19.33 11.56C20.23 11.91 21.28 11.73 22 11L18.5 7.47M4.05 10C4.03 9.83 4 9.67 4 9.5C4 7.57 5.57 6 7.5 6S11 7.57 11 9.5C11 9.67 10.97 9.83 10.95 10H4.05Z"
     id="path2"
     style="fill:#008577;fill-opacity:1" />
</svg>
