<?xml version="1.0" encoding="UTF-8" standalone="no"?>
<svg
   xmlns:dc="http://purl.org/dc/elements/1.1/"
   xmlns:cc="http://creativecommons.org/ns#"
   xmlns:rdf="http://www.w3.org/1999/02/22-rdf-syntax-ns#"
   xmlns:svg="http://www.w3.org/2000/svg"
   xmlns="http://www.w3.org/2000/svg"
   xmlns:sodipodi="http://sodipodi.sourceforge.net/DTD/sodipodi-0.dtd"
   xmlns:inkscape="http://www.inkscape.org/namespaces/inkscape"
   width="288px"
   height="288px"
   viewBox="0 0 288 288"
   version="1.1"
   id="svg170"
   sodipodi:docname="1.svg"
   inkscape:version="1.0.2-2 (e86c870879, 2021-01-15)">
  <metadata
     id="metadata176">
    <rdf:RDF>
      <cc:Work
         rdf:about="">
        <dc:format>image/svg+xml</dc:format>
        <dc:type
           rdf:resource="http://purl.org/dc/dcmitype/StillImage" />
      </cc:Work>
    </rdf:RDF>
  </metadata>
  <defs
     id="defs174" />
  <sodipodi:namedview
     pagecolor="#ffffff"
     bordercolor="#666666"
     borderopacity="1"
     objecttolerance="10"
     gridtolerance="10"
     guidetolerance="10"
     inkscape:pageopacity="0"
     inkscape:pageshadow="2"
     inkscape:window-width="1920"
     inkscape:window-height="1017"
     id="namedview172"
     showgrid="false"
     inkscape:zoom="3.0485688"
     inkscape:cx="100.12235"
     inkscape:cy="144"
     inkscape:window-x="-8"
     inkscape:window-y="-8"
     inkscape:window-maximized="1"
     inkscape:current-layer="svg170"
     inkscape:document-rotation="0" />
  <!-- Generator: Sketch 57.1 (83088) - https://sketch.com -->
  <title
     id="title148">ICONS / Forecast / Color / 01 - Sunny LK</title>
  <desc
     id="desc150">Created with Sketch.</desc>
  <path
     style="color:#000000;font-style:normal;font-variant:normal;font-weight:normal;font-stretch:normal;font-size:medium;line-height:normal;font-family:sans-serif;font-variant-ligatures:normal;font-variant-position:normal;font-variant-caps:normal;font-variant-numeric:normal;font-variant-alternates:normal;font-variant-east-asian:normal;font-feature-settings:normal;font-variation-settings:normal;text-indent:0;text-align:start;text-decoration:none;text-decoration-line:none;text-decoration-style:solid;text-decoration-color:#000000;letter-spacing:normal;word-spacing:normal;text-transform:none;writing-mode:lr-tb;direction:ltr;text-orientation:mixed;dominant-baseline:auto;baseline-shift:baseline;text-anchor:start;white-space:normal;shape-padding:0;shape-margin:0;inline-size:0;clip-rule:nonzero;display:inline;overflow:visible;visibility:visible;isolation:auto;mix-blend-mode:normal;color-interpolation:sRGB;color-interpolation-filters:linearRGB;solid-color:#000000;solid-opacity:1;vector-effect:none;fill:#ff8700;fill-opacity:1;fill-rule:evenodd;stroke:none;stroke-linecap:butt;stroke-linejoin:miter;stroke-miterlimit:4;stroke-dasharray:none;stroke-dashoffset:0;stroke-opacity:1;color-rendering:auto;image-rendering:auto;shape-rendering:auto;text-rendering:auto;enable-background:accumulate;stop-color:#000000;stop-opacity:1;opacity:1"
     d="M 139.19922 0 L 139.19922 48 L 148.80078 48 L 148.80078 0 L 139.19922 0 z M 45.585938 38.796875 L 38.796875 45.585938 L 72.734375 79.523438 L 79.523438 72.734375 L 45.585938 38.796875 z M 242.41406 38.796875 L 208.47656 72.734375 L 215.26562 79.523438 L 249.20312 45.585938 L 242.41406 38.796875 z M 144 62.398438 C 98.989775 62.397982 62.397982 98.989775 62.398438 144 C 62.397982 189.01022 98.989775 225.60202 144 225.60156 C 189.01022 225.60202 225.60202 189.01022 225.60156 144 C 225.60202 98.989775 189.01022 62.397982 144 62.398438 z M 144 72 C 183.82193 71.999597 216.0004 104.17807 216 144 C 216.0004 183.82193 183.82193 216.0004 144 216 C 104.17807 216.0004 71.999597 183.82193 72 144 C 71.999597 104.17807 104.17807 71.999597 144 72 z M 0 139.19922 L 0 148.80078 L 48 148.80078 L 48 139.19922 L 0 139.19922 z M 240 139.19922 L 240 148.80078 L 288 148.80078 L 288 139.19922 L 240 139.19922 z M 72.734375 208.47656 L 38.796875 242.41406 L 45.585938 249.20312 L 79.523438 215.26562 L 72.734375 208.47656 z M 215.26562 208.47656 L 208.47656 215.26562 L 242.41406 249.20312 L 249.20312 242.41406 L 215.26562 208.47656 z M 139.19922 240 L 139.19922 288 L 148.80078 288 L 148.80078 240 L 139.19922 240 z "
     id="Path" />
</svg>
