<?xml version="1.0" encoding="UTF-8" standalone="no"?>
<svg
   xmlns:dc="http://purl.org/dc/elements/1.1/"
   xmlns:cc="http://creativecommons.org/ns#"
   xmlns:rdf="http://www.w3.org/1999/02/22-rdf-syntax-ns#"
   xmlns:svg="http://www.w3.org/2000/svg"
   xmlns="http://www.w3.org/2000/svg"
   xmlns:sodipodi="http://sodipodi.sourceforge.net/DTD/sodipodi-0.dtd"
   xmlns:inkscape="http://www.inkscape.org/namespaces/inkscape"
   width="288px"
   height="288px"
   viewBox="0 0 288 288"
   version="1.1"
   id="svg161"
   sodipodi:docname="11.svg"
   inkscape:version="1.0.2-2 (e86c870879, 2021-01-15)">
  <metadata
     id="metadata167">
    <rdf:RDF>
      <cc:Work
         rdf:about="">
        <dc:format>image/svg+xml</dc:format>
        <dc:type
           rdf:resource="http://purl.org/dc/dcmitype/StillImage" />
      </cc:Work>
    </rdf:RDF>
  </metadata>
  <defs
     id="defs165" />
  <sodipodi:namedview
     pagecolor="#ffffff"
     bordercolor="#666666"
     borderopacity="1"
     objecttolerance="10"
     gridtolerance="10"
     guidetolerance="10"
     inkscape:pageopacity="0"
     inkscape:pageshadow="2"
     inkscape:window-width="1920"
     inkscape:window-height="1017"
     id="namedview163"
     showgrid="false"
     inkscape:zoom="2.8733637"
     inkscape:cx="144"
     inkscape:cy="144"
     inkscape:window-x="-8"
     inkscape:window-y="-8"
     inkscape:window-maximized="1"
     inkscape:current-layer="svg161" />
  <!-- Generator: Sketch 57.1 (83088) - https://sketch.com -->
  <title
     id="title148">ICONS / Forecast / Color / 11 - Fog LK</title>
  <desc
     id="desc150">Created with Sketch.</desc>
  <path
     id="Path"
     style="color:#000000;font-style:normal;font-variant:normal;font-weight:normal;font-stretch:normal;font-size:medium;line-height:normal;font-family:sans-serif;font-variant-ligatures:normal;font-variant-position:normal;font-variant-caps:normal;font-variant-numeric:normal;font-variant-alternates:normal;font-variant-east-asian:normal;font-feature-settings:normal;font-variation-settings:normal;text-indent:0;text-align:start;text-decoration:none;text-decoration-line:none;text-decoration-style:solid;text-decoration-color:#000000;letter-spacing:normal;word-spacing:normal;text-transform:none;writing-mode:lr-tb;direction:ltr;text-orientation:mixed;dominant-baseline:auto;baseline-shift:baseline;text-anchor:start;white-space:normal;shape-padding:0;shape-margin:0;inline-size:0;clip-rule:nonzero;display:inline;overflow:visible;visibility:visible;isolation:auto;mix-blend-mode:normal;color-interpolation:sRGB;color-interpolation-filters:linearRGB;solid-color:#000000;solid-opacity:1;vector-effect:none;fill:#bababa;fill-opacity:1;fill-rule:evenodd;stroke:none;stroke-linecap:butt;stroke-linejoin:miter;stroke-miterlimit:4;stroke-dasharray:none;stroke-dashoffset:0;stroke-opacity:1;color-rendering:auto;image-rendering:auto;shape-rendering:auto;text-rendering:auto;enable-background:accumulate;stop-color:#000000;stop-opacity:1;opacity:1"
     d="M 144.20117 47.970703 C 143.52452 47.963019 142.84785 47.964068 142.16992 47.974609 C 134.66348 48.091327 127.09992 49.315433 119.71875 51.712891 C 91.725348 60.805347 71.746593 85.156971 67.71875 114.03516 L 59.791016 114.03516 L 59.783203 114.03516 C 48.264708 114.02183 37.207 118.59097 29.056641 126.73047 C 21.50885 134.26822 17.028235 144.30234 16.404297 154.89258 L 1 154.89258 L 1 165.10742 L 286.94922 165.10742 L 286.94922 154.89258 L 269.01172 154.89258 C 274.25196 136.99983 271.42704 117.54303 261.00586 101.7832 C 249.18547 83.907372 229.16293 73.155116 207.73242 73.177734 L 199.99414 73.177734 C 185.46141 57.176636 165.17736 48.208915 144.20117 47.970703 z M 144.16797 58.177734 C 163.04126 58.399104 181.32079 66.677933 193.98828 81.591797 L 195.51758 83.392578 L 207.74023 83.392578 L 207.74219 83.392578 C 225.75234 83.37357 242.5525 92.393206 252.48633 107.41602 C 261.81006 121.51618 263.79743 139.08813 258.17383 154.89258 L 26.787109 154.89258 C 27.399624 147.02339 30.648124 139.57486 36.273438 133.95703 C 42.509951 127.72882 50.963497 124.23821 59.777344 124.25 L 59.779297 124.25 L 76.824219 124.25 L 77.183594 119.53125 C 79.228894 92.677359 97.260615 69.747469 122.875 61.427734 C 129.2786 59.347801 135.83442 58.284845 142.33984 58.181641 C 142.94973 58.171965 143.55915 58.170593 144.16797 58.177734 z M 1 190.64258 L 1 200.85742 L 286.94922 200.85742 L 286.94922 190.64258 L 1 190.64258 z M 1 226.44336 L 1 236.6582 L 286.94922 236.6582 L 286.94922 226.44336 L 1 226.44336 z " />
</svg>
