<?xml version="1.0" encoding="UTF-8" standalone="no"?>
<svg
   xmlns:dc="http://purl.org/dc/elements/1.1/"
   xmlns:cc="http://creativecommons.org/ns#"
   xmlns:rdf="http://www.w3.org/1999/02/22-rdf-syntax-ns#"
   xmlns:svg="http://www.w3.org/2000/svg"
   xmlns="http://www.w3.org/2000/svg"
   xmlns:sodipodi="http://sodipodi.sourceforge.net/DTD/sodipodi-0.dtd"
   xmlns:inkscape="http://www.inkscape.org/namespaces/inkscape"
   width="288px"
   height="288px"
   viewBox="0 0 288 288"
   version="1.1"
   id="svg313"
   sodipodi:docname="13.svg"
   inkscape:version="1.0.2-2 (e86c870879, 2021-01-15)">
  <metadata
     id="metadata319">
    <rdf:RDF>
      <cc:Work
         rdf:about="">
        <dc:format>image/svg+xml</dc:format>
        <dc:type
           rdf:resource="http://purl.org/dc/dcmitype/StillImage" />
      </cc:Work>
    </rdf:RDF>
  </metadata>
  <defs
     id="defs317" />
  <sodipodi:namedview
     pagecolor="#ffffff"
     bordercolor="#666666"
     borderopacity="1"
     objecttolerance="10"
     gridtolerance="10"
     guidetolerance="10"
     inkscape:pageopacity="0"
     inkscape:pageshadow="2"
     inkscape:window-width="1920"
     inkscape:window-height="1017"
     id="namedview315"
     showgrid="false"
     inkscape:zoom="2.8733637"
     inkscape:cx="144"
     inkscape:cy="144"
     inkscape:window-x="-8"
     inkscape:window-y="-8"
     inkscape:window-maximized="1"
     inkscape:current-layer="svg313" />
  <!-- Generator: Sketch 57.1 (83088) - https://sketch.com -->
  <title
     id="title292">ICONS / Forecast / Color / 13 - Mostly Cloudy with Showers LK</title>
  <desc
     id="desc294">Created with Sketch.</desc>
  <path
     id="path299"
     style="color:#000000;font-style:normal;font-variant:normal;font-weight:normal;font-stretch:normal;font-size:medium;line-height:normal;font-family:sans-serif;font-variant-ligatures:normal;font-variant-position:normal;font-variant-caps:normal;font-variant-numeric:normal;font-variant-alternates:normal;font-variant-east-asian:normal;font-feature-settings:normal;font-variation-settings:normal;text-indent:0;text-align:start;text-decoration:none;text-decoration-line:none;text-decoration-style:solid;text-decoration-color:#000000;letter-spacing:normal;word-spacing:normal;text-transform:none;writing-mode:lr-tb;direction:ltr;text-orientation:mixed;dominant-baseline:auto;baseline-shift:baseline;text-anchor:start;white-space:normal;shape-padding:0;shape-margin:0;inline-size:0;clip-rule:nonzero;display:inline;overflow:visible;visibility:visible;isolation:auto;mix-blend-mode:normal;color-interpolation:sRGB;color-interpolation-filters:linearRGB;solid-color:#000000;solid-opacity:1;vector-effect:none;fill:#288adb;fill-opacity:1;fill-rule:evenodd;stroke:none;stroke-linecap:butt;stroke-linejoin:miter;stroke-miterlimit:4;stroke-dasharray:none;stroke-dashoffset:0;stroke-opacity:1;color-rendering:auto;image-rendering:auto;shape-rendering:auto;text-rendering:auto;enable-background:accumulate;stop-color:#000000;stop-opacity:1;opacity:1"
     d="m 157.52344,211.56445 -40.28516,69.08008 8.44727,4.92578 40.28515,-69.08008 z m 35.54297,-0.002 -26.79102,45.90625 8.44531,4.92969 26.79102,-45.90821 z m -71.08399,0 -26.791014,45.90625 8.445314,4.92969 26.79101,-45.90821 z" />
  <path
     id="path307"
     style="color:#000000;font-style:normal;font-variant:normal;font-weight:normal;font-stretch:normal;font-size:medium;line-height:normal;font-family:sans-serif;font-variant-ligatures:normal;font-variant-position:normal;font-variant-caps:normal;font-variant-numeric:normal;font-variant-alternates:normal;font-variant-east-asian:normal;font-feature-settings:normal;font-variation-settings:normal;text-indent:0;text-align:start;text-decoration:none;text-decoration-line:none;text-decoration-style:solid;text-decoration-color:#000000;letter-spacing:normal;word-spacing:normal;text-transform:none;writing-mode:lr-tb;direction:ltr;text-orientation:mixed;dominant-baseline:auto;baseline-shift:baseline;text-anchor:start;white-space:normal;shape-padding:0;shape-margin:0;inline-size:0;clip-rule:nonzero;display:inline;overflow:visible;visibility:visible;isolation:auto;mix-blend-mode:normal;color-interpolation:sRGB;color-interpolation-filters:linearRGB;solid-color:#000000;solid-opacity:1;vector-effect:none;fill:#ff8700;fill-opacity:1;fill-rule:evenodd;stroke:none;stroke-linecap:butt;stroke-linejoin:miter;stroke-miterlimit:4;stroke-dasharray:none;stroke-dashoffset:0;stroke-opacity:1;color-rendering:auto;image-rendering:auto;shape-rendering:auto;text-rendering:auto;enable-background:accumulate;stop-color:#000000;stop-opacity:1;opacity:1"
     d="m 99.988281,47.667969 c -3.928216,0.01275 -7.888038,0.552244 -11.773437,1.646484 -15.541595,4.376964 -27.451886,16.935556 -30.998047,32.6875 -3.546161,15.751943 1.833425,32.205537 14,42.820317 l 6.427734,-7.36915 C 68.169692,109.18676 63.994252,96.417368 66.755859,84.150391 69.517466,71.883413 78.764021,62.135165 90.867188,58.726562 c 12.103162,-3.408601 25.076542,0.08259 33.833982,9.105469 l 7.01563,-6.810547 C 123.28276,52.33182 111.77293,47.629711 99.988281,47.667969 Z M 41.171875,25.916016 34.257812,32.830078 58.458984,57.03125 65.373047,50.117188 Z M 12,86.769531 v 9.777344 H 46.222656 V 86.769531 Z M 95.111328,4 v 34.222656 h 9.777342 V 4 Z" />
  <path
     style="color:#000000;font-style:normal;font-variant:normal;font-weight:normal;font-stretch:normal;font-size:medium;line-height:normal;font-family:sans-serif;font-variant-ligatures:normal;font-variant-position:normal;font-variant-caps:normal;font-variant-numeric:normal;font-variant-alternates:normal;font-variant-east-asian:normal;font-feature-settings:normal;font-variation-settings:normal;text-indent:0;text-align:start;text-decoration:none;text-decoration-line:none;text-decoration-style:solid;text-decoration-color:#000000;letter-spacing:normal;word-spacing:normal;text-transform:none;writing-mode:lr-tb;direction:ltr;text-orientation:mixed;dominant-baseline:auto;baseline-shift:baseline;text-anchor:start;white-space:normal;shape-padding:0;shape-margin:0;inline-size:0;clip-rule:nonzero;display:inline;overflow:visible;visibility:visible;opacity:1;isolation:auto;mix-blend-mode:normal;color-interpolation:sRGB;color-interpolation-filters:linearRGB;solid-color:#000000;solid-opacity:1;vector-effect:none;fill:#bababa;fill-opacity:1;fill-rule:evenodd;stroke:none;stroke-linecap:butt;stroke-linejoin:miter;stroke-miterlimit:4;stroke-dasharray:none;stroke-dashoffset:0;stroke-opacity:1;color-rendering:auto;image-rendering:auto;shape-rendering:auto;text-rendering:auto;enable-background:accumulate;stop-color:#000000;stop-opacity:1"
     d="m 156.91406,52.865234 c -7.18566,0.11173 -14.4245,1.283123 -21.49023,3.578125 C 108.6269,65.147193 89.500419,88.45773 85.644531,116.10156 h -7.595703 c -22.892594,0 -41.554687,18.66405 -41.554687,41.55664 0,22.8926 18.662095,41.55469 41.554687,41.55469 h 141.779292 0.002 c 33.67223,-0.0293 61.05859,-27.43908 61.05859,-61.11133 0,-16.20579 -6.43921,-31.75171 -17.89844,-43.210935 C 251.53101,83.431396 235.98314,76.990234 219.77734,76.990234 h -7.50976 C 197.90717,61.179199 177.68029,52.54234 156.91406,52.865234 Z m 0.16406,9.769532 c 18.68224,-0.296382 36.92215,7.673105 49.43946,22.410156 l 1.46484,1.724609 h 11.79492 c 13.61633,0 26.67064,5.406961 36.29883,15.035159 9.6282,9.62819 15.03516,22.68055 15.03516,36.29687 0,28.39096 -22.89813,51.3093 -51.28906,51.33399 H 78.048828 c -17.60829,0 -31.777344,-14.16906 -31.777344,-31.77735 0,-17.60828 14.169056,-31.77734 31.777344,-31.77734 h 16.3125 l 0.34375,-4.51758 C 96.662973,95.656991 113.9236,73.706379 138.44336,65.742188 c 6.12994,-1.991049 12.40735,-3.008628 18.63476,-3.107422 z"
     id="path309" />
</svg>
