<?xml version="1.0" encoding="UTF-8" standalone="no"?>
<svg
   xmlns:dc="http://purl.org/dc/elements/1.1/"
   xmlns:cc="http://creativecommons.org/ns#"
   xmlns:rdf="http://www.w3.org/1999/02/22-rdf-syntax-ns#"
   xmlns:svg="http://www.w3.org/2000/svg"
   xmlns="http://www.w3.org/2000/svg"
   xmlns:sodipodi="http://sodipodi.sourceforge.net/DTD/sodipodi-0.dtd"
   xmlns:inkscape="http://www.inkscape.org/namespaces/inkscape"
   width="288px"
   height="288px"
   viewBox="0 0 288 288"
   version="1.1"
   id="svg430"
   sodipodi:docname="14.svg"
   inkscape:version="1.0.2-2 (e86c870879, 2021-01-15)">
  <metadata
     id="metadata436">
    <rdf:RDF>
      <cc:Work
         rdf:about="">
        <dc:format>image/svg+xml</dc:format>
        <dc:type
           rdf:resource="http://purl.org/dc/dcmitype/StillImage" />
      </cc:Work>
    </rdf:RDF>
  </metadata>
  <defs
     id="defs434" />
  <sodipodi:namedview
     pagecolor="#ffffff"
     bordercolor="#666666"
     borderopacity="1"
     objecttolerance="10"
     gridtolerance="10"
     guidetolerance="10"
     inkscape:pageopacity="0"
     inkscape:pageshadow="2"
     inkscape:window-width="1920"
     inkscape:window-height="1017"
     id="namedview432"
     showgrid="false"
     inkscape:zoom="2.8733637"
     inkscape:cx="144"
     inkscape:cy="110.60205"
     inkscape:window-x="-8"
     inkscape:window-y="-8"
     inkscape:window-maximized="1"
     inkscape:current-layer="svg430" />
  <!-- Generator: Sketch 57.1 (83088) - https://sketch.com -->
  <title
     id="title405">ICONS / Forecast / Color / 14 - Partly Sunny with Showers LK</title>
  <desc
     id="desc407">Created with Sketch.</desc>
  <path
     id="path418"
     style="color:#000000;font-style:normal;font-variant:normal;font-weight:normal;font-stretch:normal;font-size:medium;line-height:normal;font-family:sans-serif;font-variant-ligatures:normal;font-variant-position:normal;font-variant-caps:normal;font-variant-numeric:normal;font-variant-alternates:normal;font-variant-east-asian:normal;font-feature-settings:normal;font-variation-settings:normal;text-indent:0;text-align:start;text-decoration:none;text-decoration-line:none;text-decoration-style:solid;text-decoration-color:#000000;letter-spacing:normal;word-spacing:normal;text-transform:none;writing-mode:lr-tb;direction:ltr;text-orientation:mixed;dominant-baseline:auto;baseline-shift:baseline;text-anchor:start;white-space:normal;shape-padding:0;shape-margin:0;inline-size:0;clip-rule:nonzero;display:inline;overflow:visible;visibility:visible;isolation:auto;mix-blend-mode:normal;color-interpolation:sRGB;color-interpolation-filters:linearRGB;solid-color:#000000;solid-opacity:1;vector-effect:none;fill:#ff8700;fill-opacity:1;fill-rule:evenodd;stroke:none;stroke-linecap:butt;stroke-linejoin:miter;stroke-miterlimit:4;stroke-dasharray:none;stroke-dashoffset:0;stroke-opacity:1;color-rendering:auto;image-rendering:auto;shape-rendering:auto;text-rendering:auto;enable-background:accumulate;stop-color:#000000;stop-opacity:1;opacity:1"
     d="m 128.08398,54.978516 c -2.03003,-0.01501 -4.07215,0.05664 -6.125,0.214843 -32.84546,2.531257 -59.891027,26.957533 -65.74023,59.376951 -5.849203,32.41942 10.953863,64.75728 40.84375,78.60742 l 4.0625,-8.76562 C 75.179943,172.38989 60.64933,144.4259 65.726562,116.28516 70.803795,88.144409 94.19061,67.021404 122.70117,64.824219 c 28.51057,-2.197186 54.85651,15.094485 64.18555,42.125001 l 9.13281,-3.15234 C 185.94377,74.602766 158.53445,55.203608 128.08398,54.978516 Z m 84.88086,-19.636719 -30.76953,30.722656 6.82617,6.835938 30.76954,-30.722657 z M 66.210938,182.14453 l -30.769532,30.76953 6.832032,6.83203 30.769531,-30.77148 z M 2.0957031,122.71484 V 132.375 H 45.570312 v -9.66016 z M 42.273438,35.392578 35.441406,42.224609 66.164062,72.945312 72.994141,66.115234 Z M 122.76367,2 v 43.474609 h 9.66016 V 2 Z" />
  <path
     id="path424"
     style="color:#000000;font-style:normal;font-variant:normal;font-weight:normal;font-stretch:normal;font-size:medium;line-height:normal;font-family:sans-serif;font-variant-ligatures:normal;font-variant-position:normal;font-variant-caps:normal;font-variant-numeric:normal;font-variant-alternates:normal;font-variant-east-asian:normal;font-feature-settings:normal;font-variation-settings:normal;text-indent:0;text-align:start;text-decoration:none;text-decoration-line:none;text-decoration-style:solid;text-decoration-color:#000000;letter-spacing:normal;word-spacing:normal;text-transform:none;writing-mode:lr-tb;direction:ltr;text-orientation:mixed;dominant-baseline:auto;baseline-shift:baseline;text-anchor:start;white-space:normal;shape-padding:0;shape-margin:0;inline-size:0;clip-rule:nonzero;display:inline;overflow:visible;visibility:visible;opacity:1;isolation:auto;mix-blend-mode:normal;color-interpolation:sRGB;color-interpolation-filters:linearRGB;solid-color:#000000;solid-opacity:1;vector-effect:none;fill:#288adb;fill-opacity:1;fill-rule:evenodd;stroke:none;stroke-linecap:butt;stroke-linejoin:miter;stroke-miterlimit:4;stroke-dasharray:none;stroke-dashoffset:0;stroke-opacity:1;color-rendering:auto;image-rendering:auto;shape-rendering:auto;text-rendering:auto;enable-background:accumulate;stop-color:#000000;stop-opacity:1"
     d="m 190.70898,227.61523 -32.12304,55.06641 8.3457,4.86914 32.12305,-55.06836 z m 34.97657,-0.004 -21.40039,36.61523 8.34179,4.875 21.39844,-36.61523 z m -70.81836,0.004 -21.35157,36.61524 8.34571,4.86719 21.35156,-36.61524 z" />
  <path
     style="color:#000000;font-style:normal;font-variant:normal;font-weight:normal;font-stretch:normal;font-size:medium;line-height:normal;font-family:sans-serif;font-variant-ligatures:normal;font-variant-position:normal;font-variant-caps:normal;font-variant-numeric:normal;font-variant-alternates:normal;font-variant-east-asian:normal;font-feature-settings:normal;font-variation-settings:normal;text-indent:0;text-align:start;text-decoration:none;text-decoration-line:none;text-decoration-style:solid;text-decoration-color:#000000;letter-spacing:normal;word-spacing:normal;text-transform:none;writing-mode:lr-tb;direction:ltr;text-orientation:mixed;dominant-baseline:auto;baseline-shift:baseline;text-anchor:start;white-space:normal;shape-padding:0;shape-margin:0;inline-size:0;clip-rule:nonzero;display:inline;overflow:visible;visibility:visible;opacity:1;isolation:auto;mix-blend-mode:normal;color-interpolation:sRGB;color-interpolation-filters:linearRGB;solid-color:#000000;solid-opacity:1;vector-effect:none;fill:#bababa;fill-opacity:1;fill-rule:evenodd;stroke:none;stroke-linecap:butt;stroke-linejoin:miter;stroke-miterlimit:4;stroke-dasharray:none;stroke-dashoffset:0;stroke-opacity:1;color-rendering:auto;image-rendering:auto;shape-rendering:auto;text-rendering:auto;enable-background:accumulate;stop-color:#000000;stop-opacity:1"
     d="m 189,100.45117 c -5.73455,0.0831 -11.51308,1.01511 -17.15234,2.84766 -21.10234,6.85745 -36.20796,25.11497 -39.47461,46.80469 h -5.07032 c -18.45743,0 -33.523433,15.066 -33.523433,33.52343 0,18.45743 15.066003,33.52344 33.523433,33.52344 h 111.11329 0.01 C 265.24861,217.0325 287.02543,195.1385 287,168.31641 c 0.0132,-12.94543 -5.12262,-25.3704 -14.27148,-34.5293 -9.14978,-9.15983 -21.57072,-14.30861 -34.51758,-14.30859 h -5.42578 C 221.39473,107.03587 205.41891,100.21316 189,100.45117 Z m 0.15234,9.6543 c 14.35255,-0.2139 28.35448,5.94644 37.92578,17.31445 l 1.44727,1.71875 h 9.68555 c 10.38648,-1e-5 20.34328,4.12624 27.68359,11.47461 7.34032,7.34837 11.45671,17.30884 11.44531,27.69531 v 0.006 0.006 c 0.0239,21.61573 -17.33955,39.07492 -38.95507,39.16992 H 127.30273 c -13.23622,0 -23.86132,-10.62705 -23.86132,-23.86328 0,-13.23623 10.6251,-23.86328 23.86132,-23.86328 h 13.72461 l 0.32032,-4.48437 c 1.4137,-19.76382 14.64202,-36.6693 33.48632,-42.79297 4.71108,-1.53092 9.53418,-2.30956 14.31836,-2.38086 z"
     id="path426" />
</svg>
