<?xml version="1.0" encoding="UTF-8" standalone="no"?>
<svg
   xmlns:dc="http://purl.org/dc/elements/1.1/"
   xmlns:cc="http://creativecommons.org/ns#"
   xmlns:rdf="http://www.w3.org/1999/02/22-rdf-syntax-ns#"
   xmlns:svg="http://www.w3.org/2000/svg"
   xmlns="http://www.w3.org/2000/svg"
   xmlns:sodipodi="http://sodipodi.sourceforge.net/DTD/sodipodi-0.dtd"
   xmlns:inkscape="http://www.inkscape.org/namespaces/inkscape"
   width="288px"
   height="288px"
   viewBox="0 0 288 288"
   version="1.1"
   id="svg590"
   sodipodi:docname="16.svg"
   inkscape:version="1.0.2-2 (e86c870879, 2021-01-15)">
  <metadata
     id="metadata596">
    <rdf:RDF>
      <cc:Work
         rdf:about="">
        <dc:format>image/svg+xml</dc:format>
        <dc:type
           rdf:resource="http://purl.org/dc/dcmitype/StillImage" />
      </cc:Work>
    </rdf:RDF>
  </metadata>
  <defs
     id="defs594" />
  <sodipodi:namedview
     pagecolor="#ffffff"
     bordercolor="#666666"
     borderopacity="1"
     objecttolerance="10"
     gridtolerance="10"
     guidetolerance="10"
     inkscape:pageopacity="0"
     inkscape:pageshadow="2"
     inkscape:window-width="1920"
     inkscape:window-height="1017"
     id="namedview592"
     showgrid="false"
     inkscape:zoom="2.8733637"
     inkscape:cx="144"
     inkscape:cy="144"
     inkscape:window-x="-8"
     inkscape:window-y="-8"
     inkscape:window-maximized="1"
     inkscape:current-layer="svg590" />
  <!-- Generator: Sketch 57.1 (83088) - https://sketch.com -->
  <title
     id="title573">ICONS / Forecast / Color / 16 - Mostly Cloudy with Thundershowers LK</title>
  <desc
     id="desc575">Created with Sketch.</desc>
  <path
     id="polyline584"
     style="color:#000000;font-style:normal;font-variant:normal;font-weight:normal;font-stretch:normal;font-size:medium;line-height:normal;font-family:sans-serif;font-variant-ligatures:normal;font-variant-position:normal;font-variant-caps:normal;font-variant-numeric:normal;font-variant-alternates:normal;font-variant-east-asian:normal;font-feature-settings:normal;font-variation-settings:normal;text-indent:0;text-align:start;text-decoration:none;text-decoration-line:none;text-decoration-style:solid;text-decoration-color:#000000;letter-spacing:normal;word-spacing:normal;text-transform:none;writing-mode:lr-tb;direction:ltr;text-orientation:mixed;dominant-baseline:auto;baseline-shift:baseline;text-anchor:start;white-space:normal;shape-padding:0;shape-margin:0;inline-size:0;clip-rule:nonzero;display:inline;overflow:visible;visibility:visible;isolation:auto;mix-blend-mode:normal;color-interpolation:sRGB;color-interpolation-filters:linearRGB;solid-color:#000000;solid-opacity:1;vector-effect:none;fill:#ff8700;fill-opacity:1;fill-rule:evenodd;stroke:none;stroke-linecap:butt;stroke-linejoin:miter;stroke-miterlimit:4;stroke-dasharray:none;stroke-dashoffset:0;stroke-opacity:1;color-rendering:auto;image-rendering:auto;shape-rendering:auto;text-rendering:auto;enable-background:accumulate;stop-color:#000000;stop-opacity:1;opacity:1"
     transform="translate(14,6)"
     d="m 164.61914,148.33398 -41.03711,70.36329 h 41.81445 l -32.57617,55.77343 8.32031,4.85938 41.04493,-70.26953 H 140.35938 L 172.94336,153.1875 Z M 86.71484,43.035156 c -3.871399,0.01257 -7.772353,0.544632 -11.601559,1.623047 -15.316818,4.31366 -27.053955,16.692671 -30.548828,32.216797 -3.494874,15.524125 1.806263,31.73796 13.796875,42.19922 l 6.333984,-7.26172 C 55.357507,103.6657 51.243176,91.079797 53.964844,78.990234 56.68651,66.90067 65.798441,57.292898 77.726562,53.933594 c 11.928128,-3.359305 24.712968,0.08223 33.343748,8.974609 l 6.91602,-6.710937 C 109.67428,47.633279 98.32905,42.997451 86.71484,43.035156 Z M 28.75,21.599609 l -6.8125,6.814453 23.849609,23.84961 6.814453,-6.814453 z M 0,81.572266 v 9.636718 H 33.726562 V 81.572266 Z M 81.908203,0 V 33.726562 H 91.54492 V 0 Z" />
  <path
     style="color:#000000;font-style:normal;font-variant:normal;font-weight:normal;font-stretch:normal;font-size:medium;line-height:normal;font-family:sans-serif;font-variant-ligatures:normal;font-variant-position:normal;font-variant-caps:normal;font-variant-numeric:normal;font-variant-alternates:normal;font-variant-east-asian:normal;font-feature-settings:normal;font-variation-settings:normal;text-indent:0;text-align:start;text-decoration:none;text-decoration-line:none;text-decoration-style:solid;text-decoration-color:#000000;letter-spacing:normal;word-spacing:normal;text-transform:none;writing-mode:lr-tb;direction:ltr;text-orientation:mixed;dominant-baseline:auto;baseline-shift:baseline;text-anchor:start;white-space:normal;shape-padding:0;shape-margin:0;inline-size:0;clip-rule:nonzero;display:inline;overflow:visible;visibility:visible;opacity:1;isolation:auto;mix-blend-mode:normal;color-interpolation:sRGB;color-interpolation-filters:linearRGB;solid-color:#000000;solid-opacity:1;vector-effect:none;fill:#bababa;fill-opacity:1;fill-rule:evenodd;stroke:none;stroke-linecap:butt;stroke-linejoin:miter;stroke-miterlimit:4;stroke-dasharray:none;stroke-dashoffset:0;stroke-opacity:1;color-rendering:auto;image-rendering:auto;shape-rendering:auto;text-rendering:auto;enable-background:accumulate;stop-color:#000000;stop-opacity:1"
     d="m 156.81836,54.158203 c -7.08173,0.110114 -14.21614,1.263581 -21.17969,3.525391 -26.40929,8.577925 -45.260342,31.552961 -49.060545,58.796876 H 79.09375 c -22.5615,0 -40.955078,18.39358 -40.955078,40.95508 0,22.5615 18.393578,40.95507 40.955078,40.95507 h 60.70898 v -9.63671 H 79.09375 c -17.353624,0 -31.318359,-13.96473 -31.318359,-31.31836 0,-17.35363 13.964735,-31.31836 31.318359,-31.31836 h 16.076172 l 0.339844,-4.45313 C 97.439344,96.329557 114.4501,74.698617 138.61523,66.849609 c 24.16513,-7.849006 50.64148,-0.341779 67.08985,19.023438 l 1.44336,1.699219 h 11.7207 c 27.99766,0 50.5918,22.592184 50.5918,50.589844 0,27.99765 -22.59414,50.5918 -50.5918,50.5918 h -36.57031 v 9.63671 h 36.57031 c 33.20554,0 60.22656,-27.02298 60.22656,-60.22851 0,-33.20554 -27.02102,-60.226563 -60.22656,-60.226563 h -7.49805 C 197.21834,62.352731 177.28455,53.839974 156.81836,54.158203 Z"
     id="path586" />
</svg>
