<?xml version="1.0" encoding="UTF-8" standalone="no"?>
<svg
   xmlns:dc="http://purl.org/dc/elements/1.1/"
   xmlns:cc="http://creativecommons.org/ns#"
   xmlns:rdf="http://www.w3.org/1999/02/22-rdf-syntax-ns#"
   xmlns:svg="http://www.w3.org/2000/svg"
   xmlns="http://www.w3.org/2000/svg"
   xmlns:sodipodi="http://sodipodi.sourceforge.net/DTD/sodipodi-0.dtd"
   xmlns:inkscape="http://www.inkscape.org/namespaces/inkscape"
   width="288px"
   height="288px"
   viewBox="0 0 288 288"
   version="1.1"
   id="svg686"
   sodipodi:docname="17.svg"
   inkscape:version="1.0.2-2 (e86c870879, 2021-01-15)">
  <metadata
     id="metadata692">
    <rdf:RDF>
      <cc:Work
         rdf:about="">
        <dc:format>image/svg+xml</dc:format>
        <dc:type
           rdf:resource="http://purl.org/dc/dcmitype/StillImage" />
      </cc:Work>
    </rdf:RDF>
  </metadata>
  <defs
     id="defs690" />
  <sodipodi:namedview
     pagecolor="#ffffff"
     bordercolor="#666666"
     borderopacity="1"
     objecttolerance="10"
     gridtolerance="10"
     guidetolerance="10"
     inkscape:pageopacity="0"
     inkscape:pageshadow="2"
     inkscape:window-width="1920"
     inkscape:window-height="1017"
     id="namedview688"
     showgrid="false"
     inkscape:zoom="2.8733637"
     inkscape:cx="144"
     inkscape:cy="144"
     inkscape:window-x="-8"
     inkscape:window-y="-8"
     inkscape:window-maximized="1"
     inkscape:current-layer="svg686" />
  <!-- Generator: Sketch 57.1 (83088) - https://sketch.com -->
  <title
     id="title665">ICONS / Forecast / Color / 17 - Partly Cloudy with Thundershowers LK</title>
  <desc
     id="desc667">Created with Sketch.</desc>
  <path
     id="polyline680"
     style="color:#000000;font-style:normal;font-variant:normal;font-weight:normal;font-stretch:normal;font-size:medium;line-height:normal;font-family:sans-serif;font-variant-ligatures:normal;font-variant-position:normal;font-variant-caps:normal;font-variant-numeric:normal;font-variant-alternates:normal;font-variant-east-asian:normal;font-feature-settings:normal;font-variation-settings:normal;text-indent:0;text-align:start;text-decoration:none;text-decoration-line:none;text-decoration-style:solid;text-decoration-color:#000000;letter-spacing:normal;word-spacing:normal;text-transform:none;writing-mode:lr-tb;direction:ltr;text-orientation:mixed;dominant-baseline:auto;baseline-shift:baseline;text-anchor:start;white-space:normal;shape-padding:0;shape-margin:0;inline-size:0;clip-rule:nonzero;display:inline;overflow:visible;visibility:visible;opacity:1;isolation:auto;mix-blend-mode:normal;color-interpolation:sRGB;color-interpolation-filters:linearRGB;solid-color:#000000;solid-opacity:1;vector-effect:none;fill:#ff8700;fill-opacity:1;fill-rule:evenodd;stroke:none;stroke-linecap:butt;stroke-linejoin:miter;stroke-miterlimit:4;stroke-dasharray:none;stroke-dashoffset:0;stroke-opacity:1;color-rendering:auto;image-rendering:auto;shape-rendering:auto;text-rendering:auto;enable-background:accumulate;stop-color:#000000;stop-opacity:1"
     transform="translate(0,2)"
     d="m 204.96875,179.81641 -33.70313,57.71289 h 33.42188 l -25.11133,43.02929 8.40235,4.9043 33.65039,-57.66211 h -33.41602 l 25.15625,-43.07812 z m -78,-126.464848 c -2.04428,-0.01511 -4.10072,0.05553 -6.16797,0.214844 -33.07596,2.54902 -60.31092,27.147997 -66.201171,59.794924 -5.890249,32.64692 11.029269,65.21086 41.128907,79.1582 l 4.091796,-8.82617 C 73.693182,171.58676 59.060966,143.42611 64.173828,115.08789 69.286692,86.749661 92.836234,65.478229 121.54688,63.265625 c 28.71064,-2.212605 55.24221,15.199722 64.63671,42.419925 l 9.19727,-3.17383 C 185.23439,73.112743 157.6329,53.578234 126.96875,53.351562 Z m 85.47656,-19.77539 -30.98633,30.9375 6.875,6.884766 30.98438,-30.9375 z M 64.662109,181.4082 l -30.986328,30.98633 6.878907,6.87891 30.986328,-30.98633 z M 0.09765625,121.5625 v 9.72852 H 43.876953 V 121.5625 Z M 40.554688,33.626953 l -6.878907,6.878906 30.9375,30.9375 6.878907,-6.878906 z M 121.60938,0 v 43.779297 h 9.73046 V 0 Z" />
  <path
     style="color:#000000;font-style:normal;font-variant:normal;font-weight:normal;font-stretch:normal;font-size:medium;line-height:normal;font-family:sans-serif;font-variant-ligatures:normal;font-variant-position:normal;font-variant-caps:normal;font-variant-numeric:normal;font-variant-alternates:normal;font-variant-east-asian:normal;font-feature-settings:normal;font-variation-settings:normal;text-indent:0;text-align:start;text-decoration:none;text-decoration-line:none;text-decoration-style:solid;text-decoration-color:#000000;letter-spacing:normal;word-spacing:normal;text-transform:none;writing-mode:lr-tb;direction:ltr;text-orientation:mixed;dominant-baseline:auto;baseline-shift:baseline;text-anchor:start;white-space:normal;shape-padding:0;shape-margin:0;inline-size:0;clip-rule:nonzero;display:inline;overflow:visible;visibility:visible;opacity:1;isolation:auto;mix-blend-mode:normal;color-interpolation:sRGB;color-interpolation-filters:linearRGB;solid-color:#000000;solid-opacity:1;vector-effect:none;fill:#bababa;fill-opacity:1;fill-rule:evenodd;stroke:none;stroke-linecap:butt;stroke-linejoin:miter;stroke-miterlimit:4;stroke-dasharray:none;stroke-dashoffset:0;stroke-opacity:1;color-rendering:auto;image-rendering:auto;shape-rendering:auto;text-rendering:auto;enable-background:accumulate;stop-color:#000000;stop-opacity:1"
     d="m 188.34766,100.76562 c -5.7993,0.0659 -11.64687,0.99915 -17.35352,2.85352 -21.34464,6.9359 -36.53859,25.50905 -39.60742,47.47461 h -4.91211 l 0.19922,0.004 c -12.37219,-0.50795 -24.04932,5.81515 -30.386721,16.45312 -6.337394,10.63796 -6.337391,23.91867 0,34.55664 6.337401,10.63796 18.014531,16.95914 30.386721,16.45117 l -0.19922,0.004 h 48.64453 v -9.72852 H 126.375 l -0.0996,0.004 c -8.82187,0.3622 -17.11204,-4.12564 -21.63086,-11.71094 -4.51882,-7.58531 -4.51882,-17.01236 0,-24.59765 4.51882,-7.58531 12.80898,-12.07313 21.63086,-11.71094 l 0.0996,0.004 h 13.82812 l 0.27149,-4.57422 c 1.18874,-19.9937 14.47684,-37.18716 33.52539,-43.37696 19.04855,-6.1898 39.90462,-0.093 52.61914,15.38282 l 1.46094,1.77734 h 9.83789 c 21.81857,0 39.40234,17.58377 39.40234,39.40234 0,21.81857 -17.58377,39.40039 -39.40234,39.40039 h -29.18555 v 9.72852 h 29.18555 c 27.07641,0 49.13086,-22.0525 49.13086,-49.12891 0,-27.07641 -22.05445,-49.13086 -49.13086,-49.13086 h -5.48242 C 221.05847,107.5924 204.94371,100.57698 188.34766,100.76562 Z"
     id="path682" />
</svg>
