<?xml version="1.0" encoding="UTF-8" standalone="no"?>
<svg
   xmlns:dc="http://purl.org/dc/elements/1.1/"
   xmlns:cc="http://creativecommons.org/ns#"
   xmlns:rdf="http://www.w3.org/1999/02/22-rdf-syntax-ns#"
   xmlns:svg="http://www.w3.org/2000/svg"
   xmlns="http://www.w3.org/2000/svg"
   xmlns:sodipodi="http://sodipodi.sourceforge.net/DTD/sodipodi-0.dtd"
   xmlns:inkscape="http://www.inkscape.org/namespaces/inkscape"
   width="288px"
   height="288px"
   viewBox="0 0 288 288"
   version="1.1"
   id="svg255"
   sodipodi:docname="2.svg"
   inkscape:version="1.0.2-2 (e86c870879, 2021-01-15)">
  <metadata
     id="metadata261">
    <rdf:RDF>
      <cc:Work
         rdf:about="">
        <dc:format>image/svg+xml</dc:format>
        <dc:type
           rdf:resource="http://purl.org/dc/dcmitype/StillImage" />
      </cc:Work>
    </rdf:RDF>
  </metadata>
  <defs
     id="defs259" />
  <sodipodi:namedview
     pagecolor="#ffffff"
     bordercolor="#666666"
     borderopacity="1"
     objecttolerance="10"
     gridtolerance="10"
     guidetolerance="10"
     inkscape:pageopacity="0"
     inkscape:pageshadow="2"
     inkscape:window-width="1920"
     inkscape:window-height="1017"
     id="namedview257"
     showgrid="false"
     inkscape:zoom="3.0485688"
     inkscape:cx="100.12235"
     inkscape:cy="144"
     inkscape:window-x="-8"
     inkscape:window-y="-8"
     inkscape:window-maximized="1"
     inkscape:current-layer="svg255"
     inkscape:document-rotation="0" />
  <!-- Generator: Sketch 57.1 (83088) - https://sketch.com -->
  <title
     id="title232">ICONS / Forecast / Color / 02 - Mostly Sunny LK</title>
  <desc
     id="desc234">Created with Sketch.</desc>
  <path
     id="Path"
     style="color:#000000;font-style:normal;font-variant:normal;font-weight:normal;font-stretch:normal;font-size:medium;line-height:normal;font-family:sans-serif;font-variant-ligatures:normal;font-variant-position:normal;font-variant-caps:normal;font-variant-numeric:normal;font-variant-alternates:normal;font-variant-east-asian:normal;font-feature-settings:normal;font-variation-settings:normal;text-indent:0;text-align:start;text-decoration:none;text-decoration-line:none;text-decoration-style:solid;text-decoration-color:#000000;letter-spacing:normal;word-spacing:normal;text-transform:none;writing-mode:lr-tb;direction:ltr;text-orientation:mixed;dominant-baseline:auto;baseline-shift:baseline;text-anchor:start;white-space:normal;shape-padding:0;shape-margin:0;inline-size:0;clip-rule:nonzero;display:inline;overflow:visible;visibility:visible;isolation:auto;mix-blend-mode:normal;color-interpolation:sRGB;color-interpolation-filters:linearRGB;solid-color:#000000;solid-opacity:1;vector-effect:none;fill:#ff8700;fill-opacity:1;fill-rule:evenodd;stroke:none;stroke-linecap:butt;stroke-linejoin:miter;stroke-miterlimit:4;stroke-dasharray:none;stroke-dashoffset:0;stroke-opacity:1;color-rendering:auto;image-rendering:auto;shape-rendering:auto;text-rendering:auto;enable-background:accumulate;stop-color:#000000;stop-opacity:1;opacity:1"
     d="M 138.73438 2 L 138.73438 49.494141 L 148.23438 49.494141 L 148.23438 2 L 138.73438 2 z M 46.105469 40.388672 L 39.388672 47.105469 L 72.96875 80.685547 L 79.685547 73.96875 L 46.105469 40.388672 z M 240.86133 40.388672 L 207.2832 73.96875 L 214 80.685547 L 247.57812 47.105469 L 240.86133 40.388672 z M 144.68164 63.841797 C 143.71177 63.826761 142.73947 63.829394 141.76562 63.849609 C 137.31376 63.942024 132.82437 64.404296 128.33789 65.257812 C 92.44609 72.085961 65.578536 102.22472 62.902344 138.66211 C 60.226152 175.0995 82.401119 208.84101 116.91016 220.83984 C 151.41919 232.83867 189.74319 220.1322 210.25 189.89453 L 202.38867 184.56445 C 184.27014 211.28057 150.52128 222.4686 120.03125 211.86719 C 89.541229 201.26576 70.012437 171.55123 72.376953 139.35742 C 74.741469 107.16363 98.401532 80.622769 130.11328 74.589844 C 161.82504 68.556919 193.5769 84.556193 207.59766 113.63281 L 216.1543 109.50781 C 202.70293 81.612019 174.74762 64.307919 144.68164 63.841797 z M 1 139.73438 L 1 149.23438 L 48.494141 149.23438 L 48.494141 139.73438 L 1 139.73438 z M 72.96875 208.2832 L 39.388672 241.86133 L 46.105469 248.57812 L 79.685547 215 L 72.96875 208.2832 z M 214 208.2832 L 207.2832 215 L 240.86133 248.57812 L 247.57812 241.86133 L 214 208.2832 z M 138.73438 239.47461 L 138.73438 286.96875 L 148.23438 286.96875 L 148.23438 239.47461 L 138.73438 239.47461 z " />
  <path
     id="path251"
     style="color:#000000;font-style:normal;font-variant:normal;font-weight:normal;font-stretch:normal;font-size:medium;line-height:normal;font-family:sans-serif;font-variant-ligatures:normal;font-variant-position:normal;font-variant-caps:normal;font-variant-numeric:normal;font-variant-alternates:normal;font-variant-east-asian:normal;font-feature-settings:normal;font-variation-settings:normal;text-indent:0;text-align:start;text-decoration:none;text-decoration-line:none;text-decoration-style:solid;text-decoration-color:#000000;letter-spacing:normal;word-spacing:normal;text-transform:none;writing-mode:lr-tb;direction:ltr;text-orientation:mixed;dominant-baseline:auto;baseline-shift:baseline;text-anchor:start;white-space:normal;shape-padding:0;shape-margin:0;inline-size:0;clip-rule:nonzero;display:inline;overflow:visible;visibility:visible;isolation:auto;mix-blend-mode:normal;color-interpolation:sRGB;color-interpolation-filters:linearRGB;solid-color:#000000;solid-opacity:1;vector-effect:none;fill:#bababa;fill-opacity:1;fill-rule:evenodd;stroke:none;stroke-linecap:butt;stroke-linejoin:miter;stroke-miterlimit:4;stroke-dasharray:none;stroke-dashoffset:0;stroke-opacity:1;color-rendering:auto;image-rendering:auto;shape-rendering:auto;text-rendering:auto;enable-background:accumulate;stop-color:#000000;stop-opacity:1;opacity:1"
     d="M 215.83789 106.625 C 211.52256 106.7008 207.17416 107.43189 202.93945 108.86133 C 187.48422 114.07829 176.57027 127.63156 174.37305 143.53516 L 172.43359 143.53516 L 172.31641 143.54102 C 159.44155 144.17666 149.24414 154.89071 149.24414 167.78125 C 149.24414 180.67178 159.44155 191.38583 172.31641 192.02148 L 172.43359 192.02734 L 250.30078 192.02734 L 250.03711 192.01953 C 263.22305 192.75124 275.75505 186.11961 282.56836 174.80664 C 289.38167 163.49368 289.38167 149.31687 282.56836 138.00391 C 276.62582 128.13678 266.33161 121.83802 255.04883 120.87305 L 255.04883 120.73633 L 250.30078 120.73633 L 248.19531 120.73633 C 239.8133 111.49359 227.9925 106.4115 215.83789 106.625 z M 216.01758 116.11523 C 226.08629 115.9319 235.90599 120.34155 242.47266 128.4707 L 243.89844 130.23633 L 245.55078 130.23633 L 245.55078 130.55469 L 250.5625 130.27539 C 260.25252 129.73768 269.42471 134.59067 274.43164 142.9043 C 279.43857 151.21791 279.43857 161.59263 274.43164 169.90625 C 269.42471 178.21988 260.25252 183.07287 250.5625 182.53516 L 250.43164 182.52734 L 172.74609 182.52734 C 164.85254 182.11682 158.74219 175.69048 158.74219 167.78125 C 158.74219 159.87201 164.85254 153.44372 172.74609 153.0332 L 183.24609 153.0332 L 183.37695 148.41797 C 183.77244 134.49013 192.7769 122.31757 205.97852 117.86133 C 209.27892 116.74727 212.66134 116.17635 216.01758 116.11523 z " />
</svg>
