<?xml version="1.0" encoding="UTF-8" standalone="no"?>
<svg
   xmlns:dc="http://purl.org/dc/elements/1.1/"
   xmlns:cc="http://creativecommons.org/ns#"
   xmlns:rdf="http://www.w3.org/1999/02/22-rdf-syntax-ns#"
   xmlns:svg="http://www.w3.org/2000/svg"
   xmlns="http://www.w3.org/2000/svg"
   xmlns:sodipodi="http://sodipodi.sourceforge.net/DTD/sodipodi-0.dtd"
   xmlns:inkscape="http://www.inkscape.org/namespaces/inkscape"
   width="288px"
   height="288px"
   viewBox="0 0 288 288"
   version="1.1"
   id="svg950"
   sodipodi:docname="20.svg"
   inkscape:version="1.0.2-2 (e86c870879, 2021-01-15)">
  <metadata
     id="metadata956">
    <rdf:RDF>
      <cc:Work
         rdf:about="">
        <dc:format>image/svg+xml</dc:format>
        <dc:type
           rdf:resource="http://purl.org/dc/dcmitype/StillImage" />
      </cc:Work>
    </rdf:RDF>
  </metadata>
  <defs
     id="defs954" />
  <sodipodi:namedview
     pagecolor="#ffffff"
     bordercolor="#666666"
     borderopacity="1"
     objecttolerance="10"
     gridtolerance="10"
     guidetolerance="10"
     inkscape:pageopacity="0"
     inkscape:pageshadow="2"
     inkscape:window-width="1920"
     inkscape:window-height="1017"
     id="namedview952"
     showgrid="false"
     inkscape:zoom="2.8733637"
     inkscape:cx="144"
     inkscape:cy="116.15807"
     inkscape:window-x="-8"
     inkscape:window-y="-8"
     inkscape:window-maximized="1"
     inkscape:current-layer="svg950" />
  <!-- Generator: Sketch 57.1 (83088) - https://sketch.com -->
  <title
     id="title929">ICONS / Forecast / Color / 20 - Mostly Cloudy w Flurries LK</title>
  <desc
     id="desc931">Created with Sketch.</desc>
  <path
     id="path938"
     style="color:#000000;font-style:normal;font-variant:normal;font-weight:normal;font-stretch:normal;font-size:medium;line-height:normal;font-family:sans-serif;font-variant-ligatures:normal;font-variant-position:normal;font-variant-caps:normal;font-variant-numeric:normal;font-variant-alternates:normal;font-variant-east-asian:normal;font-feature-settings:normal;font-variation-settings:normal;text-indent:0;text-align:start;text-decoration:none;text-decoration-line:none;text-decoration-style:solid;text-decoration-color:#000000;letter-spacing:normal;word-spacing:normal;text-transform:none;writing-mode:lr-tb;direction:ltr;text-orientation:mixed;dominant-baseline:auto;baseline-shift:baseline;text-anchor:start;white-space:normal;shape-padding:0;shape-margin:0;inline-size:0;clip-rule:nonzero;display:inline;overflow:visible;visibility:visible;isolation:auto;mix-blend-mode:normal;color-interpolation:sRGB;color-interpolation-filters:linearRGB;solid-color:#000000;solid-opacity:1;vector-effect:none;fill:#ff8700;fill-opacity:1;fill-rule:evenodd;stroke:none;stroke-linecap:butt;stroke-linejoin:miter;stroke-miterlimit:4;stroke-dasharray:none;stroke-dashoffset:0;stroke-opacity:1;color-rendering:auto;image-rendering:auto;shape-rendering:auto;text-rendering:auto;enable-background:accumulate;stop-color:#000000;stop-opacity:1;opacity:1"
     d="m 100.71484,45.035156 c -3.871399,0.01257 -7.772353,0.544632 -11.601559,1.623047 -15.316818,4.31366 -27.053955,16.692671 -30.548828,32.216797 -3.494874,15.524125 1.806263,31.73796 13.796875,42.19922 l 6.333984,-7.26172 C 69.357507,105.6657 65.243176,93.079797 67.964844,80.990234 70.68651,68.90067 79.798441,59.292898 91.726562,55.933594 c 11.928128,-3.359305 24.712968,0.08223 33.343748,8.974609 l 6.91602,-6.710937 C 123.67428,49.633279 112.32905,44.997451 100.71484,45.035156 Z M 42.75,23.599609 l -6.8125,6.814453 23.849609,23.84961 6.814453,-6.814453 z M 14,83.572266 v 9.636718 H 47.726562 V 83.572266 Z M 95.908203,2 v 33.726562 h 9.636717 V 2 Z" />
  <path
     style="color:#000000;font-style:normal;font-variant:normal;font-weight:normal;font-stretch:normal;font-size:medium;line-height:normal;font-family:sans-serif;font-variant-ligatures:normal;font-variant-position:normal;font-variant-caps:normal;font-variant-numeric:normal;font-variant-alternates:normal;font-variant-east-asian:normal;font-feature-settings:normal;font-variation-settings:normal;text-indent:0;text-align:start;text-decoration:none;text-decoration-line:none;text-decoration-style:solid;text-decoration-color:#000000;letter-spacing:normal;word-spacing:normal;text-transform:none;writing-mode:lr-tb;direction:ltr;text-orientation:mixed;dominant-baseline:auto;baseline-shift:baseline;text-anchor:start;white-space:normal;shape-padding:0;shape-margin:0;inline-size:0;clip-rule:nonzero;display:inline;overflow:visible;visibility:visible;opacity:1;isolation:auto;mix-blend-mode:normal;color-interpolation:sRGB;color-interpolation-filters:linearRGB;solid-color:#000000;solid-opacity:1;vector-effect:none;fill:#bababa;fill-opacity:1;fill-rule:evenodd;stroke:none;stroke-linecap:butt;stroke-linejoin:miter;stroke-miterlimit:4;stroke-dasharray:none;stroke-dashoffset:0;stroke-opacity:1;color-rendering:auto;image-rendering:auto;shape-rendering:auto;text-rendering:auto;enable-background:accumulate;stop-color:#000000;stop-opacity:1"
     d="m 156.81836,50.158203 c -7.08173,0.110114 -14.21614,1.263581 -21.17969,3.525391 -26.40929,8.577925 -45.260342,31.552961 -49.060545,58.796876 H 79.09375 c -22.5615,0 -40.955078,18.39358 -40.955078,40.95508 0,22.5615 18.393578,40.95507 40.955078,40.95507 h 139.77539 c 33.20554,0 60.22656,-27.02298 60.22656,-60.22851 0,-33.20554 -27.02102,-60.226563 -60.22656,-60.226563 h -7.49805 C 197.21834,58.352731 177.28455,49.839974 156.81836,50.158203 Z m 0.16211,9.628906 c 18.41203,-0.292095 36.38833,7.562025 48.72461,22.085938 l 1.44336,1.699219 h 11.7207 c 27.99766,0 50.5918,22.592184 50.5918,50.589844 0,27.99765 -22.59414,50.5918 -50.5918,50.5918 H 79.09375 c -17.353624,0 -31.318359,-13.96473 -31.318359,-31.31836 0,-17.35363 13.964735,-31.31836 31.318359,-31.31836 h 16.076172 l 0.339844,-4.45313 C 97.439344,92.329557 114.4501,70.698617 138.61523,62.849609 c 6.04129,-1.962251 12.22789,-2.965135 18.36524,-3.0625 z"
     id="path940" />
  <path
     id="path942"
     style="color:#000000;font-style:normal;font-variant:normal;font-weight:normal;font-stretch:normal;font-size:medium;line-height:normal;font-family:sans-serif;font-variant-ligatures:normal;font-variant-position:normal;font-variant-caps:normal;font-variant-numeric:normal;font-variant-alternates:normal;font-variant-east-asian:normal;font-feature-settings:normal;font-variation-settings:normal;text-indent:0;text-align:start;text-decoration:none;text-decoration-line:none;text-decoration-style:solid;text-decoration-color:#000000;letter-spacing:normal;word-spacing:normal;text-transform:none;writing-mode:lr-tb;direction:ltr;text-orientation:mixed;dominant-baseline:auto;baseline-shift:baseline;text-anchor:start;white-space:normal;shape-padding:0;shape-margin:0;inline-size:0;clip-rule:nonzero;display:inline;overflow:visible;visibility:visible;isolation:auto;mix-blend-mode:normal;color-interpolation:sRGB;color-interpolation-filters:linearRGB;solid-color:#000000;solid-opacity:1;vector-effect:none;fill:#288adb;fill-opacity:1;fill-rule:evenodd;stroke:none;stroke-linecap:butt;stroke-linejoin:miter;stroke-miterlimit:4;stroke-dasharray:none;stroke-dashoffset:0;stroke-opacity:1;color-rendering:auto;image-rendering:auto;shape-rendering:auto;text-rendering:auto;enable-background:accumulate;stop-color:#000000;stop-opacity:1;opacity:1"
     d="M 156.18359 209.18164 L 156.18359 239.39453 L 130.02344 224.2832 L 125.20312 232.62695 L 151.3457 247.72852 L 125.20312 262.82812 L 130.02344 271.17188 L 156.18359 256.06055 L 156.18359 286.27344 L 165.82031 286.27344 L 165.82031 256.08789 L 191.93555 271.17188 L 196.75391 262.82812 L 170.61133 247.72852 L 196.75391 232.62695 L 191.93555 224.2832 L 165.82031 239.36719 L 165.82031 209.18164 L 156.18359 209.18164 z " />
</svg>
