<?xml version="1.0" encoding="UTF-8" standalone="no"?>
<svg
   xmlns:dc="http://purl.org/dc/elements/1.1/"
   xmlns:cc="http://creativecommons.org/ns#"
   xmlns:rdf="http://www.w3.org/1999/02/22-rdf-syntax-ns#"
   xmlns:svg="http://www.w3.org/2000/svg"
   xmlns="http://www.w3.org/2000/svg"
   xmlns:sodipodi="http://sodipodi.sourceforge.net/DTD/sodipodi-0.dtd"
   xmlns:inkscape="http://www.inkscape.org/namespaces/inkscape"
   width="288px"
   height="288px"
   viewBox="0 0 288 288"
   version="1.1"
   id="svg1071"
   sodipodi:docname="21.svg"
   inkscape:version="1.0.2-2 (e86c870879, 2021-01-15)">
  <metadata
     id="metadata1077">
    <rdf:RDF>
      <cc:Work
         rdf:about="">
        <dc:format>image/svg+xml</dc:format>
        <dc:type
           rdf:resource="http://purl.org/dc/dcmitype/StillImage" />
      </cc:Work>
    </rdf:RDF>
  </metadata>
  <defs
     id="defs1075" />
  <sodipodi:namedview
     pagecolor="#ffffff"
     bordercolor="#666666"
     borderopacity="1"
     objecttolerance="10"
     gridtolerance="10"
     guidetolerance="10"
     inkscape:pageopacity="0"
     inkscape:pageshadow="2"
     inkscape:window-width="1920"
     inkscape:window-height="1017"
     id="namedview1073"
     showgrid="false"
     inkscape:zoom="2.8733637"
     inkscape:cx="144"
     inkscape:cy="116.15807"
     inkscape:window-x="-8"
     inkscape:window-y="-8"
     inkscape:window-maximized="1"
     inkscape:current-layer="svg1071" />
  <!-- Generator: Sketch 57.1 (83088) - https://sketch.com -->
  <title
     id="title1044">ICONS / Forecast / Color / 21  - Partly Sunny w Flurries LK</title>
  <desc
     id="desc1046">Created with Sketch.</desc>
  <path
     id="path1057"
     style="color:#000000;font-style:normal;font-variant:normal;font-weight:normal;font-stretch:normal;font-size:medium;line-height:normal;font-family:sans-serif;font-variant-ligatures:normal;font-variant-position:normal;font-variant-caps:normal;font-variant-numeric:normal;font-variant-alternates:normal;font-variant-east-asian:normal;font-feature-settings:normal;font-variation-settings:normal;text-indent:0;text-align:start;text-decoration:none;text-decoration-line:none;text-decoration-style:solid;text-decoration-color:#000000;letter-spacing:normal;word-spacing:normal;text-transform:none;writing-mode:lr-tb;direction:ltr;text-orientation:mixed;dominant-baseline:auto;baseline-shift:baseline;text-anchor:start;white-space:normal;shape-padding:0;shape-margin:0;inline-size:0;clip-rule:nonzero;display:inline;overflow:visible;visibility:visible;opacity:1;isolation:auto;mix-blend-mode:normal;color-interpolation:sRGB;color-interpolation-filters:linearRGB;solid-color:#000000;solid-opacity:1;vector-effect:none;fill:#ff8700;fill-opacity:1;fill-rule:evenodd;stroke:none;stroke-linecap:butt;stroke-linejoin:miter;stroke-miterlimit:4;stroke-dasharray:none;stroke-dashoffset:0;stroke-opacity:1;color-rendering:auto;image-rendering:auto;shape-rendering:auto;text-rendering:auto;enable-background:accumulate;stop-color:#000000;stop-opacity:1"
     d="m 130.23047,52.619141 c -2.01627,-0.0149 -4.04701,0.05576 -6.08594,0.21289 -32.62286,2.514103 -59.483407,26.776858 -65.292968,58.976559 -5.809561,32.19971 10.879091,64.31794 40.566407,78.07422 l 4.035151,-8.70703 C 77.683898,169.23503 63.252098,141.46175 68.294922,113.51172 73.337745,85.561687 96.565473,64.580733 124.88281,62.398438 c 28.31735,-2.182296 54.48418,14.992518 63.75,41.839842 l 9.07031,-3.13086 C 187.69565,72.111169 160.47457,52.842708 130.23047,52.619141 Z m 84.30469,-19.503907 -30.5625,30.513672 6.78125,6.791016 30.56054,-30.513672 z M 68.775391,178.92188 38.214844,209.48438 45,216.26953 75.560547,185.70703 Z M 5.0957031,119.89648 v 9.59571 H 48.275391 v -9.59571 z M 45,33.166016 38.214844,39.951172 68.728516,70.464844 75.513672,63.679688 Z M 124.94336,0 v 43.179688 h 9.5957 V 0 Z" />
  <path
     style="color:#000000;font-style:normal;font-variant:normal;font-weight:normal;font-stretch:normal;font-size:medium;line-height:normal;font-family:sans-serif;font-variant-ligatures:normal;font-variant-position:normal;font-variant-caps:normal;font-variant-numeric:normal;font-variant-alternates:normal;font-variant-east-asian:normal;font-feature-settings:normal;font-variation-settings:normal;text-indent:0;text-align:start;text-decoration:none;text-decoration-line:none;text-decoration-style:solid;text-decoration-color:#000000;letter-spacing:normal;word-spacing:normal;text-transform:none;writing-mode:lr-tb;direction:ltr;text-orientation:mixed;dominant-baseline:auto;baseline-shift:baseline;text-anchor:start;white-space:normal;shape-padding:0;shape-margin:0;inline-size:0;clip-rule:nonzero;display:inline;overflow:visible;visibility:visible;opacity:1;isolation:auto;mix-blend-mode:normal;color-interpolation:sRGB;color-interpolation-filters:linearRGB;solid-color:#000000;solid-opacity:1;vector-effect:none;fill:#bababa;fill-opacity:1;fill-rule:evenodd;stroke:none;stroke-linecap:butt;stroke-linejoin:miter;stroke-miterlimit:4;stroke-dasharray:none;stroke-dashoffset:0;stroke-opacity:1;color-rendering:auto;image-rendering:auto;shape-rendering:auto;text-rendering:auto;enable-background:accumulate;stop-color:#000000;stop-opacity:1"
     d="m 190.73242,97.785156 c -5.69568,0.08257 -11.4341,1.008 -17.03515,2.828124 -20.95964,6.81108 -35.96283,24.94318 -39.20704,46.48633 h -5.03515 c -18.33234,0 -33.296877,14.96454 -33.296877,33.29687 0,18.33234 14.964537,33.29688 33.296877,33.29688 h 110.35742 0.0117 c 26.64102,-0.11709 48.26937,-21.86361 48.24414,-48.50391 0.0131,-12.85767 -5.08698,-25.20005 -14.17383,-34.29687 -9.08776,-9.09776 -21.42409,-14.21094 -34.2832,-14.21094 H 234.2207 C 222.90747,104.32336 207.04004,97.548759 190.73242,97.785156 Z m 0.15235,9.587894 c 14.25527,-0.21245 28.16153,5.90631 37.66796,17.19726 l 1.4375,1.70703 h 9.6211 c 10.31609,0 20.20358,4.09986 27.49414,11.39844 7.29056,7.29857 11.37849,17.18977 11.36719,27.50586 v 0.006 0.006 c 0.0238,21.46923 -17.22238,38.80994 -38.69141,38.9043 H 129.45508 c -13.14652,0 -23.70117,-10.55465 -23.70117,-23.70118 0,-13.14652 10.55465,-23.70117 23.70117,-23.70117 h 13.6289 l 0.32032,-4.45508 c 1.40412,-19.62987 14.54123,-36.41978 33.25781,-42.50195 4.67914,-1.52054 9.4709,-2.29442 14.22266,-2.36523 z"
     id="path1061" />
  <path
     id="path1063"
     style="color:#000000;font-style:normal;font-variant:normal;font-weight:normal;font-stretch:normal;font-size:medium;line-height:normal;font-family:sans-serif;font-variant-ligatures:normal;font-variant-position:normal;font-variant-caps:normal;font-variant-numeric:normal;font-variant-alternates:normal;font-variant-east-asian:normal;font-feature-settings:normal;font-variation-settings:normal;text-indent:0;text-align:start;text-decoration:none;text-decoration-line:none;text-decoration-style:solid;text-decoration-color:#000000;letter-spacing:normal;word-spacing:normal;text-transform:none;writing-mode:lr-tb;direction:ltr;text-orientation:mixed;dominant-baseline:auto;baseline-shift:baseline;text-anchor:start;white-space:normal;shape-padding:0;shape-margin:0;inline-size:0;clip-rule:nonzero;display:inline;overflow:visible;visibility:visible;opacity:1;isolation:auto;mix-blend-mode:normal;color-interpolation:sRGB;color-interpolation-filters:linearRGB;solid-color:#000000;solid-opacity:1;vector-effect:none;fill:#288adb;fill-opacity:1;fill-rule:evenodd;stroke:none;stroke-linecap:butt;stroke-linejoin:miter;stroke-miterlimit:4;stroke-dasharray:none;stroke-dashoffset:0;stroke-opacity:1;color-rendering:auto;image-rendering:auto;shape-rendering:auto;text-rendering:auto;enable-background:accumulate;stop-color:#000000;stop-opacity:1"
     d="m 187.31445,225.49609 v 22.875 L 167.5,236.93359 l -4.79688,8.3086 19.81446,11.4375 -19.81446,11.43945 4.79688,8.30859 19.81445,-11.4375 v 22.87696 h 9.59571 v -22.87891 l 19.8164,11.43945 4.79688,-8.30859 -19.81446,-11.43945 19.81446,-11.4375 -4.79688,-8.3086 -19.8164,11.43946 v -22.87696 z" />
</svg>
