<?xml version="1.0" encoding="UTF-8" standalone="no"?>
<svg
   xmlns:dc="http://purl.org/dc/elements/1.1/"
   xmlns:cc="http://creativecommons.org/ns#"
   xmlns:rdf="http://www.w3.org/1999/02/22-rdf-syntax-ns#"
   xmlns:svg="http://www.w3.org/2000/svg"
   xmlns="http://www.w3.org/2000/svg"
   xmlns:sodipodi="http://sodipodi.sourceforge.net/DTD/sodipodi-0.dtd"
   xmlns:inkscape="http://www.inkscape.org/namespaces/inkscape"
   width="288px"
   height="288px"
   viewBox="0 0 288 288"
   version="1.1"
   id="svg1206"
   sodipodi:docname="22.svg"
   inkscape:version="1.0.2-2 (e86c870879, 2021-01-15)">
  <metadata
     id="metadata1212">
    <rdf:RDF>
      <cc:Work
         rdf:about="">
        <dc:format>image/svg+xml</dc:format>
        <dc:type
           rdf:resource="http://purl.org/dc/dcmitype/StillImage" />
      </cc:Work>
    </rdf:RDF>
  </metadata>
  <defs
     id="defs1210" />
  <sodipodi:namedview
     pagecolor="#ffffff"
     bordercolor="#666666"
     borderopacity="1"
     objecttolerance="10"
     gridtolerance="10"
     guidetolerance="10"
     inkscape:pageopacity="0"
     inkscape:pageshadow="2"
     inkscape:window-width="1920"
     inkscape:window-height="1017"
     id="namedview1208"
     showgrid="false"
     inkscape:zoom="2.8733637"
     inkscape:cx="144"
     inkscape:cy="171.84193"
     inkscape:window-x="-8"
     inkscape:window-y="-8"
     inkscape:window-maximized="1"
     inkscape:current-layer="svg1206" />
  <!-- Generator: Sketch 57.1 (83088) - https://sketch.com -->
  <title
     id="title1181">ICONS / Forecast / Color / 22 - Snow LK</title>
  <desc
     id="desc1183">Created with Sketch.</desc>
  <path
     id="Path"
     style="color:#000000;font-style:normal;font-variant:normal;font-weight:normal;font-stretch:normal;font-size:medium;line-height:normal;font-family:sans-serif;font-variant-ligatures:normal;font-variant-position:normal;font-variant-caps:normal;font-variant-numeric:normal;font-variant-alternates:normal;font-variant-east-asian:normal;font-feature-settings:normal;font-variation-settings:normal;text-indent:0;text-align:start;text-decoration:none;text-decoration-line:none;text-decoration-style:solid;text-decoration-color:#000000;letter-spacing:normal;word-spacing:normal;text-transform:none;writing-mode:lr-tb;direction:ltr;text-orientation:mixed;dominant-baseline:auto;baseline-shift:baseline;text-anchor:start;white-space:normal;shape-padding:0;shape-margin:0;inline-size:0;clip-rule:nonzero;display:inline;overflow:visible;visibility:visible;isolation:auto;mix-blend-mode:normal;color-interpolation:sRGB;color-interpolation-filters:linearRGB;solid-color:#000000;solid-opacity:1;vector-effect:none;fill:#288adb;fill-opacity:1;fill-rule:evenodd;stroke:none;stroke-linecap:butt;stroke-linejoin:miter;stroke-miterlimit:4;stroke-dasharray:none;stroke-dashoffset:0;stroke-opacity:1;color-rendering:auto;image-rendering:auto;shape-rendering:auto;text-rendering:auto;enable-background:accumulate;stop-color:#000000;stop-opacity:1;opacity:1"
     d="M 141.15039 183.63281 L 141.15039 214.34375 L 114.55664 198.98242 L 109.65625 207.46484 L 136.23047 222.81641 L 109.65625 238.16602 L 114.55664 246.65039 L 141.15039 231.28906 L 141.15039 262 L 150.94727 262 L 150.94727 231.31641 L 177.49219 246.65039 L 182.39258 238.16602 L 155.81836 222.81641 L 182.39258 207.46484 L 177.49219 198.98242 L 150.94727 214.31445 L 150.94727 183.63281 L 141.15039 183.63281 z M 55.337891 193.52734 L 55.337891 214.37109 L 37.3125 203.97656 L 32.417969 212.46289 L 50.457031 222.86523 L 32.417969 233.26758 L 37.3125 241.75391 L 55.337891 231.35938 L 55.337891 252.20312 L 65.134766 252.20312 L 65.134766 231.33008 L 83.210938 241.75391 L 88.103516 233.26758 L 70.066406 222.86523 L 88.103516 212.46289 L 83.210938 203.97656 L 65.134766 214.40039 L 65.134766 193.52734 L 55.337891 193.52734 z M 226.91406 193.52734 L 226.91406 214.40039 L 208.83789 203.97656 L 203.94531 212.46289 L 221.98242 222.86523 L 203.94531 233.26758 L 208.83789 241.75391 L 226.91406 231.33008 L 226.91406 252.20312 L 236.71094 252.20312 L 236.71094 231.35938 L 254.73633 241.75391 L 259.63086 233.26758 L 241.5918 222.86523 L 259.63086 212.46289 L 254.73633 203.97656 L 236.71094 214.37109 L 236.71094 193.52734 L 226.91406 193.52734 z " />
  <path
     style="color:#000000;font-style:normal;font-variant:normal;font-weight:normal;font-stretch:normal;font-size:medium;line-height:normal;font-family:sans-serif;font-variant-ligatures:normal;font-variant-position:normal;font-variant-caps:normal;font-variant-numeric:normal;font-variant-alternates:normal;font-variant-east-asian:normal;font-feature-settings:normal;font-variation-settings:normal;text-indent:0;text-align:start;text-decoration:none;text-decoration-line:none;text-decoration-style:solid;text-decoration-color:#000000;letter-spacing:normal;word-spacing:normal;text-transform:none;writing-mode:lr-tb;direction:ltr;text-orientation:mixed;dominant-baseline:auto;baseline-shift:baseline;text-anchor:start;white-space:normal;shape-padding:0;shape-margin:0;inline-size:0;clip-rule:nonzero;display:inline;overflow:visible;visibility:visible;isolation:auto;mix-blend-mode:normal;color-interpolation:sRGB;color-interpolation-filters:linearRGB;solid-color:#000000;solid-opacity:1;vector-effect:none;fill:#bababa;fill-opacity:1;fill-rule:evenodd;stroke:none;stroke-linecap:butt;stroke-linejoin:miter;stroke-miterlimit:4;stroke-dasharray:none;stroke-dashoffset:0;stroke-opacity:1;color-rendering:auto;image-rendering:auto;shape-rendering:auto;text-rendering:auto;enable-background:accumulate;stop-color:#000000;stop-opacity:1;opacity:1"
     d="M 141.79688 21.976562 C 134.59789 22.088499 127.34447 23.261288 120.26562 25.560547 C 93.418968 34.280533 74.25561 57.634943 70.392578 85.330078 L 62.783203 85.330078 C 39.84814 85.330079 21.150391 104.02782 21.150391 126.96289 C 21.150391 149.89796 39.848139 168.5957 62.783203 168.5957 L 204.87305 168.5957 C 238.62838 168.5957 266.09766 141.12643 266.09766 107.37109 C 266.09766 73.615754 238.62838 46.146484 204.87305 46.146484 L 197.25 46.146484 C 182.86297 30.306432 162.60141 21.653073 141.79688 21.976562 z M 141.95898 31.763672 C 160.67588 31.46674 178.95165 39.450449 191.49219 54.214844 L 192.95898 55.943359 L 204.87305 55.943359 C 233.33427 55.943359 256.30273 78.909863 256.30273 107.37109 C 256.30273 135.83232 233.33427 158.80078 204.87305 158.80078 L 62.783203 158.80078 C 45.142247 158.80078 30.947266 144.60385 30.947266 126.96289 C 30.947266 109.32192 45.142247 95.126954 62.783203 95.126953 L 79.126953 95.126953 L 79.470703 90.599609 C 81.432231 64.845626 98.725766 42.855922 123.29102 34.876953 C 129.43233 32.882211 135.72002 31.862649 141.95898 31.763672 z "
     id="path1196" />
</svg>
