<?xml version="1.0" encoding="UTF-8" standalone="no"?>
<svg
   xmlns:dc="http://purl.org/dc/elements/1.1/"
   xmlns:cc="http://creativecommons.org/ns#"
   xmlns:rdf="http://www.w3.org/1999/02/22-rdf-syntax-ns#"
   xmlns:svg="http://www.w3.org/2000/svg"
   xmlns="http://www.w3.org/2000/svg"
   xmlns:sodipodi="http://sodipodi.sourceforge.net/DTD/sodipodi-0.dtd"
   xmlns:inkscape="http://www.inkscape.org/namespaces/inkscape"
   width="288px"
   height="288px"
   viewBox="0 0 288 288"
   version="1.1"
   id="svg1350"
   sodipodi:docname="23.svg"
   inkscape:version="1.0.2-2 (e86c870879, 2021-01-15)">
  <metadata
     id="metadata1356">
    <rdf:RDF>
      <cc:Work
         rdf:about="">
        <dc:format>image/svg+xml</dc:format>
        <dc:type
           rdf:resource="http://purl.org/dc/dcmitype/StillImage" />
      </cc:Work>
    </rdf:RDF>
  </metadata>
  <defs
     id="defs1354" />
  <sodipodi:namedview
     pagecolor="#ffffff"
     bordercolor="#666666"
     borderopacity="1"
     objecttolerance="10"
     gridtolerance="10"
     guidetolerance="10"
     inkscape:pageopacity="0"
     inkscape:pageshadow="2"
     inkscape:window-width="1920"
     inkscape:window-height="1017"
     id="namedview1352"
     showgrid="false"
     inkscape:zoom="2.8733637"
     inkscape:cx="144"
     inkscape:cy="144"
     inkscape:window-x="-8"
     inkscape:window-y="-8"
     inkscape:window-maximized="1"
     inkscape:current-layer="svg1350" />
  <!-- Generator: Sketch 57.1 (83088) - https://sketch.com -->
  <title
     id="title1317">ICONS / Forecast / Color / 23 - Mostly Cloudy with Snow LK</title>
  <desc
     id="desc1319">Created with Sketch.</desc>
  <path
     id="Path"
     style="color:#000000;font-style:normal;font-variant:normal;font-weight:normal;font-stretch:normal;font-size:medium;line-height:normal;font-family:sans-serif;font-variant-ligatures:normal;font-variant-position:normal;font-variant-caps:normal;font-variant-numeric:normal;font-variant-alternates:normal;font-variant-east-asian:normal;font-feature-settings:normal;font-variation-settings:normal;text-indent:0;text-align:start;text-decoration:none;text-decoration-line:none;text-decoration-style:solid;text-decoration-color:#000000;letter-spacing:normal;word-spacing:normal;text-transform:none;writing-mode:lr-tb;direction:ltr;text-orientation:mixed;dominant-baseline:auto;baseline-shift:baseline;text-anchor:start;white-space:normal;shape-padding:0;shape-margin:0;inline-size:0;clip-rule:nonzero;display:inline;overflow:visible;visibility:visible;isolation:auto;mix-blend-mode:normal;color-interpolation:sRGB;color-interpolation-filters:linearRGB;solid-color:#000000;solid-opacity:1;vector-effect:none;fill:#ff8700;fill-opacity:1;fill-rule:evenodd;stroke:none;stroke-linecap:butt;stroke-linejoin:miter;stroke-miterlimit:4;stroke-dasharray:none;stroke-dashoffset:0;stroke-opacity:1;color-rendering:auto;image-rendering:auto;shape-rendering:auto;text-rendering:auto;enable-background:accumulate;stop-color:#000000;stop-opacity:1;opacity:1"
     d="M 95.599609 2 L 95.599609 35.599609 L 105.19922 35.599609 L 105.19922 2 L 95.599609 2 z M 42.642578 23.517578 L 35.853516 30.306641 L 59.613281 54.066406 L 66.402344 47.277344 L 42.642578 23.517578 z M 100.38867 44.873047 C 96.53188 44.885568 92.644834 45.415889 88.830078 46.490234 C 73.571058 50.787616 61.87817 63.11844 58.396484 78.583984 C 54.914799 94.049529 60.19526 110.20322 72.140625 120.625 L 78.451172 113.39062 C 69.148603 105.27456 65.050322 92.737302 67.761719 80.693359 C 70.473115 68.649418 79.548531 59.077097 91.431641 55.730469 C 103.31475 52.383841 116.05412 55.813049 124.65234 64.671875 L 131.54102 57.984375 C 123.26033 49.452707 111.95905 44.835485 100.38867 44.873047 z M 14 83.263672 L 14 92.863281 L 47.599609 92.863281 L 47.599609 83.263672 L 14 83.263672 z " />
  <path
     id="path1328"
     style="color:#000000;font-style:normal;font-variant:normal;font-weight:normal;font-stretch:normal;font-size:medium;line-height:normal;font-family:sans-serif;font-variant-ligatures:normal;font-variant-position:normal;font-variant-caps:normal;font-variant-numeric:normal;font-variant-alternates:normal;font-variant-east-asian:normal;font-feature-settings:normal;font-variation-settings:normal;text-indent:0;text-align:start;text-decoration:none;text-decoration-line:none;text-decoration-style:solid;text-decoration-color:#000000;letter-spacing:normal;word-spacing:normal;text-transform:none;writing-mode:lr-tb;direction:ltr;text-orientation:mixed;dominant-baseline:auto;baseline-shift:baseline;text-anchor:start;white-space:normal;shape-padding:0;shape-margin:0;inline-size:0;clip-rule:nonzero;display:inline;overflow:visible;visibility:visible;isolation:auto;mix-blend-mode:normal;color-interpolation:sRGB;color-interpolation-filters:linearRGB;solid-color:#000000;solid-opacity:1;vector-effect:none;fill:#288adb;fill-opacity:1;fill-rule:evenodd;stroke:none;stroke-linecap:butt;stroke-linejoin:miter;stroke-miterlimit:4;stroke-dasharray:none;stroke-dashoffset:0;stroke-opacity:1;color-rendering:auto;image-rendering:auto;shape-rendering:auto;text-rendering:auto;enable-background:accumulate;stop-color:#000000;stop-opacity:1;opacity:1"
     d="M 155.64844 208.40039 L 155.64844 238.49805 L 129.58398 223.44336 L 124.7832 231.75586 L 150.82812 246.79883 L 124.7832 261.84375 L 129.58398 270.15625 L 155.64844 255.10156 L 155.64844 285.19922 L 165.24805 285.19922 L 165.24805 255.12891 L 191.26367 270.15625 L 196.06445 261.84375 L 170.01953 246.79883 L 196.06445 231.75586 L 191.26367 223.44336 L 165.24805 238.4707 L 165.24805 208.40039 L 155.64844 208.40039 z M 71.552734 218.0957 L 71.552734 238.52539 L 53.886719 228.33789 L 49.089844 236.6543 L 66.767578 246.84766 L 49.089844 257.04102 L 53.886719 265.35742 L 71.552734 255.16992 L 71.552734 275.59961 L 81.152344 275.59961 L 81.152344 255.14258 L 98.865234 265.35742 L 103.66211 257.04102 L 85.986328 246.84766 L 103.66211 236.6543 L 98.865234 228.33789 L 81.152344 238.55273 L 81.152344 218.0957 L 71.552734 218.0957 z M 239.69531 218.0957 L 239.69531 238.55273 L 221.98242 228.33789 L 217.18555 236.6543 L 234.86328 246.84766 L 217.18555 257.04102 L 221.98242 265.35742 L 239.69531 255.14258 L 239.69531 275.59961 L 249.29688 275.59961 L 249.29688 255.16992 L 266.96289 265.35742 L 271.75781 257.04102 L 254.08203 246.84766 L 271.75781 236.6543 L 266.96289 228.33789 L 249.29688 238.52539 L 249.29688 218.0957 L 239.69531 218.0957 z " />
  <path
     style="color:#000000;font-style:normal;font-variant:normal;font-weight:normal;font-stretch:normal;font-size:medium;line-height:normal;font-family:sans-serif;font-variant-ligatures:normal;font-variant-position:normal;font-variant-caps:normal;font-variant-numeric:normal;font-variant-alternates:normal;font-variant-east-asian:normal;font-feature-settings:normal;font-variation-settings:normal;text-indent:0;text-align:start;text-decoration:none;text-decoration-line:none;text-decoration-style:solid;text-decoration-color:#000000;letter-spacing:normal;word-spacing:normal;text-transform:none;writing-mode:lr-tb;direction:ltr;text-orientation:mixed;dominant-baseline:auto;baseline-shift:baseline;text-anchor:start;white-space:normal;shape-padding:0;shape-margin:0;inline-size:0;clip-rule:nonzero;display:inline;overflow:visible;visibility:visible;opacity:1;isolation:auto;mix-blend-mode:normal;color-interpolation:sRGB;color-interpolation-filters:linearRGB;solid-color:#000000;solid-opacity:1;vector-effect:none;fill:#bababa;fill-opacity:1;fill-rule:evenodd;stroke:none;stroke-linecap:butt;stroke-linejoin:miter;stroke-miterlimit:4;stroke-dasharray:none;stroke-dashoffset:0;stroke-opacity:1;color-rendering:auto;image-rendering:auto;shape-rendering:auto;text-rendering:auto;enable-background:accumulate;stop-color:#000000;stop-opacity:1"
     d="m 156.2793,49.976562 c -7.05501,0.109699 -14.16235,1.258445 -21.09961,3.511719 -26.31005,8.545689 -45.089554,31.434505 -48.875002,58.576169 h -7.457032 c -22.476364,0 -40.798828,18.32247 -40.798828,40.79883 0,22.47636 18.322464,40.80078 40.798828,40.80078 H 218.0957 c 33.08024,0 60,-26.91977 60,-60 0,-33.08023 -26.91976,-59.999998 -60,-59.999998 h -7.46875 C 196.52761,58.140155 176.66819,49.659536 156.2793,49.976562 Z m 0.16015,9.591797 c 18.34256,-0.290993 36.25324,7.5348 48.54297,22.003907 l 1.4375,1.691406 h 11.67578 c 27.89201,0 50.40039,22.508378 50.40039,50.400388 0,27.89201 -22.50838,50.40039 -50.40039,50.40039 H 78.847656 c -17.288139,0 -31.199218,-13.91303 -31.199218,-31.20117 0,-17.28814 13.911079,-31.19922 31.199218,-31.19922 h 16.017578 l 0.335938,-4.43554 c 1.922297,-25.238909 18.869418,-46.789991 42.943358,-54.609379 6.01848,-1.954847 12.18074,-2.953784 18.29492,-3.050782 z"
     id="path1340" />
</svg>
