<?xml version="1.0" encoding="UTF-8" standalone="no"?>
<svg
   xmlns:dc="http://purl.org/dc/elements/1.1/"
   xmlns:cc="http://creativecommons.org/ns#"
   xmlns:rdf="http://www.w3.org/1999/02/22-rdf-syntax-ns#"
   xmlns:svg="http://www.w3.org/2000/svg"
   xmlns="http://www.w3.org/2000/svg"
   xmlns:sodipodi="http://sodipodi.sourceforge.net/DTD/sodipodi-0.dtd"
   xmlns:inkscape="http://www.inkscape.org/namespaces/inkscape"
   width="288px"
   height="288px"
   viewBox="0 0 288 288"
   version="1.1"
   id="svg1536"
   sodipodi:docname="25.svg"
   inkscape:version="1.0.2-2 (e86c870879, 2021-01-15)">
  <metadata
     id="metadata1542">
    <rdf:RDF>
      <cc:Work
         rdf:about="">
        <dc:format>image/svg+xml</dc:format>
        <dc:type
           rdf:resource="http://purl.org/dc/dcmitype/StillImage" />
      </cc:Work>
    </rdf:RDF>
  </metadata>
  <defs
     id="defs1540" />
  <sodipodi:namedview
     pagecolor="#ffffff"
     bordercolor="#666666"
     borderopacity="1"
     objecttolerance="10"
     gridtolerance="10"
     guidetolerance="10"
     inkscape:pageopacity="0"
     inkscape:pageshadow="2"
     inkscape:window-width="1920"
     inkscape:window-height="1017"
     id="namedview1538"
     showgrid="false"
     inkscape:zoom="2.8733637"
     inkscape:cx="144"
     inkscape:cy="144"
     inkscape:window-x="-8"
     inkscape:window-y="-8"
     inkscape:window-maximized="1"
     inkscape:current-layer="svg1536" />
  <!-- Generator: Sketch 57.1 (83088) - https://sketch.com -->
  <title
     id="title1524">ICONS / Forecast / Color / 25 - Sleet LK</title>
  <desc
     id="desc1526">Created with Sketch.</desc>
  <path
     style="color:#000000;font-style:normal;font-variant:normal;font-weight:normal;font-stretch:normal;font-size:medium;line-height:normal;font-family:sans-serif;font-variant-ligatures:normal;font-variant-position:normal;font-variant-caps:normal;font-variant-numeric:normal;font-variant-alternates:normal;font-variant-east-asian:normal;font-feature-settings:normal;font-variation-settings:normal;text-indent:0;text-align:start;text-decoration:none;text-decoration-line:none;text-decoration-style:solid;text-decoration-color:#000000;letter-spacing:normal;word-spacing:normal;text-transform:none;writing-mode:lr-tb;direction:ltr;text-orientation:mixed;dominant-baseline:auto;baseline-shift:baseline;text-anchor:start;white-space:normal;shape-padding:0;shape-margin:0;inline-size:0;clip-rule:nonzero;display:inline;overflow:visible;visibility:visible;isolation:auto;mix-blend-mode:normal;color-interpolation:sRGB;color-interpolation-filters:linearRGB;solid-color:#000000;solid-opacity:1;vector-effect:none;fill:#bababa;fill-opacity:1;fill-rule:evenodd;stroke:none;stroke-linecap:butt;stroke-linejoin:miter;stroke-miterlimit:4;stroke-dasharray:none;stroke-dashoffset:0;stroke-opacity:1;color-rendering:auto;image-rendering:auto;shape-rendering:auto;text-rendering:auto;enable-background:accumulate;stop-color:#000000;stop-opacity:1;opacity:1"
     d="M 141.79688 23.976562 C 134.59789 24.088499 127.34447 25.261288 120.26562 27.560547 C 93.418968 36.280533 74.25561 59.634943 70.392578 87.330078 L 62.783203 87.330078 C 39.84814 87.330079 21.150391 106.02782 21.150391 128.96289 C 21.150391 151.89796 39.848139 170.5957 62.783203 170.5957 L 204.87305 170.5957 C 238.62838 170.5957 266.09766 143.12643 266.09766 109.37109 C 266.09766 75.615754 238.62838 48.146484 204.87305 48.146484 L 197.25 48.146484 C 182.86297 32.306432 162.60141 23.653073 141.79688 23.976562 z M 141.95898 33.763672 C 160.67588 33.46674 178.95165 41.450449 191.49219 56.214844 L 192.95898 57.943359 L 204.87305 57.943359 C 233.33427 57.943359 256.30273 80.909863 256.30273 109.37109 C 256.30273 137.83232 233.33427 160.80078 204.87305 160.80078 L 62.783203 160.80078 C 45.142247 160.80078 30.947266 146.60385 30.947266 128.96289 C 30.947266 111.32192 45.142247 97.126954 62.783203 97.126953 L 79.126953 97.126953 L 79.470703 92.599609 C 81.432231 66.845626 98.725766 44.855922 123.29102 36.876953 C 129.43233 34.882211 135.72002 33.862649 141.95898 33.763672 z "
     id="Path" />
  <path
     id="circle1532"
     style="color:#000000;font-style:normal;font-variant:normal;font-weight:normal;font-stretch:normal;font-size:medium;line-height:normal;font-family:sans-serif;font-variant-ligatures:normal;font-variant-position:normal;font-variant-caps:normal;font-variant-numeric:normal;font-variant-alternates:normal;font-variant-east-asian:normal;font-feature-settings:normal;font-variation-settings:normal;text-indent:0;text-align:start;text-decoration:none;text-decoration-line:none;text-decoration-style:solid;text-decoration-color:#000000;letter-spacing:normal;word-spacing:normal;text-transform:none;writing-mode:lr-tb;direction:ltr;text-orientation:mixed;dominant-baseline:auto;baseline-shift:baseline;text-anchor:start;white-space:normal;shape-padding:0;shape-margin:0;inline-size:0;clip-rule:nonzero;display:inline;overflow:visible;visibility:visible;isolation:auto;mix-blend-mode:normal;color-interpolation:sRGB;color-interpolation-filters:linearRGB;solid-color:#000000;solid-opacity:1;vector-effect:none;fill:#288adb;fill-opacity:1;fill-rule:evenodd;stroke:none;stroke-linecap:butt;stroke-linejoin:miter;stroke-miterlimit:4;stroke-dasharray:none;stroke-dashoffset:0;stroke-opacity:1;color-rendering:auto;image-rendering:auto;shape-rendering:auto;text-rendering:auto;enable-background:accumulate;stop-color:#000000;stop-opacity:1;opacity:1"
     d="m 141.05273,202.72656 c -12.11479,0 -22.04101,9.92623 -22.04101,22.04102 0,12.11479 9.92622,22.04101 22.04101,22.04101 12.1148,0 22.04102,-9.92622 22.04102,-22.04101 0,-12.11479 -9.92622,-22.04102 -22.04102,-22.04102 z m 0,9.79492 c 6.82069,0 12.2461,5.42541 12.2461,12.2461 0,6.82068 -5.42541,12.24414 -12.2461,12.24414 -6.82068,0 -12.24414,-5.42346 -12.24414,-12.24414 0,-6.82069 5.42346,-12.2461 12.24414,-12.2461 z m -53.925777,7.49414 c -12.114792,0 -22.041015,9.92623 -22.041015,22.04102 0,12.11479 9.926223,22.04102 22.041015,22.04102 12.114793,0 22.041017,-9.92623 22.041017,-22.04102 0,-12.11479 -9.926224,-22.04101 -22.041017,-22.04102 z m 0,9.79688 c 6.820684,0 12.244141,5.42346 12.244141,12.24414 0,6.82068 -5.423457,12.24609 -12.244141,12.24609 -6.820684,0 -12.246094,-5.42541 -12.246094,-12.24609 0,-6.82068 5.42541,-12.24414 12.246094,-12.24414 z m 107.853517,-44.375 c -12.11479,0 -22.04102,9.92622 -22.04102,22.04102 0,12.11479 9.92623,22.03906 22.04102,22.03906 12.11479,0 22.03906,-9.92427 22.03906,-22.03906 0,-12.1148 -9.92427,-22.04102 -22.03906,-22.04102 z m 0,9.79492 c 6.82068,0 12.24414,5.42541 12.24414,12.2461 0,6.82068 -5.42346,12.24414 -12.24414,12.24414 -6.82069,0 -12.24609,-5.42346 -12.24609,-12.24414 0,-6.82069 5.4254,-12.2461 12.24609,-12.2461 z" />
</svg>
