<?xml version="1.0" encoding="UTF-8" standalone="no"?>
<svg
   xmlns:dc="http://purl.org/dc/elements/1.1/"
   xmlns:cc="http://creativecommons.org/ns#"
   xmlns:rdf="http://www.w3.org/1999/02/22-rdf-syntax-ns#"
   xmlns:svg="http://www.w3.org/2000/svg"
   xmlns="http://www.w3.org/2000/svg"
   xmlns:sodipodi="http://sodipodi.sourceforge.net/DTD/sodipodi-0.dtd"
   xmlns:inkscape="http://www.inkscape.org/namespaces/inkscape"
   width="288px"
   height="288px"
   viewBox="0 0 288 288"
   version="1.1"
   id="svg1622"
   sodipodi:docname="26.svg"
   inkscape:version="1.0.2-2 (e86c870879, 2021-01-15)">
  <metadata
     id="metadata1628">
    <rdf:RDF>
      <cc:Work
         rdf:about="">
        <dc:format>image/svg+xml</dc:format>
        <dc:type
           rdf:resource="http://purl.org/dc/dcmitype/StillImage" />
      </cc:Work>
    </rdf:RDF>
  </metadata>
  <defs
     id="defs1626" />
  <sodipodi:namedview
     pagecolor="#ffffff"
     bordercolor="#666666"
     borderopacity="1"
     objecttolerance="10"
     gridtolerance="10"
     guidetolerance="10"
     inkscape:pageopacity="0"
     inkscape:pageshadow="2"
     inkscape:window-width="1920"
     inkscape:window-height="1017"
     id="namedview1624"
     showgrid="false"
     inkscape:zoom="2.8733637"
     inkscape:cx="144"
     inkscape:cy="144"
     inkscape:window-x="-8"
     inkscape:window-y="-8"
     inkscape:window-maximized="1"
     inkscape:current-layer="svg1622" />
  <!-- Generator: Sketch 57.1 (83088) - https://sketch.com -->
  <title
     id="title1606">ICONS / Forecast / Color / 26 - Freezing Rain LK</title>
  <desc
     id="desc1608">Created with Sketch.</desc>
  <path
     id="Path"
     style="color:#000000;font-style:normal;font-variant:normal;font-weight:normal;font-stretch:normal;font-size:medium;line-height:normal;font-family:sans-serif;font-variant-ligatures:normal;font-variant-position:normal;font-variant-caps:normal;font-variant-numeric:normal;font-variant-alternates:normal;font-variant-east-asian:normal;font-feature-settings:normal;font-variation-settings:normal;text-indent:0;text-align:start;text-decoration:none;text-decoration-line:none;text-decoration-style:solid;text-decoration-color:#000000;letter-spacing:normal;word-spacing:normal;text-transform:none;writing-mode:lr-tb;direction:ltr;text-orientation:mixed;dominant-baseline:auto;baseline-shift:baseline;text-anchor:start;white-space:normal;shape-padding:0;shape-margin:0;inline-size:0;clip-rule:nonzero;display:inline;overflow:visible;visibility:visible;isolation:auto;mix-blend-mode:normal;color-interpolation:sRGB;color-interpolation-filters:linearRGB;solid-color:#000000;solid-opacity:1;vector-effect:none;fill:#288adb;fill-opacity:1;fill-rule:evenodd;stroke:none;stroke-linecap:butt;stroke-linejoin:miter;stroke-miterlimit:4;stroke-dasharray:none;stroke-dashoffset:0;stroke-opacity:1;color-rendering:auto;image-rendering:auto;shape-rendering:auto;text-rendering:auto;enable-background:accumulate;stop-color:#000000;stop-opacity:1;opacity:1"
     d="M 101.88867 186.03516 L 84.599609 215.96289 L 93.082031 220.86328 L 110.37109 190.93555 L 101.88867 186.03516 z M 137.93945 186.03516 L 108.20898 237.46289 L 116.68945 242.36523 L 146.41992 190.9375 L 137.93945 186.03516 z M 173.02539 188.53516 L 149.39062 224.83594 L 172.97852 262.24805 L 181.61719 262.24805 L 205.20508 224.83594 L 181.57031 188.53516 L 178.91406 188.53516 L 173.02539 188.53516 z M 177.29883 199.92578 L 193.57031 224.91992 L 177.29688 250.73242 L 161.02539 224.91992 L 177.29883 199.92578 z M 80.269531 224.33789 C 76.648653 224.33789 73.607422 227.37912 73.607422 231 C 73.607422 234.62088 76.648653 237.66211 80.269531 237.66211 C 83.89041 237.66211 86.929688 234.62088 86.929688 231 C 86.929687 227.37912 83.89041 224.33789 80.269531 224.33789 z M 80.269531 227.86523 C 81.942761 227.86523 83.404297 229.32677 83.404297 231 C 83.404297 232.67323 81.942761 234.13477 80.269531 234.13477 C 78.596302 234.13477 77.134766 232.67323 77.134766 231 C 77.134766 229.32677 78.596302 227.86523 80.269531 227.86523 z M 102.11523 248.92578 C 98.49436 248.92578 95.453125 251.96701 95.453125 255.58789 C 95.453125 259.20877 98.49436 262.24805 102.11523 262.24805 C 105.73611 262.24805 108.77539 259.20877 108.77539 255.58789 C 108.77539 251.96701 105.73611 248.92578 102.11523 248.92578 z M 102.11523 252.45312 C 103.78846 252.45312 105.24805 253.91466 105.24805 255.58789 C 105.24805 257.26112 103.78846 258.72266 102.11523 258.72266 C 100.442 258.72266 98.980469 257.26112 98.980469 255.58789 C 98.980469 253.91466 100.442 252.45312 102.11523 252.45312 z " />
  <path
     style="color:#000000;font-style:normal;font-variant:normal;font-weight:normal;font-stretch:normal;font-size:medium;line-height:normal;font-family:sans-serif;font-variant-ligatures:normal;font-variant-position:normal;font-variant-caps:normal;font-variant-numeric:normal;font-variant-alternates:normal;font-variant-east-asian:normal;font-feature-settings:normal;font-variation-settings:normal;text-indent:0;text-align:start;text-decoration:none;text-decoration-line:none;text-decoration-style:solid;text-decoration-color:#000000;letter-spacing:normal;word-spacing:normal;text-transform:none;writing-mode:lr-tb;direction:ltr;text-orientation:mixed;dominant-baseline:auto;baseline-shift:baseline;text-anchor:start;white-space:normal;shape-padding:0;shape-margin:0;inline-size:0;clip-rule:nonzero;display:inline;overflow:visible;visibility:visible;isolation:auto;mix-blend-mode:normal;color-interpolation:sRGB;color-interpolation-filters:linearRGB;solid-color:#000000;solid-opacity:1;vector-effect:none;fill:#bababa;fill-opacity:1;fill-rule:evenodd;stroke:none;stroke-linecap:butt;stroke-linejoin:miter;stroke-miterlimit:4;stroke-dasharray:none;stroke-dashoffset:0;stroke-opacity:1;color-rendering:auto;image-rendering:auto;shape-rendering:auto;text-rendering:auto;enable-background:accumulate;stop-color:#000000;stop-opacity:1;opacity:1"
     d="M 141.79688 26.976562 C 134.59789 27.088499 127.34447 28.261288 120.26562 30.560547 C 93.418968 39.280533 74.25561 62.634943 70.392578 90.330078 L 62.783203 90.330078 C 39.84814 90.330079 21.150391 109.02782 21.150391 131.96289 C 21.150391 154.89796 39.848139 173.5957 62.783203 173.5957 L 204.87305 173.5957 C 238.62838 173.5957 266.09766 146.12643 266.09766 112.37109 C 266.09766 78.615754 238.62838 51.146484 204.87305 51.146484 L 197.25 51.146484 C 182.86297 35.306432 162.60141 26.653073 141.79688 26.976562 z M 141.95898 36.763672 C 160.67588 36.46674 178.95165 44.450449 191.49219 59.214844 L 192.95898 60.943359 L 204.87305 60.943359 C 233.33427 60.943359 256.30273 83.909863 256.30273 112.37109 C 256.30273 140.83232 233.33427 163.80078 204.87305 163.80078 L 62.783203 163.80078 C 45.142247 163.80078 30.947266 149.60385 30.947266 131.96289 C 30.947266 114.32192 45.142247 100.12695 62.783203 100.12695 L 79.126953 100.12695 L 79.470703 95.599609 C 81.432231 69.845626 98.725766 47.855922 123.29102 39.876953 C 129.43233 37.882211 135.72002 36.862649 141.95898 36.763672 z "
     id="path1611" />
</svg>
