<?xml version="1.0" encoding="UTF-8" standalone="no"?>
<svg
   xmlns:dc="http://purl.org/dc/elements/1.1/"
   xmlns:cc="http://creativecommons.org/ns#"
   xmlns:rdf="http://www.w3.org/1999/02/22-rdf-syntax-ns#"
   xmlns:svg="http://www.w3.org/2000/svg"
   xmlns="http://www.w3.org/2000/svg"
   xmlns:sodipodi="http://sodipodi.sourceforge.net/DTD/sodipodi-0.dtd"
   xmlns:inkscape="http://www.inkscape.org/namespaces/inkscape"
   width="288px"
   height="288px"
   viewBox="0 0 288 288"
   version="1.1"
   id="svg1710"
   sodipodi:docname="29.svg"
   inkscape:version="1.0.2-2 (e86c870879, 2021-01-15)">
  <metadata
     id="metadata1716">
    <rdf:RDF>
      <cc:Work
         rdf:about="">
        <dc:format>image/svg+xml</dc:format>
        <dc:type
           rdf:resource="http://purl.org/dc/dcmitype/StillImage" />
      </cc:Work>
    </rdf:RDF>
  </metadata>
  <defs
     id="defs1714" />
  <sodipodi:namedview
     pagecolor="#ffffff"
     bordercolor="#666666"
     borderopacity="1"
     objecttolerance="10"
     gridtolerance="10"
     guidetolerance="10"
     inkscape:pageopacity="0"
     inkscape:pageshadow="2"
     inkscape:window-width="1920"
     inkscape:window-height="1017"
     id="namedview1712"
     showgrid="false"
     inkscape:zoom="2.8733637"
     inkscape:cx="144"
     inkscape:cy="144"
     inkscape:window-x="-8"
     inkscape:window-y="-8"
     inkscape:window-maximized="1"
     inkscape:current-layer="svg1710" />
  <!-- Generator: Sketch 57.1 (83088) - https://sketch.com -->
  <title
     id="title1693">ICONS / Forecast / Color / 29 - Rain &amp; Snow Mix LK</title>
  <desc
     id="desc1695">Created with Sketch.</desc>
  <path
     style="color:#000000;font-style:normal;font-variant:normal;font-weight:normal;font-stretch:normal;font-size:medium;line-height:normal;font-family:sans-serif;font-variant-ligatures:normal;font-variant-position:normal;font-variant-caps:normal;font-variant-numeric:normal;font-variant-alternates:normal;font-variant-east-asian:normal;font-feature-settings:normal;font-variation-settings:normal;text-indent:0;text-align:start;text-decoration:none;text-decoration-line:none;text-decoration-style:solid;text-decoration-color:#000000;letter-spacing:normal;word-spacing:normal;text-transform:none;writing-mode:lr-tb;direction:ltr;text-orientation:mixed;dominant-baseline:auto;baseline-shift:baseline;text-anchor:start;white-space:normal;shape-padding:0;shape-margin:0;inline-size:0;clip-rule:nonzero;display:inline;overflow:visible;visibility:visible;isolation:auto;mix-blend-mode:normal;color-interpolation:sRGB;color-interpolation-filters:linearRGB;solid-color:#000000;solid-opacity:1;vector-effect:none;fill:#bababa;fill-opacity:1;fill-rule:evenodd;stroke:none;stroke-linecap:butt;stroke-linejoin:miter;stroke-miterlimit:4;stroke-dasharray:none;stroke-dashoffset:0;stroke-opacity:1;color-rendering:auto;image-rendering:auto;shape-rendering:auto;text-rendering:auto;enable-background:accumulate;stop-color:#000000;stop-opacity:1;opacity:1"
     d="M 141.79688 25.976562 C 134.59789 26.088499 127.34447 27.261288 120.26562 29.560547 C 93.418968 38.280533 74.25561 61.634943 70.392578 89.330078 L 62.783203 89.330078 C 39.84814 89.330079 21.150391 108.02782 21.150391 130.96289 C 21.150391 153.89796 39.848139 172.5957 62.783203 172.5957 L 204.87305 172.5957 C 238.62838 172.5957 266.09766 145.12643 266.09766 111.37109 C 266.09766 77.615754 238.62838 50.146484 204.87305 50.146484 L 197.25 50.146484 C 182.86297 34.306432 162.60141 25.653073 141.79688 25.976562 z M 141.95898 35.763672 C 160.67588 35.46674 178.95165 43.450449 191.49219 58.214844 L 192.95898 59.943359 L 204.87305 59.943359 C 233.33427 59.943359 256.30273 82.909863 256.30273 111.37109 C 256.30273 139.83232 233.33427 162.80078 204.87305 162.80078 L 62.783203 162.80078 C 45.142247 162.80078 30.947266 148.60385 30.947266 130.96289 C 30.947266 113.32192 45.142247 99.126954 62.783203 99.126953 L 79.126953 99.126953 L 79.470703 94.599609 C 81.432231 68.845626 98.725766 46.855922 123.29102 38.876953 C 129.43233 36.882211 135.72002 35.862649 141.95898 35.763672 z "
     id="Path" />
  <path
     id="path1698"
     style="color:#000000;font-style:normal;font-variant:normal;font-weight:normal;font-stretch:normal;font-size:medium;line-height:normal;font-family:sans-serif;font-variant-ligatures:normal;font-variant-position:normal;font-variant-caps:normal;font-variant-numeric:normal;font-variant-alternates:normal;font-variant-east-asian:normal;font-feature-settings:normal;font-variation-settings:normal;text-indent:0;text-align:start;text-decoration:none;text-decoration-line:none;text-decoration-style:solid;text-decoration-color:#000000;letter-spacing:normal;word-spacing:normal;text-transform:none;writing-mode:lr-tb;direction:ltr;text-orientation:mixed;dominant-baseline:auto;baseline-shift:baseline;text-anchor:start;white-space:normal;shape-padding:0;shape-margin:0;inline-size:0;clip-rule:nonzero;display:inline;overflow:visible;visibility:visible;isolation:auto;mix-blend-mode:normal;color-interpolation:sRGB;color-interpolation-filters:linearRGB;solid-color:#000000;solid-opacity:1;vector-effect:none;fill:#288adb;fill-opacity:1;fill-rule:evenodd;stroke:none;stroke-linecap:butt;stroke-linejoin:miter;stroke-miterlimit:4;stroke-dasharray:none;stroke-dashoffset:0;stroke-opacity:1;color-rendering:auto;image-rendering:auto;shape-rendering:auto;text-rendering:auto;enable-background:accumulate;stop-color:#000000;stop-opacity:1;opacity:1"
     d="M 101.89648 185.02539 L 75.251953 230.86914 L 83.720703 235.79102 L 110.36523 189.94727 L 101.89648 185.02539 z M 138.04297 185.12109 L 97.634766 254.62305 L 106.10352 259.54688 L 146.51172 190.04492 L 138.04297 185.12109 z M 175.28906 187.48633 L 175.28906 208.33203 L 157.26367 197.9375 L 152.36914 206.42188 L 170.4082 216.82422 L 152.36914 227.22656 L 157.26367 235.71289 L 175.28906 225.31836 L 175.28906 246.16406 L 185.08594 246.16406 L 185.08594 225.28906 L 203.16211 235.71289 L 208.05469 227.22656 L 190.01758 216.82422 L 208.05469 206.42188 L 203.16211 197.9375 L 185.08594 208.36133 L 185.08594 187.48633 L 175.28906 187.48633 z " />
</svg>
