<?xml version="1.0" encoding="UTF-8" standalone="no"?>
<svg
   xmlns:dc="http://purl.org/dc/elements/1.1/"
   xmlns:cc="http://creativecommons.org/ns#"
   xmlns:rdf="http://www.w3.org/1999/02/22-rdf-syntax-ns#"
   xmlns:svg="http://www.w3.org/2000/svg"
   xmlns="http://www.w3.org/2000/svg"
   xmlns:sodipodi="http://sodipodi.sourceforge.net/DTD/sodipodi-0.dtd"
   xmlns:inkscape="http://www.inkscape.org/namespaces/inkscape"
   width="288px"
   height="288px"
   viewBox="0 0 288 288"
   version="1.1"
   id="svg363"
   sodipodi:docname="3.svg"
   inkscape:version="1.0.2-2 (e86c870879, 2021-01-15)">
  <metadata
     id="metadata369">
    <rdf:RDF>
      <cc:Work
         rdf:about="">
        <dc:format>image/svg+xml</dc:format>
        <dc:type
           rdf:resource="http://purl.org/dc/dcmitype/StillImage" />
      </cc:Work>
    </rdf:RDF>
  </metadata>
  <defs
     id="defs367" />
  <sodipodi:namedview
     pagecolor="#ffffff"
     bordercolor="#666666"
     borderopacity="1"
     objecttolerance="10"
     gridtolerance="10"
     guidetolerance="10"
     inkscape:pageopacity="0"
     inkscape:pageshadow="2"
     inkscape:window-width="1920"
     inkscape:window-height="1017"
     id="namedview365"
     showgrid="false"
     inkscape:zoom="2.7974012"
     inkscape:cx="77.005348"
     inkscape:cy="144"
     inkscape:window-x="-8"
     inkscape:window-y="-8"
     inkscape:window-maximized="1"
     inkscape:current-layer="svg363"
     inkscape:document-rotation="0" />
  <!-- Generator: Sketch 57.1 (83088) - https://sketch.com -->
  <title
     id="title344">ICONS / Forecast / Color / 03 - Partly Sunny LK</title>
  <desc
     id="desc346">Created with Sketch.</desc>
  <path
     id="Path"
     style="color:#000000;font-style:normal;font-variant:normal;font-weight:normal;font-stretch:normal;font-size:medium;line-height:normal;font-family:sans-serif;font-variant-ligatures:normal;font-variant-position:normal;font-variant-caps:normal;font-variant-numeric:normal;font-variant-alternates:normal;font-variant-east-asian:normal;font-feature-settings:normal;font-variation-settings:normal;text-indent:0;text-align:start;text-decoration:none;text-decoration-line:none;text-decoration-style:solid;text-decoration-color:#000000;letter-spacing:normal;word-spacing:normal;text-transform:none;writing-mode:lr-tb;direction:ltr;text-orientation:mixed;dominant-baseline:auto;baseline-shift:baseline;text-anchor:start;white-space:normal;shape-padding:0;shape-margin:0;inline-size:0;clip-rule:nonzero;display:inline;overflow:visible;visibility:visible;isolation:auto;mix-blend-mode:normal;color-interpolation:sRGB;color-interpolation-filters:linearRGB;solid-color:#000000;solid-opacity:1;vector-effect:none;fill:#ff8700;fill-opacity:1;fill-rule:evenodd;stroke:none;stroke-linecap:butt;stroke-linejoin:miter;stroke-miterlimit:4;stroke-dasharray:none;stroke-dashoffset:0;stroke-opacity:1;color-rendering:auto;image-rendering:auto;shape-rendering:auto;text-rendering:auto;enable-background:accumulate;stop-color:#000000;stop-opacity:1;opacity:1"
     d="M 139.10156 21 L 139.10156 68.966797 L 148.69531 68.966797 L 148.69531 21 L 139.10156 21 z M 45.554688 59.769531 L 38.769531 66.554688 L 72.681641 100.4668 L 79.466797 93.681641 L 45.554688 59.769531 z M 242.24219 59.769531 L 208.33008 93.681641 L 215.11328 100.4668 L 249.02539 66.554688 L 242.24219 59.769531 z M 145.39844 83.322266 C 144.23475 83.299345 143.07493 83.301316 141.91797 83.328125 C 109.52299 84.078794 79.99649 104.16157 67.876953 135.16406 C 54.026053 170.59547 66.556451 210.96445 98.035156 232.32617 L 103.42188 224.38867 C 75.604939 205.51186 64.572812 169.96804 76.8125 138.6582 C 89.052188 107.34836 121.26548 88.709796 154.50977 93.703125 C 187.75404 98.696453 213.07069 125.97601 215.57227 159.5 L 225.13867 158.78516 C 222.30779 120.84813 193.55605 89.865486 155.93555 84.214844 C 152.40862 83.685095 148.88951 83.391029 145.39844 83.322266 z M 0 160.10156 L 0 169.69531 L 47.966797 169.69531 L 47.966797 160.10156 L 0 160.10156 z M 72.681641 229.33008 L 38.769531 263.24219 L 45.554688 270.02539 L 79.466797 236.11328 L 72.681641 229.33008 z " />
  <path
     style="color:#000000;font-style:normal;font-variant:normal;font-weight:normal;font-stretch:normal;font-size:medium;line-height:normal;font-family:sans-serif;font-variant-ligatures:normal;font-variant-position:normal;font-variant-caps:normal;font-variant-numeric:normal;font-variant-alternates:normal;font-variant-east-asian:normal;font-feature-settings:normal;font-variation-settings:normal;text-indent:0;text-align:start;text-decoration:none;text-decoration-line:none;text-decoration-style:solid;text-decoration-color:#000000;letter-spacing:normal;word-spacing:normal;text-transform:none;writing-mode:lr-tb;direction:ltr;text-orientation:mixed;dominant-baseline:auto;baseline-shift:baseline;text-anchor:start;white-space:normal;shape-padding:0;shape-margin:0;inline-size:0;clip-rule:nonzero;display:inline;overflow:visible;visibility:visible;isolation:auto;mix-blend-mode:normal;color-interpolation:sRGB;color-interpolation-filters:linearRGB;solid-color:#000000;solid-opacity:1;vector-effect:none;fill:#bababa;fill-opacity:1;fill-rule:evenodd;stroke:none;stroke-linecap:butt;stroke-linejoin:miter;stroke-miterlimit:4;stroke-dasharray:none;stroke-dashoffset:0;stroke-opacity:1;color-rendering:auto;image-rendering:auto;shape-rendering:auto;text-rendering:auto;enable-background:accumulate;stop-color:#000000;stop-opacity:1;opacity:1"
     d="M 191.63281 146.02148 C 186.02571 146.04126 180.3682 146.88232 174.83398 148.5957 C 154.11357 155.01068 139.02349 172.55108 135.31836 193.67773 L 129.50781 193.67773 C 111.02097 193.67773 95.931641 208.76705 95.931641 227.25391 C 95.931641 245.74075 111.02097 260.83008 129.50781 260.83008 L 239.83008 260.83008 C 266.26421 260.83008 287.79687 239.29937 287.79688 212.86523 C 287.79688 186.43109 266.26421 164.89844 239.83008 164.89844 L 234.30469 164.89844 C 223.2105 152.72988 207.67211 145.96492 191.63281 146.02148 z M 191.67773 155.60938 C 205.69509 155.55445 219.30941 161.65942 228.62305 172.77539 L 230.06055 174.49219 L 239.83008 174.49219 C 261.07965 174.49219 278.20312 191.61565 278.20312 212.86523 C 278.20312 234.1148 261.07965 251.23633 239.83008 251.23633 L 129.50781 251.23633 C 116.20554 251.23633 105.52539 240.55618 105.52539 227.25391 C 105.52539 213.95162 116.20553 203.27148 129.50781 203.27148 L 143.69531 203.27148 L 144.11523 198.93945 C 145.9865 179.69417 159.19886 163.47835 177.66992 157.75977 C 182.28768 156.33012 187.00528 155.62768 191.67773 155.60938 z "
     id="path359" />
</svg>
