<?xml version="1.0" encoding="UTF-8" standalone="no"?>
<svg
   xmlns:dc="http://purl.org/dc/elements/1.1/"
   xmlns:cc="http://creativecommons.org/ns#"
   xmlns:rdf="http://www.w3.org/1999/02/22-rdf-syntax-ns#"
   xmlns:svg="http://www.w3.org/2000/svg"
   xmlns="http://www.w3.org/2000/svg"
   xmlns:sodipodi="http://sodipodi.sourceforge.net/DTD/sodipodi-0.dtd"
   xmlns:inkscape="http://www.inkscape.org/namespaces/inkscape"
   width="288px"
   height="288px"
   viewBox="0 0 288 288"
   version="1.1"
   id="svg1796"
   sodipodi:docname="30.svg"
   inkscape:version="1.0.2-2 (e86c870879, 2021-01-15)">
  <metadata
     id="metadata1802">
    <rdf:RDF>
      <cc:Work
         rdf:about="">
        <dc:format>image/svg+xml</dc:format>
        <dc:type
           rdf:resource="http://purl.org/dc/dcmitype/StillImage" />
      </cc:Work>
    </rdf:RDF>
  </metadata>
  <defs
     id="defs1800" />
  <sodipodi:namedview
     pagecolor="#ffffff"
     bordercolor="#666666"
     borderopacity="1"
     objecttolerance="10"
     gridtolerance="10"
     guidetolerance="10"
     inkscape:pageopacity="0"
     inkscape:pageshadow="2"
     inkscape:window-width="1920"
     inkscape:window-height="1017"
     id="namedview1798"
     showgrid="false"
     inkscape:zoom="2.8733637"
     inkscape:cx="144"
     inkscape:cy="138.91067"
     inkscape:window-x="-8"
     inkscape:window-y="-8"
     inkscape:window-maximized="1"
     inkscape:current-layer="svg1796" />
  <!-- Generator: Sketch 57.1 (83088) - https://sketch.com -->
  <title
     id="title1780">ICONS / Forecast / Color / 30 - Hot LK</title>
  <desc
     id="desc1782">Created with Sketch.</desc>
  <path
     id="Oval"
     style="color:#000000;font-style:normal;font-variant:normal;font-weight:normal;font-stretch:normal;font-size:medium;line-height:normal;font-family:sans-serif;font-variant-ligatures:normal;font-variant-position:normal;font-variant-caps:normal;font-variant-numeric:normal;font-variant-alternates:normal;font-variant-east-asian:normal;font-feature-settings:normal;font-variation-settings:normal;text-indent:0;text-align:start;text-decoration:none;text-decoration-line:none;text-decoration-style:solid;text-decoration-color:#000000;letter-spacing:normal;word-spacing:normal;text-transform:none;writing-mode:lr-tb;direction:ltr;text-orientation:mixed;dominant-baseline:auto;baseline-shift:baseline;text-anchor:start;white-space:normal;shape-padding:0;shape-margin:0;inline-size:0;clip-rule:nonzero;display:inline;overflow:visible;visibility:visible;opacity:1;isolation:auto;mix-blend-mode:normal;color-interpolation:sRGB;color-interpolation-filters:linearRGB;solid-color:#000000;solid-opacity:1;vector-effect:none;fill:#ff8700;fill-opacity:1;fill-rule:evenodd;stroke:none;stroke-linecap:butt;stroke-linejoin:miter;stroke-miterlimit:4;stroke-dasharray:none;stroke-dashoffset:0;stroke-opacity:1;color-rendering:auto;image-rendering:auto;shape-rendering:auto;text-rendering:auto;enable-background:accumulate;stop-color:#000000;stop-opacity:1"
     d="M 139.54492 42.628906 L 139.54492 201.67383 C 128.24656 203.98679 119.67773 214.04115 119.67773 225.99609 C 119.67773 239.64637 130.84972 250.81836 144.5 250.81836 C 158.15028 250.81836 169.32227 239.64637 169.32227 225.99609 C 169.32227 214.04115 160.75344 203.98679 149.45508 201.67383 L 149.45508 42.628906 L 139.54492 42.628906 z M 144.5 211.08203 C 152.79501 211.08203 159.41406 217.70109 159.41406 225.99609 C 159.41406 234.2911 152.79501 240.9082 144.5 240.9082 C 136.20499 240.9082 129.58594 234.2911 129.58594 225.99609 C 129.58594 217.70109 136.20499 211.08203 144.5 211.08203 z " />
  <path
     id="Path"
     style="color:#000000;font-style:normal;font-variant:normal;font-weight:normal;font-stretch:normal;font-size:medium;line-height:normal;font-family:sans-serif;font-variant-ligatures:normal;font-variant-position:normal;font-variant-caps:normal;font-variant-numeric:normal;font-variant-alternates:normal;font-variant-east-asian:normal;font-feature-settings:normal;font-variation-settings:normal;text-indent:0;text-align:start;text-decoration:none;text-decoration-line:none;text-decoration-style:solid;text-decoration-color:#000000;letter-spacing:normal;word-spacing:normal;text-transform:none;writing-mode:lr-tb;direction:ltr;text-orientation:mixed;dominant-baseline:auto;baseline-shift:baseline;text-anchor:start;white-space:normal;shape-padding:0;shape-margin:0;inline-size:0;clip-rule:nonzero;display:inline;overflow:visible;visibility:visible;opacity:1;isolation:auto;mix-blend-mode:normal;color-interpolation:sRGB;color-interpolation-filters:linearRGB;solid-color:#000000;solid-opacity:1;vector-effect:none;fill:#686763;fill-opacity:1;fill-rule:evenodd;stroke:none;stroke-linecap:butt;stroke-linejoin:miter;stroke-miterlimit:4;stroke-dasharray:none;stroke-dashoffset:0;stroke-opacity:1;color-rendering:auto;image-rendering:auto;shape-rendering:auto;text-rendering:auto;enable-background:accumulate;stop-color:#000000;stop-opacity:1"
     d="m 144.5,8.0449219 c -16.35923,0 -29.72656,13.3692811 -29.72656,29.7285161 V 180.41992 c -19.582644,12.80847 -29.03013,36.76582 -22.916018,59.58399 6.378098,23.80338 27.999508,40.39453 52.642578,40.39453 24.64307,0 46.26448,-16.59115 52.64258,-40.39453 6.11412,-22.81817 -3.33338,-46.77552 -22.91602,-59.58399 v -58.46875 h 19.72071 v -9.91015 H 174.22656 V 87.269531 h 19.72071 V 77.359375 H 174.22656 V 52.585938 h 19.72071 V 42.677734 H 174.22656 V 37.773438 C 174.22656,21.414203 160.85923,8.0449219 144.5,8.0449219 Z m 0,9.9101561 c 11.00397,0 19.81836,8.814395 19.81836,19.81836 V 185.85156 l 2.47656,1.42969 c 17.49894,10.10302 26.00706,30.64068 20.77735,50.1582 -5.22971,19.51754 -22.86624,33.04883 -43.07227,33.04883 -20.20603,0 -37.84256,-13.53129 -43.07227,-33.04883 -5.229699,-19.51752 3.27841,-40.05518 20.77735,-50.1582 l 2.47656,-1.42969 V 37.773438 c 0,-11.003965 8.81439,-19.81836 19.81836,-19.81836 z" />
</svg>
