<?xml version="1.0" encoding="UTF-8" standalone="no"?>
<svg
   xmlns:dc="http://purl.org/dc/elements/1.1/"
   xmlns:cc="http://creativecommons.org/ns#"
   xmlns:rdf="http://www.w3.org/1999/02/22-rdf-syntax-ns#"
   xmlns:svg="http://www.w3.org/2000/svg"
   xmlns="http://www.w3.org/2000/svg"
   xmlns:sodipodi="http://sodipodi.sourceforge.net/DTD/sodipodi-0.dtd"
   xmlns:inkscape="http://www.inkscape.org/namespaces/inkscape"
   width="288px"
   height="288px"
   viewBox="0 0 288 288"
   version="1.1"
   id="svg1883"
   sodipodi:docname="31.svg"
   inkscape:version="1.0.2-2 (e86c870879, 2021-01-15)">
  <metadata
     id="metadata1889">
    <rdf:RDF>
      <cc:Work
         rdf:about="">
        <dc:format>image/svg+xml</dc:format>
        <dc:type
           rdf:resource="http://purl.org/dc/dcmitype/StillImage" />
      </cc:Work>
    </rdf:RDF>
  </metadata>
  <defs
     id="defs1887" />
  <sodipodi:namedview
     pagecolor="#ffffff"
     bordercolor="#666666"
     borderopacity="1"
     objecttolerance="10"
     gridtolerance="10"
     guidetolerance="10"
     inkscape:pageopacity="0"
     inkscape:pageshadow="2"
     inkscape:window-width="1920"
     inkscape:window-height="1017"
     id="namedview1885"
     showgrid="false"
     inkscape:zoom="2.8733637"
     inkscape:cx="144"
     inkscape:cy="144"
     inkscape:window-x="-8"
     inkscape:window-y="-8"
     inkscape:window-maximized="1"
     inkscape:current-layer="svg1883" />
  <!-- Generator: Sketch 57.1 (83088) - https://sketch.com -->
  <title
     id="title1867">ICONS / Forecast / Color / 31 - Cold LK</title>
  <desc
     id="desc1869">Created with Sketch.</desc>
  <path
     id="Oval"
     style="color:#000000;font-style:normal;font-variant:normal;font-weight:normal;font-stretch:normal;font-size:medium;line-height:normal;font-family:sans-serif;font-variant-ligatures:normal;font-variant-position:normal;font-variant-caps:normal;font-variant-numeric:normal;font-variant-alternates:normal;font-variant-east-asian:normal;font-feature-settings:normal;font-variation-settings:normal;text-indent:0;text-align:start;text-decoration:none;text-decoration-line:none;text-decoration-style:solid;text-decoration-color:#000000;letter-spacing:normal;word-spacing:normal;text-transform:none;writing-mode:lr-tb;direction:ltr;text-orientation:mixed;dominant-baseline:auto;baseline-shift:baseline;text-anchor:start;white-space:normal;shape-padding:0;shape-margin:0;inline-size:0;clip-rule:nonzero;display:inline;overflow:visible;visibility:visible;opacity:1;isolation:auto;mix-blend-mode:normal;color-interpolation:sRGB;color-interpolation-filters:linearRGB;solid-color:#000000;solid-opacity:1;vector-effect:none;fill:#288adb;fill-opacity:1;fill-rule:evenodd;stroke:none;stroke-linecap:butt;stroke-linejoin:miter;stroke-miterlimit:4;stroke-dasharray:none;stroke-dashoffset:0;stroke-opacity:1;color-rendering:auto;image-rendering:auto;shape-rendering:auto;text-rendering:auto;enable-background:accumulate;stop-color:#000000;stop-opacity:1"
     d="M 139.54492 166.49219 L 139.54492 201.67383 C 128.24656 203.98679 119.67773 214.04115 119.67773 225.99609 C 119.67773 239.64637 130.84972 250.81836 144.5 250.81836 C 158.15028 250.81836 169.32227 239.64637 169.32227 225.99609 C 169.32227 214.04115 160.75344 203.98679 149.45508 201.67383 L 149.45508 166.49219 L 139.54492 166.49219 z M 144.5 211.08203 C 152.79501 211.08203 159.41406 217.70109 159.41406 225.99609 C 159.41406 234.2911 152.79501 240.9082 144.5 240.9082 C 136.20499 240.9082 129.58594 234.2911 129.58594 225.99609 C 129.58594 217.70109 136.20499 211.08203 144.5 211.08203 z " />
  <path
     id="Path"
     style="color:#000000;font-style:normal;font-variant:normal;font-weight:normal;font-stretch:normal;font-size:medium;line-height:normal;font-family:sans-serif;font-variant-ligatures:normal;font-variant-position:normal;font-variant-caps:normal;font-variant-numeric:normal;font-variant-alternates:normal;font-variant-east-asian:normal;font-feature-settings:normal;font-variation-settings:normal;text-indent:0;text-align:start;text-decoration:none;text-decoration-line:none;text-decoration-style:solid;text-decoration-color:#000000;letter-spacing:normal;word-spacing:normal;text-transform:none;writing-mode:lr-tb;direction:ltr;text-orientation:mixed;dominant-baseline:auto;baseline-shift:baseline;text-anchor:start;white-space:normal;shape-padding:0;shape-margin:0;inline-size:0;clip-rule:nonzero;display:inline;overflow:visible;visibility:visible;isolation:auto;mix-blend-mode:normal;color-interpolation:sRGB;color-interpolation-filters:linearRGB;solid-color:#000000;solid-opacity:1;vector-effect:none;fill:#686763;fill-opacity:1;fill-rule:evenodd;stroke:none;stroke-linecap:butt;stroke-linejoin:miter;stroke-miterlimit:4;stroke-dasharray:none;stroke-dashoffset:0;stroke-opacity:1;color-rendering:auto;image-rendering:auto;shape-rendering:auto;text-rendering:auto;enable-background:accumulate;stop-color:#000000;stop-opacity:1;opacity:1"
     d="M 144.5 8.0449219 C 128.14077 8.0449219 114.77344 21.414203 114.77344 37.773438 L 114.77344 180.41992 C 95.190796 193.22839 85.74331 217.18574 91.857422 240.00391 C 98.23552 263.80729 119.85693 280.39844 144.5 280.39844 C 169.14307 280.39844 190.76448 263.80729 197.14258 240.00391 C 203.2567 217.18574 193.8092 193.22839 174.22656 180.41992 L 174.22656 121.95117 L 193.94727 121.95117 L 193.94727 112.04102 L 174.22656 112.04102 L 174.22656 87.269531 L 193.94727 87.269531 L 193.94727 77.359375 L 174.22656 77.359375 L 174.22656 52.585938 L 193.94727 52.585938 L 193.94727 42.677734 L 174.22656 42.677734 L 174.22656 37.773438 C 174.22656 21.414203 160.85923 8.0449219 144.5 8.0449219 z M 144.5 17.955078 C 155.50397 17.955078 164.31836 26.769473 164.31836 37.773438 L 164.31836 185.85156 L 166.79492 187.28125 C 184.29386 197.38427 192.80198 217.92193 187.57227 237.43945 C 182.34256 256.95699 164.70603 270.48828 144.5 270.48828 C 124.29397 270.48828 106.65744 256.95699 101.42773 237.43945 C 96.198031 217.92193 104.70614 197.38427 122.20508 187.28125 L 124.68164 185.85156 L 124.68164 37.773438 C 124.68164 26.769473 133.49603 17.955078 144.5 17.955078 z " />
</svg>
