<?xml version="1.0" encoding="UTF-8" standalone="no"?>
<svg
   xmlns:dc="http://purl.org/dc/elements/1.1/"
   xmlns:cc="http://creativecommons.org/ns#"
   xmlns:rdf="http://www.w3.org/1999/02/22-rdf-syntax-ns#"
   xmlns:svg="http://www.w3.org/2000/svg"
   xmlns="http://www.w3.org/2000/svg"
   xmlns:sodipodi="http://sodipodi.sourceforge.net/DTD/sodipodi-0.dtd"
   xmlns:inkscape="http://www.inkscape.org/namespaces/inkscape"
   width="288px"
   height="288px"
   viewBox="0 0 288 288"
   version="1.1"
   id="svg1960"
   sodipodi:docname="32.svg"
   inkscape:version="1.0.2-2 (e86c870879, 2021-01-15)">
  <metadata
     id="metadata1966">
    <rdf:RDF>
      <cc:Work
         rdf:about="">
        <dc:format>image/svg+xml</dc:format>
        <dc:type
           rdf:resource="http://purl.org/dc/dcmitype/StillImage" />
      </cc:Work>
    </rdf:RDF>
  </metadata>
  <defs
     id="defs1964" />
  <sodipodi:namedview
     pagecolor="#ffffff"
     bordercolor="#666666"
     borderopacity="1"
     objecttolerance="10"
     gridtolerance="10"
     guidetolerance="10"
     inkscape:pageopacity="0"
     inkscape:pageshadow="2"
     inkscape:window-width="1920"
     inkscape:window-height="1017"
     id="namedview1962"
     showgrid="false"
     inkscape:zoom="2.8733637"
     inkscape:cx="144"
     inkscape:cy="144"
     inkscape:window-x="-8"
     inkscape:window-y="-8"
     inkscape:window-maximized="1"
     inkscape:current-layer="svg1960" />
  <!-- Generator: Sketch 57.1 (83088) - https://sketch.com -->
  <title
     id="title1949">ICONS / Forecast / Color / 32 - Windy LK</title>
  <desc
     id="desc1951">Created with Sketch.</desc>
  <path
     id="Path"
     style="color:#000000;font-style:normal;font-variant:normal;font-weight:normal;font-stretch:normal;font-size:medium;line-height:normal;font-family:sans-serif;font-variant-ligatures:normal;font-variant-position:normal;font-variant-caps:normal;font-variant-numeric:normal;font-variant-alternates:normal;font-variant-east-asian:normal;font-feature-settings:normal;font-variation-settings:normal;text-indent:0;text-align:start;text-decoration:none;text-decoration-line:none;text-decoration-style:solid;text-decoration-color:#000000;letter-spacing:normal;word-spacing:normal;text-transform:none;writing-mode:lr-tb;direction:ltr;text-orientation:mixed;dominant-baseline:auto;baseline-shift:baseline;text-anchor:start;white-space:normal;shape-padding:0;shape-margin:0;inline-size:0;clip-rule:nonzero;display:inline;overflow:visible;visibility:visible;isolation:auto;mix-blend-mode:normal;color-interpolation:sRGB;color-interpolation-filters:linearRGB;solid-color:#000000;solid-opacity:1;vector-effect:none;fill:#bababa;fill-opacity:1;fill-rule:evenodd;stroke:none;stroke-linecap:butt;stroke-linejoin:miter;stroke-miterlimit:4;stroke-dasharray:none;stroke-dashoffset:0;stroke-opacity:1;color-rendering:auto;image-rendering:auto;shape-rendering:auto;text-rendering:auto;enable-background:accumulate;stop-color:#000000;stop-opacity:1;opacity:1"
     d="M 136.56641 49.640625 C 131.35837 49.655125 126.11032 50.666487 121.11328 52.734375 C 105.8842 59.036506 95.931663 73.92665 95.931641 90.408203 L 105.52539 90.408203 C 105.52541 77.780314 113.11299 66.428194 124.78125 61.599609 C 136.4495 56.771025 149.84037 59.441737 158.76367 68.376953 C 167.68697 77.312172 170.34024 90.705374 165.49609 102.36719 C 160.65194 114.02899 149.28999 121.60275 136.66211 121.58594 L 136.6582 121.58594 L 0 121.58594 L 0 131.17969 L 136.64844 131.17969 C 153.12997 131.20163 168.03302 121.26752 174.35547 106.04688 C 180.6779 90.826213 177.19917 73.259648 165.55273 61.597656 C 158.27371 54.308911 148.68203 50.207859 138.79492 49.695312 C 138.05339 49.656872 137.31041 49.638554 136.56641 49.640625 z M 247.02539 85.611328 C 224.5649 85.611328 206.25391 103.92232 206.25391 126.38281 L 215.84766 126.38281 C 215.84766 109.10688 229.74946 95.205078 247.02539 95.205078 C 264.30132 95.205078 278.20313 109.10688 278.20312 126.38281 C 278.20312 143.65874 264.30132 157.56055 247.02539 157.56055 L 71.949219 157.56055 L 71.949219 167.1543 L 247.02539 167.1543 C 269.48588 167.1543 287.79688 148.8433 287.79688 126.38281 C 287.79688 103.92232 269.48588 85.611328 247.02539 85.611328 z M 0 193.53516 L 0 203.12891 L 179.91992 203.12891 C 188.18517 203.12891 196.10675 206.41145 201.94727 212.25977 C 207.78778 218.10807 211.06179 226.03358 211.05078 234.29883 L 220.64453 234.3125 C 220.65892 223.50447 216.37368 213.12996 208.73633 205.48242 C 201.09898 197.83488 190.72796 193.53516 179.91992 193.53516 L 0 193.53516 z " />
</svg>
