<?xml version="1.0" encoding="UTF-8" standalone="no"?>
<svg
   xmlns:dc="http://purl.org/dc/elements/1.1/"
   xmlns:cc="http://creativecommons.org/ns#"
   xmlns:rdf="http://www.w3.org/1999/02/22-rdf-syntax-ns#"
   xmlns:svg="http://www.w3.org/2000/svg"
   xmlns="http://www.w3.org/2000/svg"
   xmlns:sodipodi="http://sodipodi.sourceforge.net/DTD/sodipodi-0.dtd"
   xmlns:inkscape="http://www.inkscape.org/namespaces/inkscape"
   width="288px"
   height="288px"
   viewBox="0 0 288 288"
   version="1.1"
   id="svg2010"
   sodipodi:docname="33.svg"
   inkscape:version="1.0.2-2 (e86c870879, 2021-01-15)">
  <metadata
     id="metadata2016">
    <rdf:RDF>
      <cc:Work
         rdf:about="">
        <dc:format>image/svg+xml</dc:format>
        <dc:type
           rdf:resource="http://purl.org/dc/dcmitype/StillImage" />
      </cc:Work>
    </rdf:RDF>
  </metadata>
  <defs
     id="defs2014" />
  <sodipodi:namedview
     pagecolor="#ffffff"
     bordercolor="#666666"
     borderopacity="1"
     objecttolerance="10"
     gridtolerance="10"
     guidetolerance="10"
     inkscape:pageopacity="0"
     inkscape:pageshadow="2"
     inkscape:window-width="1920"
     inkscape:window-height="1017"
     id="namedview2012"
     showgrid="false"
     inkscape:zoom="2.8733637"
     inkscape:cx="144"
     inkscape:cy="144"
     inkscape:window-x="-8"
     inkscape:window-y="-8"
     inkscape:window-maximized="1"
     inkscape:current-layer="svg2010" />
  <!-- Generator: Sketch 57.1 (83088) - https://sketch.com -->
  <title
     id="title2003">ICONS / Forecast / Color / 33 - Clear Moon LK</title>
  <desc
     id="desc2005">Created with Sketch.</desc>
  <path
     style="color:#000000;font-style:normal;font-variant:normal;font-weight:normal;font-stretch:normal;font-size:medium;line-height:normal;font-family:sans-serif;font-variant-ligatures:normal;font-variant-position:normal;font-variant-caps:normal;font-variant-numeric:normal;font-variant-alternates:normal;font-variant-east-asian:normal;font-feature-settings:normal;font-variation-settings:normal;text-indent:0;text-align:start;text-decoration:none;text-decoration-line:none;text-decoration-style:solid;text-decoration-color:#000000;letter-spacing:normal;word-spacing:normal;text-transform:none;writing-mode:lr-tb;direction:ltr;text-orientation:mixed;dominant-baseline:auto;baseline-shift:baseline;text-anchor:start;white-space:normal;shape-padding:0;shape-margin:0;inline-size:0;clip-rule:nonzero;display:inline;overflow:visible;visibility:visible;isolation:auto;mix-blend-mode:normal;color-interpolation:sRGB;color-interpolation-filters:linearRGB;solid-color:#000000;solid-opacity:1;vector-effect:none;fill:#686763;fill-opacity:1;fill-rule:evenodd;stroke:none;stroke-linecap:round;stroke-linejoin:bevel;stroke-miterlimit:4;stroke-dasharray:none;stroke-dashoffset:0;stroke-opacity:1;color-rendering:auto;image-rendering:auto;shape-rendering:auto;text-rendering:auto;enable-background:accumulate;stop-color:#000000;stop-opacity:1;opacity:1"
     d="M 134.42969 30.486328 C 82.450997 38.744627 42.857591 81.592593 38.722656 134.06055 C 34.587721 186.52849 66.980048 235.05107 117.02344 251.34961 C 167.06684 267.64814 221.82191 247.50959 249.37891 202.66992 L 244.39258 195.74805 C 237.03163 197.46378 229.50143 198.35317 221.94336 198.40039 C 194.91077 198.49442 168.95875 187.82402 149.81055 168.74219 C 130.66234 149.66035 119.90023 123.7437 119.90039 96.710938 L 119.90039 96.707031 C 119.88471 75.546515 126.53382 54.919905 138.9043 37.751953 L 134.42969 30.486328 z M 125.32227 41.914062 C 115.77577 58.541326 110.64263 77.407177 110.65625 96.710938 C 110.65625 96.711591 110.65625 96.712237 110.65625 96.712891 C 110.65625 96.713543 110.65625 96.714191 110.65625 96.714844 C 110.65711 126.19996 122.39979 154.47609 143.28516 175.28906 C 164.17145 196.10295 192.49021 207.7471 221.97656 207.64453 L 221.98828 207.64453 C 226.45455 207.61714 230.90444 207.26897 235.32812 206.70508 C 208.57681 241.61833 162.45047 256.42109 119.88672 242.55859 C 73.858812 227.56785 44.134352 183.04502 47.9375 134.78711 C 51.45464 90.158313 82.816086 53.231708 125.32227 41.914062 z "
     id="Path" />
</svg>
