<?xml version="1.0" encoding="UTF-8" standalone="no"?>
<svg
   xmlns:dc="http://purl.org/dc/elements/1.1/"
   xmlns:cc="http://creativecommons.org/ns#"
   xmlns:rdf="http://www.w3.org/1999/02/22-rdf-syntax-ns#"
   xmlns:svg="http://www.w3.org/2000/svg"
   xmlns="http://www.w3.org/2000/svg"
   xmlns:sodipodi="http://sodipodi.sourceforge.net/DTD/sodipodi-0.dtd"
   xmlns:inkscape="http://www.inkscape.org/namespaces/inkscape"
   width="288px"
   height="288px"
   viewBox="0 0 288 288"
   version="1.1"
   id="svg2055"
   sodipodi:docname="34.svg"
   inkscape:version="1.0.2-2 (e86c870879, 2021-01-15)">
  <metadata
     id="metadata2061">
    <rdf:RDF>
      <cc:Work
         rdf:about="">
        <dc:format>image/svg+xml</dc:format>
        <dc:type
           rdf:resource="http://purl.org/dc/dcmitype/StillImage" />
      </cc:Work>
    </rdf:RDF>
  </metadata>
  <defs
     id="defs2059" />
  <sodipodi:namedview
     pagecolor="#ffffff"
     bordercolor="#666666"
     borderopacity="1"
     objecttolerance="10"
     gridtolerance="10"
     guidetolerance="10"
     inkscape:pageopacity="0"
     inkscape:pageshadow="2"
     inkscape:window-width="1920"
     inkscape:window-height="1017"
     id="namedview2057"
     showgrid="false"
     inkscape:zoom="2.8733637"
     inkscape:cx="144"
     inkscape:cy="144"
     inkscape:window-x="-8"
     inkscape:window-y="-8"
     inkscape:window-maximized="1"
     inkscape:current-layer="svg2055" />
  <!-- Generator: Sketch 57.1 (83088) - https://sketch.com -->
  <title
     id="title2044">ICONS / Forecast / Color / 34 - Mostly Clear Night LK</title>
  <desc
     id="desc2046">Created with Sketch.</desc>
  <path
     id="path2049"
     style="color:#000000;font-style:normal;font-variant:normal;font-weight:normal;font-stretch:normal;font-size:medium;line-height:normal;font-family:sans-serif;font-variant-ligatures:normal;font-variant-position:normal;font-variant-caps:normal;font-variant-numeric:normal;font-variant-alternates:normal;font-variant-east-asian:normal;font-feature-settings:normal;font-variation-settings:normal;text-indent:0;text-align:start;text-decoration:none;text-decoration-line:none;text-decoration-style:solid;text-decoration-color:#000000;letter-spacing:normal;word-spacing:normal;text-transform:none;writing-mode:lr-tb;direction:ltr;text-orientation:mixed;dominant-baseline:auto;baseline-shift:baseline;text-anchor:start;white-space:normal;shape-padding:0;shape-margin:0;inline-size:0;clip-rule:nonzero;display:inline;overflow:visible;visibility:visible;opacity:1;isolation:auto;mix-blend-mode:normal;color-interpolation:sRGB;color-interpolation-filters:linearRGB;solid-color:#000000;solid-opacity:1;vector-effect:none;fill:#686763;fill-opacity:1;fill-rule:evenodd;stroke:none;stroke-linecap:butt;stroke-linejoin:bevel;stroke-miterlimit:4;stroke-dasharray:none;stroke-dashoffset:0;stroke-opacity:1;color-rendering:auto;image-rendering:auto;shape-rendering:auto;text-rendering:auto;enable-background:accumulate;stop-color:#000000;stop-opacity:1"
     d="m 158.77148,165.57812 -6.91601,6.3086 c 24.8036,27.19798 61.09903,40.40725 97.18359,36.07031 -20.33303,26.2958 -51.83297,41.90214 -85.49218,41.54688 -37.35057,-0.39423 -71.764276,-20.2593 -90.785161,-52.40625 l -8.056641,4.76562 c 20.680716,34.95221 58.134232,56.57137 98.744142,57 40.60991,0.42862 78.50998,-20.39443 99.92383,-54.90234 l -5.00586,-7.03321 c -36.42739,8.20505 -74.4347,-3.75973 -99.59571,-31.34961 z M 147.03125,29.460938 C 90.718937,37.974638 48.974656,86.352707 48.796875,143.30469 v 0.0352 c 0.02055,5.09509 0.361232,10.18221 1.021484,15.23438 l 9.28125,-1.21289 C 58.490872,152.70335 58.175772,148.01199 58.15625,143.31445 58.317312,94.566848 91.499686,52.799764 137.8418,40.910156 119.95858,71.995004 117.94536,110.05961 133.08789,143.07227 l 8.50781,-3.90235 c -15.333,-33.4279 -11.54034,-72.492806 9.93555,-102.347654 z" />
  <path
     style="color:#000000;font-style:normal;font-variant:normal;font-weight:normal;font-stretch:normal;font-size:medium;line-height:normal;font-family:sans-serif;font-variant-ligatures:normal;font-variant-position:normal;font-variant-caps:normal;font-variant-numeric:normal;font-variant-alternates:normal;font-variant-east-asian:normal;font-feature-settings:normal;font-variation-settings:normal;text-indent:0;text-align:start;text-decoration:none;text-decoration-line:none;text-decoration-style:solid;text-decoration-color:#000000;letter-spacing:normal;word-spacing:normal;text-transform:none;writing-mode:lr-tb;direction:ltr;text-orientation:mixed;dominant-baseline:auto;baseline-shift:baseline;text-anchor:start;white-space:normal;shape-padding:0;shape-margin:0;inline-size:0;clip-rule:nonzero;display:inline;overflow:visible;visibility:visible;opacity:1;isolation:auto;mix-blend-mode:normal;color-interpolation:sRGB;color-interpolation-filters:linearRGB;solid-color:#000000;solid-opacity:1;vector-effect:none;fill:#bababa;fill-opacity:1;fill-rule:evenodd;stroke:none;stroke-linecap:butt;stroke-linejoin:miter;stroke-miterlimit:4;stroke-dasharray:none;stroke-dashoffset:0;stroke-opacity:1;color-rendering:auto;image-rendering:auto;shape-rendering:auto;text-rendering:auto;enable-background:accumulate;stop-color:#000000;stop-opacity:1"
     d="m 90.935547,120.05469 c -4.252211,0.0747 -8.536217,0.79655 -12.708985,2.20508 -15.228993,5.14059 -25.985133,18.49333 -28.15039,34.16406 h -1.910156 l -0.115235,0.006 c -12.686522,0.62635 -22.736328,11.18279 -22.736328,23.88476 0,12.70198 10.049806,23.26037 22.736328,23.88672 l 0.115235,0.006 h 76.726564 l -0.25781,-0.008 c 12.99305,0.721 25.34104,-5.8115 32.05468,-16.95899 6.71364,-11.14748 6.71364,-25.11813 0,-36.26562 -5.85567,-9.72288 -15.99931,-15.9301 -27.11718,-16.88086 v -0.13281 h -4.67969 -2.07227 c -8.25944,-9.10817 -19.90752,-14.11664 -31.884763,-13.90625 z m 0.177734,9.35156 c 9.921429,-0.18065 19.597739,4.16359 26.068359,12.17383 l 1.4043,1.74023 h 1.62695 v 0.3125 l 4.93945,-0.27343 c 9.54828,-0.52986 18.58584,4.25134 23.51954,12.44335 4.93368,8.19202 4.93368,18.41541 0,26.60743 -4.9337,8.19201 -13.97125,12.9732 -23.51954,12.44336 l -0.1289,-0.006 H 48.484375 c -7.783662,-0.39886 -13.808594,-6.73582 -13.808594,-14.53321 0,-7.79334 6.019081,-14.12643 13.796875,-14.53125 h 10.347656 l 0.128907,-4.54687 c 0.389708,-13.72411 9.261017,-25.71832 22.269531,-30.10938 3.252128,-1.09776 6.587388,-1.66048 9.894531,-1.7207 z"
     id="path2051" />
</svg>
