<?xml version="1.0" encoding="UTF-8" standalone="no"?>
<svg
   xmlns:dc="http://purl.org/dc/elements/1.1/"
   xmlns:cc="http://creativecommons.org/ns#"
   xmlns:rdf="http://www.w3.org/1999/02/22-rdf-syntax-ns#"
   xmlns:svg="http://www.w3.org/2000/svg"
   xmlns="http://www.w3.org/2000/svg"
   xmlns:sodipodi="http://sodipodi.sourceforge.net/DTD/sodipodi-0.dtd"
   xmlns:inkscape="http://www.inkscape.org/namespaces/inkscape"
   width="288px"
   height="288px"
   viewBox="0 0 288 288"
   version="1.1"
   id="svg2113"
   sodipodi:docname="35.svg"
   inkscape:version="1.0.2-2 (e86c870879, 2021-01-15)">
  <metadata
     id="metadata2119">
    <rdf:RDF>
      <cc:Work
         rdf:about="">
        <dc:format>image/svg+xml</dc:format>
        <dc:type
           rdf:resource="http://purl.org/dc/dcmitype/StillImage" />
      </cc:Work>
    </rdf:RDF>
  </metadata>
  <defs
     id="defs2117" />
  <sodipodi:namedview
     pagecolor="#ffffff"
     bordercolor="#666666"
     borderopacity="1"
     objecttolerance="10"
     gridtolerance="10"
     guidetolerance="10"
     inkscape:pageopacity="0"
     inkscape:pageshadow="2"
     inkscape:window-width="1920"
     inkscape:window-height="1017"
     id="namedview2115"
     showgrid="false"
     inkscape:zoom="2.8733637"
     inkscape:cx="144"
     inkscape:cy="144"
     inkscape:window-x="-8"
     inkscape:window-y="-8"
     inkscape:window-maximized="1"
     inkscape:current-layer="svg2113" />
  <!-- Generator: Sketch 57.1 (83088) - https://sketch.com -->
  <title
     id="title2102">ICONS / Forecast / Color / 35 - Partly Cloudy Night LK</title>
  <desc
     id="desc2104">Created with Sketch.</desc>
  <path
     id="Path"
     style="color:#000000;font-style:normal;font-variant:normal;font-weight:normal;font-stretch:normal;font-size:medium;line-height:normal;font-family:sans-serif;font-variant-ligatures:normal;font-variant-position:normal;font-variant-caps:normal;font-variant-numeric:normal;font-variant-alternates:normal;font-variant-east-asian:normal;font-feature-settings:normal;font-variation-settings:normal;text-indent:0;text-align:start;text-decoration:none;text-decoration-line:none;text-decoration-style:solid;text-decoration-color:#000000;letter-spacing:normal;word-spacing:normal;text-transform:none;writing-mode:lr-tb;direction:ltr;text-orientation:mixed;dominant-baseline:auto;baseline-shift:baseline;text-anchor:start;white-space:normal;shape-padding:0;shape-margin:0;inline-size:0;clip-rule:nonzero;display:inline;overflow:visible;visibility:visible;isolation:auto;mix-blend-mode:normal;color-interpolation:sRGB;color-interpolation-filters:linearRGB;solid-color:#000000;solid-opacity:1;vector-effect:none;fill:#686763;fill-opacity:1;fill-rule:evenodd;stroke:none;stroke-linecap:butt;stroke-linejoin:bevel;stroke-miterlimit:4;stroke-dasharray:none;stroke-dashoffset:0;stroke-opacity:1;color-rendering:auto;image-rendering:auto;shape-rendering:auto;text-rendering:auto;enable-background:accumulate;stop-color:#000000;stop-opacity:1;opacity:1"
     d="M 152.07227 36.552734 C 123.00612 40.882553 96.947366 56.848507 79.888672 80.777344 C 62.829978 104.70618 56.232763 134.55007 61.617188 163.43945 L 70.261719 161.82812 C 65.314032 135.28199 71.371831 107.87075 87.046875 85.882812 C 100.75007 66.660856 120.77024 53.037963 143.43359 47.255859 C 130.33018 70.01719 126.15084 96.997657 132.03711 122.85547 L 140.60938 120.9043 C 134.49296 94.035483 140.20336 65.841298 156.29102 43.46875 L 152.07227 36.552734 z M 197.36914 188.47266 L 193.97461 196.58203 C 211.08389 203.74499 229.69947 206.24795 247.99609 204.05664 C 231.43384 225.45571 206.8548 239.42152 179.66797 242.4082 C 149.07121 245.76949 118.63306 234.90334 97.082031 212.92578 L 90.804688 219.08203 C 114.23951 242.98067 147.35569 254.80158 180.62695 251.14648 C 213.89821 247.49138 243.66002 228.76197 261.34766 200.3457 L 256.6582 193.73242 C 236.82702 198.15709 216.11167 196.31939 197.36914 188.47266 z " />
  <path
     style="color:#000000;font-style:normal;font-variant:normal;font-weight:normal;font-stretch:normal;font-size:medium;line-height:normal;font-family:sans-serif;font-variant-ligatures:normal;font-variant-position:normal;font-variant-caps:normal;font-variant-numeric:normal;font-variant-alternates:normal;font-variant-east-asian:normal;font-feature-settings:normal;font-variation-settings:normal;text-indent:0;text-align:start;text-decoration:none;text-decoration-line:none;text-decoration-style:solid;text-decoration-color:#000000;letter-spacing:normal;word-spacing:normal;text-transform:none;writing-mode:lr-tb;direction:ltr;text-orientation:mixed;dominant-baseline:auto;baseline-shift:baseline;text-anchor:start;white-space:normal;shape-padding:0;shape-margin:0;inline-size:0;clip-rule:nonzero;display:inline;overflow:visible;visibility:visible;opacity:1;isolation:auto;mix-blend-mode:normal;color-interpolation:sRGB;color-interpolation-filters:linearRGB;solid-color:#000000;solid-opacity:1;vector-effect:none;fill:#bababa;fill-opacity:1;fill-rule:evenodd;stroke:none;stroke-linecap:butt;stroke-linejoin:miter;stroke-miterlimit:4;stroke-dasharray:none;stroke-dashoffset:0;stroke-opacity:1;color-rendering:auto;image-rendering:auto;shape-rendering:auto;text-rendering:auto;enable-background:accumulate;stop-color:#000000;stop-opacity:1"
     d="m 114.24805,112.73438 c -5.44298,0.0899 -10.92932,1.00957 -16.273441,2.81054 -20.000228,6.74008 -33.93646,24.5552 -36.158203,45.28516 h -3.921875 l 0.183594,0.004 c -10.927186,-0.4548 -21.244627,5.1268 -26.84375,14.52149 -5.599123,9.39468 -5.599123,21.12485 0,30.51953 5.599122,9.39468 15.916561,14.97629 26.84375,14.52148 l -0.183594,0.004 H 159.00781 l -0.14648,-0.004 c 16.27696,0.53832 31.57323,-7.84795 39.87109,-21.86132 8.29787,-14.01339 8.29787,-31.45732 0,-45.47071 -8.25766,-13.94549 -23.44822,-22.30324 -39.63672,-21.85351 v -0.0117 h -0.0879 -3.4375 C 145.0034,119.12088 129.84179,112.4767 114.24805,112.73438 Z m 0.1582,8.78515 c 13.66044,-0.23199 26.97832,5.77811 35.85352,16.83008 l 1.32031,1.64258 h 7.42773 0.0879 v -3.44727 l 0.0566,3.44531 c 13.08376,-0.43271 25.34368,6.29044 32.01368,17.55469 6.66999,11.26426 6.66999,25.24551 0,36.50977 -6.67,11.26424 -18.92992,17.98739 -32.01368,17.55469 l -0.0723,-0.002 H 57.802734 l -0.0918,0.004 c -7.717493,0.32121 -14.969361,-3.60314 -18.923829,-10.23828 -3.954466,-6.63514 -3.954466,-14.88049 0,-21.51563 3.954468,-6.63515 11.206333,-10.55949 18.923829,-10.23828 l 0.0918,0.004 h 12.242188 l 0.113281,-4.2793 c 0.500756,-18.89264 12.715369,-35.43125 30.624997,-41.4668 4.47741,-1.50888 9.06957,-2.28009 13.62305,-2.35742 z"
     id="path2109" />
</svg>
