<?xml version="1.0" encoding="UTF-8" standalone="no"?>
<svg
   xmlns:dc="http://purl.org/dc/elements/1.1/"
   xmlns:cc="http://creativecommons.org/ns#"
   xmlns:rdf="http://www.w3.org/1999/02/22-rdf-syntax-ns#"
   xmlns:svg="http://www.w3.org/2000/svg"
   xmlns="http://www.w3.org/2000/svg"
   xmlns:sodipodi="http://sodipodi.sourceforge.net/DTD/sodipodi-0.dtd"
   xmlns:inkscape="http://www.inkscape.org/namespaces/inkscape"
   width="286px"
   height="288px"
   viewBox="0 0 286 288"
   version="1.1"
   id="svg2172"
   sodipodi:docname="36.svg"
   inkscape:version="1.0.2-2 (e86c870879, 2021-01-15)">
  <metadata
     id="metadata2178">
    <rdf:RDF>
      <cc:Work
         rdf:about="">
        <dc:format>image/svg+xml</dc:format>
        <dc:type
           rdf:resource="http://purl.org/dc/dcmitype/StillImage" />
      </cc:Work>
    </rdf:RDF>
  </metadata>
  <defs
     id="defs2176" />
  <sodipodi:namedview
     pagecolor="#ffffff"
     bordercolor="#666666"
     borderopacity="1"
     objecttolerance="10"
     gridtolerance="10"
     guidetolerance="10"
     inkscape:pageopacity="0"
     inkscape:pageshadow="2"
     inkscape:window-width="1920"
     inkscape:window-height="1017"
     id="namedview2174"
     showgrid="false"
     inkscape:zoom="2.8733637"
     inkscape:cx="143"
     inkscape:cy="144"
     inkscape:window-x="-8"
     inkscape:window-y="-8"
     inkscape:window-maximized="1"
     inkscape:current-layer="svg2172" />
  <!-- Generator: Sketch 57.1 (83088) - https://sketch.com -->
  <title
     id="title2161">ICONS / Forecast / Color / 36 - Intermittent Clouds Night LK</title>
  <desc
     id="desc2163">Created with Sketch.</desc>
  <path
     id="Path"
     style="color:#000000;font-style:normal;font-variant:normal;font-weight:normal;font-stretch:normal;font-size:medium;line-height:normal;font-family:sans-serif;font-variant-ligatures:normal;font-variant-position:normal;font-variant-caps:normal;font-variant-numeric:normal;font-variant-alternates:normal;font-variant-east-asian:normal;font-feature-settings:normal;font-variation-settings:normal;text-indent:0;text-align:start;text-decoration:none;text-decoration-line:none;text-decoration-style:solid;text-decoration-color:#000000;letter-spacing:normal;word-spacing:normal;text-transform:none;writing-mode:lr-tb;direction:ltr;text-orientation:mixed;dominant-baseline:auto;baseline-shift:baseline;text-anchor:start;white-space:normal;shape-padding:0;shape-margin:0;inline-size:0;clip-rule:nonzero;display:inline;overflow:visible;visibility:visible;isolation:auto;mix-blend-mode:normal;color-interpolation:sRGB;color-interpolation-filters:linearRGB;solid-color:#000000;solid-opacity:1;vector-effect:none;fill:#bababa;fill-opacity:1;fill-rule:evenodd;stroke:none;stroke-linecap:butt;stroke-linejoin:miter;stroke-miterlimit:4;stroke-dasharray:none;stroke-dashoffset:0;stroke-opacity:1;color-rendering:auto;image-rendering:auto;shape-rendering:auto;text-rendering:auto;enable-background:accumulate;stop-color:#000000;stop-opacity:1;opacity:1"
     d="M 220.94727 41.533203 C 217.66308 41.579109 214.35099 42.126621 211.12695 43.210938 C 199.92951 46.976894 191.82717 56.530283 189.69922 67.884766 L 189.56445 67.884766 C 179.22453 67.884766 170.72852 76.382737 170.72852 86.722656 C 170.72852 97.062576 179.22453 105.56055 189.56445 105.56055 L 251.62109 105.56055 C 266.41972 105.56055 278.53125 93.449022 278.53125 78.650391 C 278.53125 63.851759 266.41972 51.740234 251.62109 51.740234 L 244.85352 51.740234 C 238.57912 45.086335 229.89276 41.408163 220.94727 41.533203 z M 221.11523 52.287109 C 227.68322 52.188129 234.06888 55.107538 238.30469 60.460938 L 239.92188 62.503906 L 251.62109 62.503906 C 260.60226 62.503906 267.76758 69.669218 267.76758 78.650391 C 267.76758 87.631563 260.60226 94.796875 251.62109 94.796875 L 189.56445 94.796875 C 185.04199 94.796875 181.49219 91.245115 181.49219 86.722656 C 181.49219 82.200199 185.04199 78.650391 189.56445 78.650391 L 199.78906 78.650391 L 199.89844 73.378906 C 200.08499 64.278832 205.93146 56.315565 214.55859 53.414062 C 216.71538 52.688688 218.92591 52.320103 221.11523 52.287109 z M 78.240234 170.30078 C 64.466084 170.05884 51.070877 175.81836 41.572266 186.29297 L 33.751953 186.29297 L 33.751953 187.13867 C 14.89014 190.6377 0.65625 207.0622 0.65625 226.71289 C 0.65625 248.11265 17.469055 265.88463 38.835938 267.07031 L 38.984375 267.07812 L 127.42578 267.07812 L 127.55859 267.07227 C 142.14849 266.35194 153.70508 254.21118 153.70508 239.60352 C 153.70508 224.99585 142.14848 212.85313 127.55859 212.13281 L 127.42578 212.12695 L 125.22852 212.12695 C 122.73815 194.10547 110.37098 178.74769 92.857422 172.83594 C 88.058611 171.21609 83.130407 170.38668 78.240234 170.30078 z M 78.037109 181.05664 C 81.840425 181.12589 85.674018 181.77269 89.414062 183.03516 C 104.37424 188.08501 114.57721 201.87897 115.02539 217.66211 L 115.17383 222.89062 L 127.07031 222.89062 C 136.01698 223.35416 142.94141 230.63958 142.94141 239.60352 C 142.94141 248.56745 136.01698 255.85091 127.07031 256.31445 L 39.382812 256.31445 C 23.638941 255.41368 11.419922 242.4888 11.419922 226.71289 C 11.419922 210.91949 23.664446 197.97857 39.433594 197.10352 L 40.275391 197.05664 L 46.441406 197.05664 L 48.056641 195.05664 C 55.498045 185.84462 66.627163 180.84888 78.037109 181.05664 z " />
  <path
     style="color:#000000;font-style:normal;font-variant:normal;font-weight:normal;font-stretch:normal;font-size:medium;line-height:normal;font-family:sans-serif;font-variant-ligatures:normal;font-variant-position:normal;font-variant-caps:normal;font-variant-numeric:normal;font-variant-alternates:normal;font-variant-east-asian:normal;font-feature-settings:normal;font-variation-settings:normal;text-indent:0;text-align:start;text-decoration:none;text-decoration-line:none;text-decoration-style:solid;text-decoration-color:#000000;letter-spacing:normal;word-spacing:normal;text-transform:none;writing-mode:lr-tb;direction:ltr;text-orientation:mixed;dominant-baseline:auto;baseline-shift:baseline;text-anchor:start;white-space:normal;shape-padding:0;shape-margin:0;inline-size:0;clip-rule:nonzero;display:inline;overflow:visible;visibility:visible;opacity:1;isolation:auto;mix-blend-mode:normal;color-interpolation:sRGB;color-interpolation-filters:linearRGB;solid-color:#000000;solid-opacity:1;vector-effect:none;fill:#686763;fill-opacity:1;fill-rule:evenodd;stroke:none;stroke-linecap:butt;stroke-linejoin:bevel;stroke-miterlimit:4;stroke-dasharray:none;stroke-dashoffset:0;stroke-opacity:1;color-rendering:auto;image-rendering:auto;shape-rendering:auto;text-rendering:auto;enable-background:accumulate;stop-color:#000000;stop-opacity:1"
     d="M 150.56055,12.292969 C 111.48253,18.097111 77.027371,41.050103 56.615234,74.875 36.203098,108.69989 31.956297,149.88118 45.035156,187.16016 L 55.193359,183.5957 C 43.175075,149.3397 47.07513,111.51755 65.832031,80.435547 82.455529,52.888793 109.22164,33.257446 140.08789,25.421875 c -24.02357,42.159159 -22.58237,94.735285 4.78516,135.677735 27.32181,40.87408 75.23843,62.30066 123.29883,56.32422 -33.07904,42.96167 -90.98719,59.53363 -142.3418,39.21484 l -3.96094,10.00977 c 60.06503,23.76512 128.6161,1.07086 162.63672,-53.83985 l -5.77734,-8.08007 c -47.9131,10.98751 -97.58885,-8.74385 -124.90625,-49.61133 -27.31741,-40.86747 -26.55433,-94.311387 1.91796,-134.382815 z"
     id="path2166" />
</svg>
