<?xml version="1.0" encoding="UTF-8" standalone="no"?>
<svg
   xmlns:dc="http://purl.org/dc/elements/1.1/"
   xmlns:cc="http://creativecommons.org/ns#"
   xmlns:rdf="http://www.w3.org/1999/02/22-rdf-syntax-ns#"
   xmlns:svg="http://www.w3.org/2000/svg"
   xmlns="http://www.w3.org/2000/svg"
   xmlns:sodipodi="http://sodipodi.sourceforge.net/DTD/sodipodi-0.dtd"
   xmlns:inkscape="http://www.inkscape.org/namespaces/inkscape"
   width="288px"
   height="288px"
   viewBox="0 0 288 288"
   version="1.1"
   id="svg83"
   sodipodi:docname="38.svg"
   inkscape:version="1.0.2-2 (e86c870879, 2021-01-15)">
  <metadata
     id="metadata89">
    <rdf:RDF>
      <cc:Work
         rdf:about="">
        <dc:format>image/svg+xml</dc:format>
        <dc:type
           rdf:resource="http://purl.org/dc/dcmitype/StillImage" />
      </cc:Work>
    </rdf:RDF>
  </metadata>
  <defs
     id="defs87" />
  <sodipodi:namedview
     pagecolor="#ffffff"
     bordercolor="#666666"
     borderopacity="1"
     objecttolerance="10"
     gridtolerance="10"
     guidetolerance="10"
     inkscape:pageopacity="0"
     inkscape:pageshadow="2"
     inkscape:window-width="1920"
     inkscape:window-height="1017"
     id="namedview85"
     showgrid="false"
     inkscape:zoom="2.8733637"
     inkscape:cx="144"
     inkscape:cy="144"
     inkscape:window-x="-8"
     inkscape:window-y="-8"
     inkscape:window-maximized="1"
     inkscape:current-layer="svg83" />
  <!-- Generator: Sketch 57.1 (83088) - https://sketch.com -->
  <title
     id="title74">ICONS / Forecast / Color / 38 - Mostly Cloudy Night LK</title>
  <desc
     id="desc76">Created with Sketch.</desc>
  <path
     style="color:#000000;font-style:normal;font-variant:normal;font-weight:normal;font-stretch:normal;font-size:medium;line-height:normal;font-family:sans-serif;font-variant-ligatures:normal;font-variant-position:normal;font-variant-caps:normal;font-variant-numeric:normal;font-variant-alternates:normal;font-variant-east-asian:normal;font-feature-settings:normal;font-variation-settings:normal;text-indent:0;text-align:start;text-decoration:none;text-decoration-line:none;text-decoration-style:solid;text-decoration-color:#000000;letter-spacing:normal;word-spacing:normal;text-transform:none;writing-mode:lr-tb;direction:ltr;text-orientation:mixed;dominant-baseline:auto;baseline-shift:baseline;text-anchor:start;white-space:normal;shape-padding:0;shape-margin:0;inline-size:0;clip-rule:nonzero;display:inline;overflow:visible;visibility:visible;opacity:1;isolation:auto;mix-blend-mode:normal;color-interpolation:sRGB;color-interpolation-filters:linearRGB;solid-color:#000000;solid-opacity:1;vector-effect:none;fill:#686763;fill-opacity:1;fill-rule:evenodd;stroke:none;stroke-linecap:butt;stroke-linejoin:bevel;stroke-miterlimit:4;stroke-dasharray:none;stroke-dashoffset:0;stroke-opacity:1;color-rendering:auto;image-rendering:auto;shape-rendering:auto;text-rendering:auto;enable-background:accumulate;stop-color:#000000;stop-opacity:1"
     d="m 206.66797,45.238281 c -30.69903,4.63037 -54.58348,29.213351 -58.32617,60.033199 l 9.56054,1.16016 c 2.78463,-22.930551 18.47488,-41.734214 39.72461,-49.037109 -9.91727,21.043145 -8.42021,46.077859 4.79883,65.886719 13.19989,19.78017 35.69832,30.76419 58.90039,29.71875 -7.19766,7.92438 -16.43109,13.83489 -26.79687,17.00391 l 2.81445,9.20703 c 16.10616,-4.92397 29.87976,-15.53275 38.75,-29.84961 l -5.15234,-7.23242 c -23.24657,5.23759 -47.27865,-4.3703 -60.50586,-24.19141 -13.22721,-19.821097 -12.87698,-45.701667 0.88086,-65.158203 z"
     id="Path" />
  <path
     style="color:#000000;font-style:normal;font-variant:normal;font-weight:normal;font-stretch:normal;font-size:medium;line-height:normal;font-family:sans-serif;font-variant-ligatures:normal;font-variant-position:normal;font-variant-caps:normal;font-variant-numeric:normal;font-variant-alternates:normal;font-variant-east-asian:normal;font-feature-settings:normal;font-variation-settings:normal;text-indent:0;text-align:start;text-decoration:none;text-decoration-line:none;text-decoration-style:solid;text-decoration-color:#000000;letter-spacing:normal;word-spacing:normal;text-transform:none;writing-mode:lr-tb;direction:ltr;text-orientation:mixed;dominant-baseline:auto;baseline-shift:baseline;text-anchor:start;white-space:normal;shape-padding:0;shape-margin:0;inline-size:0;clip-rule:nonzero;display:inline;overflow:visible;visibility:visible;opacity:1;isolation:auto;mix-blend-mode:normal;color-interpolation:sRGB;color-interpolation-filters:linearRGB;solid-color:#000000;solid-opacity:1;vector-effect:none;fill:#bababa;fill-opacity:1;fill-rule:evenodd;stroke:none;stroke-linecap:butt;stroke-linejoin:miter;stroke-miterlimit:4;stroke-dasharray:none;stroke-dashoffset:0;stroke-opacity:1;color-rendering:auto;image-rendering:auto;shape-rendering:auto;text-rendering:auto;enable-background:accumulate;stop-color:#000000;stop-opacity:1"
     d="M 134.0293,98.177734 C 113.59302,97.852817 93.684086,106.33938 79.537109,121.88477 h -7.292968 -0.01172 c -33.176923,-0.0657 -60.232416,26.87632 -60.304688,60.05468 -0.07199,33.18231 26.872363,60.24427 60.054688,60.31641 h 0.0059 0.0039 139.726559 c 22.54573,0 40.92578,-18.38004 40.92578,-40.92578 0,-22.54574 -18.38005,-40.92578 -40.92578,-40.92578 h -7.53125 c -3.81386,-27.20132 -22.64066,-50.13282 -49.00977,-58.70118 -6.95284,-2.259244 -14.07699,-3.412956 -21.14843,-3.525386 z m -0.16407,9.621096 c 6.12843,0.0994 12.30396,1.10247 18.33594,3.0625 24.12793,7.84011 41.11821,29.43158 43.06445,54.72656 l 0.3418,4.44531 h 16.11133 c 17.34149,0 31.29687,13.95538 31.29687,31.29688 0,17.3415 -13.95538,31.29492 -31.29687,31.29492 H 72.003906 71.992188 C 44.019573,232.55782 21.49595,209.9351 21.556641,181.96094 21.617585,153.98283 44.244559,131.4548 72.222656,131.51562 h 0.0059 H 83.75 l 1.443359,-1.69531 c 12.33242,-14.48963 30.286591,-22.31957 48.671871,-22.02148 z"
     id="path79" />
</svg>
