<?xml version="1.0" encoding="UTF-8" standalone="no"?>
<svg
   xmlns:dc="http://purl.org/dc/elements/1.1/"
   xmlns:cc="http://creativecommons.org/ns#"
   xmlns:rdf="http://www.w3.org/1999/02/22-rdf-syntax-ns#"
   xmlns:svg="http://www.w3.org/2000/svg"
   xmlns="http://www.w3.org/2000/svg"
   xmlns:sodipodi="http://sodipodi.sourceforge.net/DTD/sodipodi-0.dtd"
   xmlns:inkscape="http://www.inkscape.org/namespaces/inkscape"
   width="288px"
   height="288px"
   viewBox="0 0 288 288"
   version="1.1"
   id="svg146"
   sodipodi:docname="39.svg"
   inkscape:version="1.0.2-2 (e86c870879, 2021-01-15)">
  <metadata
     id="metadata152">
    <rdf:RDF>
      <cc:Work
         rdf:about="">
        <dc:format>image/svg+xml</dc:format>
        <dc:type
           rdf:resource="http://purl.org/dc/dcmitype/StillImage" />
      </cc:Work>
    </rdf:RDF>
  </metadata>
  <defs
     id="defs150" />
  <sodipodi:namedview
     pagecolor="#ffffff"
     bordercolor="#666666"
     borderopacity="1"
     objecttolerance="10"
     gridtolerance="10"
     guidetolerance="10"
     inkscape:pageopacity="0"
     inkscape:pageshadow="2"
     inkscape:window-width="1920"
     inkscape:window-height="1017"
     id="namedview148"
     showgrid="false"
     inkscape:zoom="2.8733637"
     inkscape:cx="144"
     inkscape:cy="144"
     inkscape:window-x="-8"
     inkscape:window-y="-8"
     inkscape:window-maximized="1"
     inkscape:current-layer="svg146" />
  <!-- Generator: Sketch 57.1 (83088) - https://sketch.com -->
  <title
     id="title129">ICONS / Forecast / Color / 39 Partly Cloudy with Showers Night LK</title>
  <desc
     id="desc131">Created with Sketch.</desc>
  <path
     id="Path"
     style="color:#000000;font-style:normal;font-variant:normal;font-weight:normal;font-stretch:normal;font-size:medium;line-height:normal;font-family:sans-serif;font-variant-ligatures:normal;font-variant-position:normal;font-variant-caps:normal;font-variant-numeric:normal;font-variant-alternates:normal;font-variant-east-asian:normal;font-feature-settings:normal;font-variation-settings:normal;text-indent:0;text-align:start;text-decoration:none;text-decoration-line:none;text-decoration-style:solid;text-decoration-color:#000000;letter-spacing:normal;word-spacing:normal;text-transform:none;writing-mode:lr-tb;direction:ltr;text-orientation:mixed;dominant-baseline:auto;baseline-shift:baseline;text-anchor:start;white-space:normal;shape-padding:0;shape-margin:0;inline-size:0;clip-rule:nonzero;display:inline;overflow:visible;visibility:visible;isolation:auto;mix-blend-mode:normal;color-interpolation:sRGB;color-interpolation-filters:linearRGB;solid-color:#000000;solid-opacity:1;vector-effect:none;fill:#288adb;fill-opacity:1;fill-rule:evenodd;stroke:none;stroke-linecap:butt;stroke-linejoin:miter;stroke-miterlimit:4;stroke-dasharray:none;stroke-dashoffset:0;stroke-opacity:1;color-rendering:auto;image-rendering:auto;shape-rendering:auto;text-rendering:auto;enable-background:accumulate;stop-color:#000000;stop-opacity:1;opacity:1"
     d="M 85.060547 220.0957 L 52.609375 275.65039 L 61.0625 280.58789 L 93.513672 225.0332 L 85.060547 220.0957 z M 48.398438 220.09766 L 26.861328 257.00391 L 35.316406 261.9375 L 56.853516 225.03125 L 48.398438 220.09766 z M 119.7168 222.83594 L 99.746094 257 L 108.19727 261.94141 L 128.16797 227.77539 L 119.7168 222.83594 z " />
  <path
     id="path138"
     style="color:#000000;font-style:normal;font-variant:normal;font-weight:normal;font-stretch:normal;font-size:medium;line-height:normal;font-family:sans-serif;font-variant-ligatures:normal;font-variant-position:normal;font-variant-caps:normal;font-variant-numeric:normal;font-variant-alternates:normal;font-variant-east-asian:normal;font-feature-settings:normal;font-variation-settings:normal;text-indent:0;text-align:start;text-decoration:none;text-decoration-line:none;text-decoration-style:solid;text-decoration-color:#000000;letter-spacing:normal;word-spacing:normal;text-transform:none;writing-mode:lr-tb;direction:ltr;text-orientation:mixed;dominant-baseline:auto;baseline-shift:baseline;text-anchor:start;white-space:normal;shape-padding:0;shape-margin:0;inline-size:0;clip-rule:nonzero;display:inline;overflow:visible;visibility:visible;opacity:1;isolation:auto;mix-blend-mode:normal;color-interpolation:sRGB;color-interpolation-filters:linearRGB;solid-color:#000000;solid-opacity:1;vector-effect:none;fill:#686763;fill-opacity:1;fill-rule:evenodd;stroke:none;stroke-linecap:butt;stroke-linejoin:bevel;stroke-miterlimit:4;stroke-dasharray:none;stroke-dashoffset:0;stroke-opacity:1;color-rendering:auto;image-rendering:auto;shape-rendering:auto;text-rendering:auto;enable-background:accumulate;stop-color:#000000;stop-opacity:1"
     d="M 162.71875,5.390625 C 108.90965,13.447632 67.098513,56.554058 60.6875,110.58398 l 9.720703,1.15235 C 75.862196,65.771847 109.12446,28.533226 153.24609,17.330078 135.13606,48.765226 132.40151,87.044254 146.64453,120.89062 l 9.02344,-3.79687 C 141.21032,82.73734 145.65859,43.353398 167.41602,13.087891 Z m 26.37891,154.906255 -5.98438,7.74609 c 24.68404,19.06427 55.7481,27.47801 86.41016,23.84375 -18.77518,24.33033 -46.82496,40.04775 -77.75391,42.99805 -34.72963,3.31284 -69.00217,-9.78479 -92.669921,-35.41602 l -7.191406,6.64063 c 25.736197,27.87126 63.026187,42.12385 100.791017,38.52148 37.76482,-3.60236 71.68866,-24.64658 91.6914,-56.88086 l -5.2207,-7.35938 c -31.52146,7.00422 -64.51657,-0.35627 -90.07226,-20.09374 z" />
  <path
     style="color:#000000;font-style:normal;font-variant:normal;font-weight:normal;font-stretch:normal;font-size:medium;line-height:normal;font-family:sans-serif;font-variant-ligatures:normal;font-variant-position:normal;font-variant-caps:normal;font-variant-numeric:normal;font-variant-alternates:normal;font-variant-east-asian:normal;font-feature-settings:normal;font-variation-settings:normal;text-indent:0;text-align:start;text-decoration:none;text-decoration-line:none;text-decoration-style:solid;text-decoration-color:#000000;letter-spacing:normal;word-spacing:normal;text-transform:none;writing-mode:lr-tb;direction:ltr;text-orientation:mixed;dominant-baseline:auto;baseline-shift:baseline;text-anchor:start;white-space:normal;shape-padding:0;shape-margin:0;inline-size:0;clip-rule:nonzero;display:inline;overflow:visible;visibility:visible;opacity:1;isolation:auto;mix-blend-mode:normal;color-interpolation:sRGB;color-interpolation-filters:linearRGB;solid-color:#000000;solid-opacity:1;vector-effect:none;fill:#bababa;fill-opacity:1;fill-rule:evenodd;stroke:none;stroke-linecap:butt;stroke-linejoin:miter;stroke-miterlimit:4;stroke-dasharray:none;stroke-dashoffset:0;stroke-opacity:1;color-rendering:auto;image-rendering:auto;shape-rendering:auto;text-rendering:auto;enable-background:accumulate;stop-color:#000000;stop-opacity:1"
     d="M 96.730469,95.230469 C 91.204653,95.310869 85.637037,96.2084 80.203125,97.972656 59.939683,104.55169 45.40216,122.02947 42.15625,142.82812 h -4.654297 l 0.205078,0.006 c -11.900889,-0.50189 -23.140163,5.5718 -29.2402341,15.80274 -6.1000708,10.23094 -6.1000685,23.00733 0,33.23828 6.1000711,10.23094 17.3393421,16.30659 29.2402341,15.80469 l -0.205078,0.004 H 144.14258 l 0.084,-0.002 c 25.34146,-0.86301 45.53125,-21.75323 45.53125,-47.10937 0,-25.35615 -20.18979,-46.24637 -45.53125,-47.10938 l -0.084,-0.002 h -5.29297 C 127.86835,101.53847 112.51324,95.00083 96.730469,95.230469 Z m 0.154297,9.781251 c 13.691444,-0.20507 27.048624,5.66495 36.189454,16.5 l 1.4668,1.73828 h 9.36718 c 20.16408,0.69515 36.06055,17.14423 36.06055,37.32227 0,20.17332 -15.88949,36.61993 -36.04687,37.32226 H 37.398438 l -0.103516,0.004 C 28.96886,198.24958 21.142711,194.02102 16.875,186.86328 c -4.267712,-7.15775 -4.26771,-16.05515 0,-23.21289 4.267711,-7.15774 12.093857,-11.38824 20.419922,-11.03711 l 0.103516,0.006 h 13.511718 l 0.332032,-4.53906 c 1.376876,-18.85084 14.005156,-34.9601 31.982421,-40.79688 4.494317,-1.45919 9.096341,-2.20312 13.660157,-2.27148 z"
     id="path142" />
</svg>
