<?xml version="1.0" encoding="UTF-8" standalone="no"?>
<svg
   xmlns:dc="http://purl.org/dc/elements/1.1/"
   xmlns:cc="http://creativecommons.org/ns#"
   xmlns:rdf="http://www.w3.org/1999/02/22-rdf-syntax-ns#"
   xmlns:svg="http://www.w3.org/2000/svg"
   xmlns="http://www.w3.org/2000/svg"
   xmlns:sodipodi="http://sodipodi.sourceforge.net/DTD/sodipodi-0.dtd"
   xmlns:inkscape="http://www.inkscape.org/namespaces/inkscape"
   width="288px"
   height="288px"
   viewBox="0 0 288 288"
   version="1.1"
   id="svg64"
   sodipodi:docname="4.svg"
   inkscape:version="1.0.2-2 (e86c870879, 2021-01-15)">
  <metadata
     id="metadata70">
    <rdf:RDF>
      <cc:Work
         rdf:about="">
        <dc:format>image/svg+xml</dc:format>
        <dc:type
           rdf:resource="http://purl.org/dc/dcmitype/StillImage" />
      </cc:Work>
    </rdf:RDF>
  </metadata>
  <defs
     id="defs68" />
  <sodipodi:namedview
     pagecolor="#ffffff"
     bordercolor="#666666"
     borderopacity="1"
     objecttolerance="10"
     gridtolerance="10"
     guidetolerance="10"
     inkscape:pageopacity="0"
     inkscape:pageshadow="2"
     inkscape:window-width="1920"
     inkscape:window-height="1017"
     id="namedview66"
     showgrid="false"
     inkscape:zoom="2.8692412"
     inkscape:cx="119.77757"
     inkscape:cy="144"
     inkscape:window-x="-8"
     inkscape:window-y="-8"
     inkscape:window-maximized="1"
     inkscape:current-layer="svg64" />
  <!-- Generator: Sketch 57.1 (83088) - https://sketch.com -->
  <title
     id="title41">ICONS / Forecast / Color / 04 - Intermitent Clouds LK</title>
  <desc
     id="desc43">Created with Sketch.</desc>
  <path
     id="path56"
     style="color:#000000;font-style:normal;font-variant:normal;font-weight:normal;font-stretch:normal;font-size:medium;line-height:normal;font-family:sans-serif;font-variant-ligatures:normal;font-variant-position:normal;font-variant-caps:normal;font-variant-numeric:normal;font-variant-alternates:normal;font-variant-east-asian:normal;font-feature-settings:normal;font-variation-settings:normal;text-indent:0;text-align:start;text-decoration:none;text-decoration-line:none;text-decoration-style:solid;text-decoration-color:#000000;letter-spacing:normal;word-spacing:normal;text-transform:none;writing-mode:lr-tb;direction:ltr;text-orientation:mixed;dominant-baseline:auto;baseline-shift:baseline;text-anchor:start;white-space:normal;shape-padding:0;shape-margin:0;inline-size:0;clip-rule:nonzero;display:inline;overflow:visible;visibility:visible;opacity:1;isolation:auto;mix-blend-mode:normal;color-interpolation:sRGB;color-interpolation-filters:linearRGB;solid-color:#000000;solid-opacity:1;vector-effect:none;fill:#ff8700;fill-opacity:1;fill-rule:evenodd;stroke:none;stroke-linecap:butt;stroke-linejoin:miter;stroke-miterlimit:4;stroke-dasharray:none;stroke-dashoffset:0;stroke-opacity:1;color-rendering:auto;image-rendering:auto;shape-rendering:auto;text-rendering:auto;enable-background:accumulate;stop-color:#000000;stop-opacity:1"
     d="m 141.26367,63.068359 c -4.46766,0.09274 -8.97222,0.557518 -13.47461,1.414063 -36.019076,6.852363 -62.980332,37.097468 -65.666013,73.664058 -2.685683,36.5666 19.567808,70.42738 54.199223,82.46875 34.6314,12.04139 73.0904,-0.70785 93.66992,-31.05273 l -7.88867,-5.35156 c -18.18278,26.81084 -52.05226,38.0394 -82.6504,27.40039 C 88.854976,200.97232 69.256005,171.15366 71.628906,138.8457 74.001807,106.53774 97.746107,79.901975 129.57031,73.847656 161.39453,67.793338 193.26155,83.84956 207.33203,113.0293 l 8.58594,-4.14063 C 201.98345,79.990896 172.53727,62.419162 141.26367,63.068359 Z m -95.998045,-23.542968 -6.740234,6.740234 33.697265,33.699219 6.742188,-6.742188 z m 168.490235,168.490229 -6.74024,6.74024 33.69727,33.69726 6.74023,-6.74023 z m 26.95703,-168.490229 -33.69727,33.697265 6.74024,6.742188 33.69726,-33.699219 z M 0,139.22266 v 9.5332 h 47.664062 v -9.5332 z m 138.22266,100.09375 v 47.66211 h 9.5332 V 239.31641 Z M 138.22266,1 v 47.664062 h 9.5332 V 1 Z" />
  <path
     id="path60"
     style="color:#000000;font-style:normal;font-variant:normal;font-weight:normal;font-stretch:normal;font-size:medium;line-height:normal;font-family:sans-serif;font-variant-ligatures:normal;font-variant-position:normal;font-variant-caps:normal;font-variant-numeric:normal;font-variant-alternates:normal;font-variant-east-asian:normal;font-feature-settings:normal;font-variation-settings:normal;text-indent:0;text-align:start;text-decoration:none;text-decoration-line:none;text-decoration-style:solid;text-decoration-color:#000000;letter-spacing:normal;word-spacing:normal;text-transform:none;writing-mode:lr-tb;direction:ltr;text-orientation:mixed;dominant-baseline:auto;baseline-shift:baseline;text-anchor:start;white-space:normal;shape-padding:0;shape-margin:0;inline-size:0;clip-rule:nonzero;display:inline;overflow:visible;visibility:visible;opacity:1;isolation:auto;mix-blend-mode:normal;color-interpolation:sRGB;color-interpolation-filters:linearRGB;solid-color:#000000;solid-opacity:1;vector-effect:none;fill:#bababa;fill-opacity:1;fill-rule:evenodd;stroke:none;stroke-linecap:butt;stroke-linejoin:miter;stroke-miterlimit:4;stroke-dasharray:none;stroke-dashoffset:0;stroke-opacity:1;color-rendering:auto;image-rendering:auto;shape-rendering:auto;text-rendering:auto;enable-background:accumulate;stop-color:#000000;stop-opacity:1"
     d="M 50.351562,205.95117 C 42.3506,205.99973 34.908445,209.58314 29.625,215.48438 H 23.832031 C 10.726672,215.48438 0,226.21104 0,239.31641 c 0,13.10536 10.726669,23.83007 23.832031,23.83007 h 54.8125 c 9.156817,0 16.681641,-7.52482 16.681641,-16.68164 0,-9.15681 -7.524824,-16.68164 -16.681641,-16.68164 h -0.15039 C 76.200288,216.30798 64.48704,205.95117 50.380859,205.95117 h -0.01563 z m 0.04492,9.53516 c 10.578395,0.009 19.048829,8.48197 19.048828,19.0625 v 4.76758 h 9.199219 c 4.005002,0 7.148438,3.14343 7.148438,7.14843 0,4.00501 -3.143436,7.15039 -7.148438,7.15039 h -54.8125 c -7.953546,0 -14.2988279,-6.34528 -14.2988279,-14.29882 0,-7.95356 6.3452789,-14.29883 14.2988279,-14.29883 h 10.22461 l 1.427734,-1.9375 c 3.498349,-4.74433 9.018072,-7.5542 14.912109,-7.59375 z M 215.59961,105.99609 c -4.33064,0.0761 -8.69363,0.80964 -12.94336,2.24414 -15.5101,5.23548 -26.463,18.83683 -28.66797,34.79688 h -1.94726 l -0.11719,0.006 c -12.92051,0.6379 -23.1543,11.38993 -23.1543,24.32617 0,12.93625 10.23379,23.68826 23.1543,24.32617 l 0.11719,0.006 h 78.14257 l -0.26367,-0.008 c 13.2327,0.7343 25.80903,-5.92036 32.64649,-17.27344 6.83747,-11.35309 6.83747,-25.58051 0,-36.93359 -5.96333,-9.90167 -16.29305,-16.22257 -27.61524,-17.19141 v -0.13672 h -4.76758 -2.11132 c -8.41179,-9.27631 -20.27441,-14.37637 -32.47266,-14.16211 z m 0.18164,9.52344 c 10.10442,-0.18398 19.95887,4.24242 26.54883,12.40039 l 1.42969,1.77149 h 1.6582 v 0.31836 l 5.0293,-0.2793 c 9.72438,-0.53962 18.92844,4.33072 23.95312,12.67383 5.02469,8.3431 5.02469,18.75454 0,27.09765 -5.02468,8.3431 -14.22874,13.21345 -23.95312,12.67383 l -0.13086,-0.008 h -77.96094 c -7.92162,-0.41192 -14.05274,-6.8615 -14.05274,-14.79883 0,-7.93733 6.13112,-14.38887 14.05274,-14.80078 h 10.53711 l 0.13281,-4.63086 c 0.3969,-13.97723 9.43125,-26.19201 22.67969,-30.66406 3.31211,-1.11801 6.70803,-1.69258 10.07617,-1.75391 z" />
</svg>
