<?xml version="1.0" encoding="UTF-8" standalone="no"?>
<svg
   xmlns:dc="http://purl.org/dc/elements/1.1/"
   xmlns:cc="http://creativecommons.org/ns#"
   xmlns:rdf="http://www.w3.org/1999/02/22-rdf-syntax-ns#"
   xmlns:svg="http://www.w3.org/2000/svg"
   xmlns="http://www.w3.org/2000/svg"
   xmlns:sodipodi="http://sodipodi.sourceforge.net/DTD/sodipodi-0.dtd"
   xmlns:inkscape="http://www.inkscape.org/namespaces/inkscape"
   width="288px"
   height="288px"
   viewBox="0 0 288 288"
   version="1.1"
   id="svg231"
   sodipodi:docname="40.svg"
   inkscape:version="1.0.2-2 (e86c870879, 2021-01-15)">
  <metadata
     id="metadata237">
    <rdf:RDF>
      <cc:Work
         rdf:about="">
        <dc:format>image/svg+xml</dc:format>
        <dc:type
           rdf:resource="http://purl.org/dc/dcmitype/StillImage" />
      </cc:Work>
    </rdf:RDF>
  </metadata>
  <defs
     id="defs235" />
  <sodipodi:namedview
     pagecolor="#ffffff"
     bordercolor="#666666"
     borderopacity="1"
     objecttolerance="10"
     gridtolerance="10"
     guidetolerance="10"
     inkscape:pageopacity="0"
     inkscape:pageshadow="2"
     inkscape:window-width="1920"
     inkscape:window-height="1017"
     id="namedview233"
     showgrid="false"
     inkscape:zoom="2.8733637"
     inkscape:cx="144"
     inkscape:cy="144"
     inkscape:window-x="-8"
     inkscape:window-y="-8"
     inkscape:window-maximized="1"
     inkscape:current-layer="svg231" />
  <!-- Generator: Sketch 57.1 (83088) - https://sketch.com -->
  <title
     id="title216">ICONS / Forecast / Color / 40 - Mostly Cloudy w Showers Night LK</title>
  <desc
     id="desc218">Created with Sketch.</desc>
  <path
     style="color:#000000;font-style:normal;font-variant:normal;font-weight:normal;font-stretch:normal;font-size:medium;line-height:normal;font-family:sans-serif;font-variant-ligatures:normal;font-variant-position:normal;font-variant-caps:normal;font-variant-numeric:normal;font-variant-alternates:normal;font-variant-east-asian:normal;font-feature-settings:normal;font-variation-settings:normal;text-indent:0;text-align:start;text-decoration:none;text-decoration-line:none;text-decoration-style:solid;text-decoration-color:#000000;letter-spacing:normal;word-spacing:normal;text-transform:none;writing-mode:lr-tb;direction:ltr;text-orientation:mixed;dominant-baseline:auto;baseline-shift:baseline;text-anchor:start;white-space:normal;shape-padding:0;shape-margin:0;inline-size:0;clip-rule:nonzero;display:inline;overflow:visible;visibility:visible;isolation:auto;mix-blend-mode:normal;color-interpolation:sRGB;color-interpolation-filters:linearRGB;solid-color:#000000;solid-opacity:1;vector-effect:none;fill:#686763;fill-opacity:1;fill-rule:evenodd;stroke:none;stroke-linecap:butt;stroke-linejoin:bevel;stroke-miterlimit:4;stroke-dasharray:none;stroke-dashoffset:0;stroke-opacity:1;color-rendering:auto;image-rendering:auto;shape-rendering:auto;text-rendering:auto;enable-background:accumulate;stop-color:#000000;stop-opacity:1;opacity:1"
     d="M 206.41602 1.2207031 C 175.5989 5.8688824 151.62427 30.545982 147.86719 61.484375 L 157.46289 62.648438 C 160.25812 39.630567 176.00767 20.755416 197.33789 13.423828 C 187.38393 34.547335 188.8889 59.680273 202.1582 79.564453 C 215.40925 99.421281 237.99506 110.44475 261.28711 109.39453 C 254.06144 117.35061 244.79147 123.28331 234.38477 126.46484 L 237.21094 135.70898 C 253.37905 130.76608 267.20502 120.11608 276.10938 105.74414 L 270.9375 98.482422 C 247.60153 103.74017 223.4773 94.0946 210.19922 74.197266 C 196.92114 54.299932 197.27323 28.322385 211.08398 8.7910156 L 206.41602 1.2207031 z "
     id="Path" />
  <path
     style="color:#000000;font-style:normal;font-variant:normal;font-weight:normal;font-stretch:normal;font-size:medium;line-height:normal;font-family:sans-serif;font-variant-ligatures:normal;font-variant-position:normal;font-variant-caps:normal;font-variant-numeric:normal;font-variant-alternates:normal;font-variant-east-asian:normal;font-feature-settings:normal;font-variation-settings:normal;text-indent:0;text-align:start;text-decoration:none;text-decoration-line:none;text-decoration-style:solid;text-decoration-color:#000000;letter-spacing:normal;word-spacing:normal;text-transform:none;writing-mode:lr-tb;direction:ltr;text-orientation:mixed;dominant-baseline:auto;baseline-shift:baseline;text-anchor:start;white-space:normal;shape-padding:0;shape-margin:0;inline-size:0;clip-rule:nonzero;display:inline;overflow:visible;visibility:visible;isolation:auto;mix-blend-mode:normal;color-interpolation:sRGB;color-interpolation-filters:linearRGB;solid-color:#000000;solid-opacity:1;vector-effect:none;fill:#bababa;fill-opacity:1;fill-rule:evenodd;stroke:none;stroke-linecap:butt;stroke-linejoin:miter;stroke-miterlimit:4;stroke-dasharray:none;stroke-dashoffset:0;stroke-opacity:1;color-rendering:auto;image-rendering:auto;shape-rendering:auto;text-rendering:auto;enable-background:accumulate;stop-color:#000000;stop-opacity:1;opacity:1"
     d="M 133.49805 54.361328 C 112.9829 54.035154 92.998296 62.556531 78.796875 78.162109 L 71.474609 78.162109 L 71.464844 78.162109 C 38.159397 78.095058 11.000286 105.14061 10.927734 138.44727 C 10.855467 171.75721 37.902943 198.92172 71.212891 198.99414 L 71.21875 198.99414 L 71.222656 198.99414 L 211.48633 198.99414 C 234.11878 198.99414 252.57031 180.54456 252.57031 157.91211 C 252.57031 135.27965 234.11878 116.82812 211.48633 116.82812 L 203.92773 116.82812 C 200.09906 89.522398 181.19888 66.503601 154.72852 57.902344 C 147.74893 55.634404 140.59669 54.474191 133.49805 54.361328 z M 133.33398 64.021484 C 139.48598 64.121229 145.68505 65.128139 151.74023 67.095703 C 175.96095 74.965961 193.01698 96.640936 194.9707 122.0332 L 195.31445 126.49414 L 211.48633 126.49414 C 228.89452 126.49414 242.9043 140.50391 242.9043 157.91211 C 242.9043 175.3203 228.89452 189.32812 211.48633 189.32812 L 71.234375 189.32812 L 71.222656 189.32812 C 43.142433 189.26071 20.532826 166.55052 20.59375 138.46875 C 20.654929 110.38303 43.369373 87.767069 71.455078 87.828125 L 71.458984 87.828125 L 83.027344 87.828125 L 84.474609 86.126953 C 96.854462 71.581583 114.87799 63.722249 133.33398 64.021484 z "
     id="path221" />
  <path
     id="path223"
     style="color:#000000;font-style:normal;font-variant:normal;font-weight:normal;font-stretch:normal;font-size:medium;line-height:normal;font-family:sans-serif;font-variant-ligatures:normal;font-variant-position:normal;font-variant-caps:normal;font-variant-numeric:normal;font-variant-alternates:normal;font-variant-east-asian:normal;font-feature-settings:normal;font-variation-settings:normal;text-indent:0;text-align:start;text-decoration:none;text-decoration-line:none;text-decoration-style:solid;text-decoration-color:#000000;letter-spacing:normal;word-spacing:normal;text-transform:none;writing-mode:lr-tb;direction:ltr;text-orientation:mixed;dominant-baseline:auto;baseline-shift:baseline;text-anchor:start;white-space:normal;shape-padding:0;shape-margin:0;inline-size:0;clip-rule:nonzero;display:inline;overflow:visible;visibility:visible;isolation:auto;mix-blend-mode:normal;color-interpolation:sRGB;color-interpolation-filters:linearRGB;solid-color:#000000;solid-opacity:1;vector-effect:none;fill:#288adb;fill-opacity:1;fill-rule:evenodd;stroke:none;stroke-linecap:butt;stroke-linejoin:miter;stroke-miterlimit:4;stroke-dasharray:none;stroke-dashoffset:0;stroke-opacity:1;color-rendering:auto;image-rendering:auto;shape-rendering:auto;text-rendering:auto;enable-background:accumulate;stop-color:#000000;stop-opacity:1;opacity:1"
     d="M 104.94141 211.20312 L 78.455078 256.58789 L 86.804688 261.46094 L 113.29102 216.07617 L 104.94141 211.20312 z M 140.08008 211.20312 L 100.20508 279.49805 L 108.55469 284.37109 L 148.42969 216.07617 L 140.08008 211.20312 z M 175.16992 211.20312 L 148.68359 256.58789 L 157.0332 261.46094 L 183.51953 216.07617 L 175.16992 211.20312 z " />
</svg>
