<?xml version="1.0" encoding="UTF-8" standalone="no"?>
<svg
   xmlns:dc="http://purl.org/dc/elements/1.1/"
   xmlns:cc="http://creativecommons.org/ns#"
   xmlns:rdf="http://www.w3.org/1999/02/22-rdf-syntax-ns#"
   xmlns:svg="http://www.w3.org/2000/svg"
   xmlns="http://www.w3.org/2000/svg"
   xmlns:sodipodi="http://sodipodi.sourceforge.net/DTD/sodipodi-0.dtd"
   xmlns:inkscape="http://www.inkscape.org/namespaces/inkscape"
   width="288px"
   height="288px"
   viewBox="0 0 288 288"
   version="1.1"
   id="svg305"
   sodipodi:docname="41.svg"
   inkscape:version="1.0.2-2 (e86c870879, 2021-01-15)">
  <metadata
     id="metadata311">
    <rdf:RDF>
      <cc:Work
         rdf:about="">
        <dc:format>image/svg+xml</dc:format>
        <dc:type
           rdf:resource="http://purl.org/dc/dcmitype/StillImage" />
      </cc:Work>
    </rdf:RDF>
  </metadata>
  <defs
     id="defs309" />
  <sodipodi:namedview
     pagecolor="#ffffff"
     bordercolor="#666666"
     borderopacity="1"
     objecttolerance="10"
     gridtolerance="10"
     guidetolerance="10"
     inkscape:pageopacity="0"
     inkscape:pageshadow="2"
     inkscape:window-width="1920"
     inkscape:window-height="1017"
     id="namedview307"
     showgrid="false"
     inkscape:zoom="2.8733637"
     inkscape:cx="144"
     inkscape:cy="144"
     inkscape:window-x="-8"
     inkscape:window-y="-8"
     inkscape:window-maximized="1"
     inkscape:current-layer="svg305" />
  <!-- Generator: Sketch 57.1 (83088) - https://sketch.com -->
  <title
     id="title292">ICONS / Forecast / Color / 41 - Partly Cloudy with Thundershowers Night LK</title>
  <desc
     id="desc294">Created with Sketch.</desc>
  <path
     style="color:#000000;font-style:normal;font-variant:normal;font-weight:normal;font-stretch:normal;font-size:medium;line-height:normal;font-family:sans-serif;font-variant-ligatures:normal;font-variant-position:normal;font-variant-caps:normal;font-variant-numeric:normal;font-variant-alternates:normal;font-variant-east-asian:normal;font-feature-settings:normal;font-variation-settings:normal;text-indent:0;text-align:start;text-decoration:none;text-decoration-line:none;text-decoration-style:solid;text-decoration-color:#000000;letter-spacing:normal;word-spacing:normal;text-transform:none;writing-mode:lr-tb;direction:ltr;text-orientation:mixed;dominant-baseline:auto;baseline-shift:baseline;text-anchor:start;white-space:normal;shape-padding:0;shape-margin:0;inline-size:0;clip-rule:nonzero;display:inline;overflow:visible;visibility:visible;isolation:auto;mix-blend-mode:normal;color-interpolation:sRGB;color-interpolation-filters:linearRGB;solid-color:#000000;solid-opacity:1;vector-effect:none;fill:#ff8700;fill-opacity:1;fill-rule:evenodd;stroke:none;stroke-linecap:butt;stroke-linejoin:miter;stroke-miterlimit:4;stroke-dasharray:none;stroke-dashoffset:0;stroke-opacity:1;color-rendering:auto;image-rendering:auto;shape-rendering:auto;text-rendering:auto;enable-background:accumulate;stop-color:#000000;stop-opacity:1;opacity:1"
     d="M 77.150391 161.54102 L 44.052734 218.25 L 76.570312 218.25 L 49.494141 264.65039 L 57.980469 269.60156 L 93.679688 208.42383 L 61.162109 208.42383 L 85.634766 166.49414 L 77.150391 161.54102 z "
     id="Path"
     transform="translate(7,10)" />
  <path
     id="path297"
     style="color:#000000;font-style:normal;font-variant:normal;font-weight:normal;font-stretch:normal;font-size:medium;line-height:normal;font-family:sans-serif;font-variant-ligatures:normal;font-variant-position:normal;font-variant-caps:normal;font-variant-numeric:normal;font-variant-alternates:normal;font-variant-east-asian:normal;font-feature-settings:normal;font-variation-settings:normal;text-indent:0;text-align:start;text-decoration:none;text-decoration-line:none;text-decoration-style:solid;text-decoration-color:#000000;letter-spacing:normal;word-spacing:normal;text-transform:none;writing-mode:lr-tb;direction:ltr;text-orientation:mixed;dominant-baseline:auto;baseline-shift:baseline;text-anchor:start;white-space:normal;shape-padding:0;shape-margin:0;inline-size:0;clip-rule:nonzero;display:inline;overflow:visible;visibility:visible;isolation:auto;mix-blend-mode:normal;color-interpolation:sRGB;color-interpolation-filters:linearRGB;solid-color:#000000;solid-opacity:1;vector-effect:none;fill:#686763;fill-opacity:1;fill-rule:evenodd;stroke:none;stroke-linecap:butt;stroke-linejoin:bevel;stroke-miterlimit:4;stroke-dasharray:none;stroke-dashoffset:0;stroke-opacity:1;color-rendering:auto;image-rendering:auto;shape-rendering:auto;text-rendering:auto;enable-background:accumulate;stop-color:#000000;stop-opacity:1;opacity:1"
     d="M 162.2832 5.3847656 C 108.28124 13.47065 66.320712 56.731492 59.886719 110.95508 L 69.642578 112.11133 C 75.116137 65.981968 108.49737 28.610368 152.77734 17.367188 C 134.60256 48.914947 131.85832 87.331252 146.15234 121.29883 L 155.20898 117.48828 C 140.69951 83.008735 145.16459 43.483361 167 13.109375 L 162.2832 5.3847656 z M 188.75781 160.8457 L 182.75195 168.62109 C 207.52485 187.75401 238.70022 196.19656 269.47266 192.54883 C 250.63019 216.96693 222.47967 232.74223 191.43945 235.70312 C 156.58534 239.02784 122.19008 225.88129 98.4375 200.1582 L 91.21875 206.82422 C 117.04719 234.79537 154.47091 249.0977 192.37109 245.48242 C 230.27127 241.86715 264.31619 220.7463 284.39062 188.39648 L 279.15234 181.01172 C 247.51791 188.04103 214.40509 180.65393 188.75781 160.8457 z " />
  <path
     style="color:#000000;font-style:normal;font-variant:normal;font-weight:normal;font-stretch:normal;font-size:medium;line-height:normal;font-family:sans-serif;font-variant-ligatures:normal;font-variant-position:normal;font-variant-caps:normal;font-variant-numeric:normal;font-variant-alternates:normal;font-variant-east-asian:normal;font-feature-settings:normal;font-variation-settings:normal;text-indent:0;text-align:start;text-decoration:none;text-decoration-line:none;text-decoration-style:solid;text-decoration-color:#000000;letter-spacing:normal;word-spacing:normal;text-transform:none;writing-mode:lr-tb;direction:ltr;text-orientation:mixed;dominant-baseline:auto;baseline-shift:baseline;text-anchor:start;white-space:normal;shape-padding:0;shape-margin:0;inline-size:0;clip-rule:nonzero;display:inline;overflow:visible;visibility:visible;isolation:auto;mix-blend-mode:normal;color-interpolation:sRGB;color-interpolation-filters:linearRGB;solid-color:#000000;solid-opacity:1;vector-effect:none;fill:#bababa;fill-opacity:1;fill-rule:evenodd;stroke:none;stroke-linecap:butt;stroke-linejoin:miter;stroke-miterlimit:4;stroke-dasharray:none;stroke-dashoffset:0;stroke-opacity:1;color-rendering:auto;image-rendering:auto;shape-rendering:auto;text-rendering:auto;enable-background:accumulate;stop-color:#000000;stop-opacity:1;opacity:1"
     d="M 96.058594 95.546875 C 90.512972 95.627563 84.926045 96.528248 79.472656 98.298828 C 59.136112 104.9016 44.546149 122.44256 41.289062 143.31641 L 36.617188 143.31641 L 36.824219 143.32031 C 24.880669 142.81661 13.60045 148.91402 7.4785156 159.18164 C 1.3565797 169.44925 1.356582 182.27144 7.4785156 192.53906 C 13.600451 202.80667 24.880672 208.90213 36.824219 208.39844 L 36.617188 208.4043 L 53.123047 208.4043 L 53.123047 198.57812 L 36.513672 198.57812 L 36.410156 198.58398 C 28.054251 198.93637 20.200976 194.6912 15.917969 187.50781 C 11.634961 180.32441 11.634963 171.39628 15.917969 164.21289 C 20.200976 157.02949 28.054254 152.78432 36.410156 153.13672 L 36.513672 153.14062 L 50.076172 153.14062 L 50.408203 148.58594 C 51.790014 129.66753 64.46416 113.50027 82.505859 107.64258 C 100.54756 101.78489 120.30175 107.42336 132.5332 121.92188 L 134.00586 123.66602 L 143.35742 123.66602 C 163.59379 124.36362 179.54688 140.87268 179.54688 161.12305 C 179.54688 181.36871 163.60077 197.87333 143.37109 198.57812 L 87.507812 198.57812 L 87.507812 208.4043 L 143.5918 208.4043 L 143.67578 208.40039 C 169.10806 207.53429 189.37109 186.57007 189.37109 161.12305 C 189.37109 135.67602 169.10806 114.7118 143.67578 113.8457 L 143.5918 113.8418 L 138.33008 113.8418 C 127.30946 101.87657 111.89795 95.316414 96.058594 95.546875 z "
     id="path301" />
</svg>
