<?xml version="1.0" encoding="UTF-8" standalone="no"?>
<svg
   xmlns:dc="http://purl.org/dc/elements/1.1/"
   xmlns:cc="http://creativecommons.org/ns#"
   xmlns:rdf="http://www.w3.org/1999/02/22-rdf-syntax-ns#"
   xmlns:svg="http://www.w3.org/2000/svg"
   xmlns="http://www.w3.org/2000/svg"
   xmlns:sodipodi="http://sodipodi.sourceforge.net/DTD/sodipodi-0.dtd"
   xmlns:inkscape="http://www.inkscape.org/namespaces/inkscape"
   width="288px"
   height="288px"
   viewBox="0 0 288 288"
   version="1.1"
   id="svg434"
   sodipodi:docname="43.svg"
   inkscape:version="1.0.2-2 (e86c870879, 2021-01-15)">
  <metadata
     id="metadata440">
    <rdf:RDF>
      <cc:Work
         rdf:about="">
        <dc:format>image/svg+xml</dc:format>
        <dc:type
           rdf:resource="http://purl.org/dc/dcmitype/StillImage" />
      </cc:Work>
    </rdf:RDF>
  </metadata>
  <defs
     id="defs438" />
  <sodipodi:namedview
     pagecolor="#ffffff"
     bordercolor="#666666"
     borderopacity="1"
     objecttolerance="10"
     gridtolerance="10"
     guidetolerance="10"
     inkscape:pageopacity="0"
     inkscape:pageshadow="2"
     inkscape:window-width="1920"
     inkscape:window-height="1017"
     id="namedview436"
     showgrid="false"
     inkscape:zoom="2.8733637"
     inkscape:cx="144"
     inkscape:cy="144"
     inkscape:window-x="-8"
     inkscape:window-y="-8"
     inkscape:window-maximized="1"
     inkscape:current-layer="svg434" />
  <!-- Generator: Sketch 57.1 (83088) - https://sketch.com -->
  <title
     id="title419">ICONS / Forecast / Color / 43 - Mostly Cloudy with Flurries Night LK</title>
  <desc
     id="desc421">Created with Sketch.</desc>
  <path
     style="color:#000000;font-style:normal;font-variant:normal;font-weight:normal;font-stretch:normal;font-size:medium;line-height:normal;font-family:sans-serif;font-variant-ligatures:normal;font-variant-position:normal;font-variant-caps:normal;font-variant-numeric:normal;font-variant-alternates:normal;font-variant-east-asian:normal;font-feature-settings:normal;font-variation-settings:normal;text-indent:0;text-align:start;text-decoration:none;text-decoration-line:none;text-decoration-style:solid;text-decoration-color:#000000;letter-spacing:normal;word-spacing:normal;text-transform:none;writing-mode:lr-tb;direction:ltr;text-orientation:mixed;dominant-baseline:auto;baseline-shift:baseline;text-anchor:start;white-space:normal;shape-padding:0;shape-margin:0;inline-size:0;clip-rule:nonzero;display:inline;overflow:visible;visibility:visible;isolation:auto;mix-blend-mode:normal;color-interpolation:sRGB;color-interpolation-filters:linearRGB;solid-color:#000000;solid-opacity:1;vector-effect:none;fill:#686763;fill-opacity:1;fill-rule:evenodd;stroke:none;stroke-linecap:butt;stroke-linejoin:bevel;stroke-miterlimit:4;stroke-dasharray:none;stroke-dashoffset:0;stroke-opacity:1;color-rendering:auto;image-rendering:auto;shape-rendering:auto;text-rendering:auto;enable-background:accumulate;stop-color:#000000;stop-opacity:1;opacity:1"
     d="M 205.4082 0.27148438 C 174.91434 4.870906 151.19033 29.28848 147.47266 59.902344 L 156.96875 61.054688 C 159.73469 38.278052 175.319 19.600241 196.42578 12.345703 C 186.57559 33.247889 188.06493 58.116977 201.19531 77.792969 C 214.30721 97.441287 236.65568 108.34946 259.70312 107.31055 C 252.55338 115.18267 243.3811 121.05314 233.08398 124.20117 L 235.88086 133.34766 C 251.87937 128.4566 265.55818 117.91844 274.36914 103.69727 L 269.25391 96.513672 C 246.16272 101.71626 222.29114 92.171042 209.15234 72.482422 C 196.01354 52.793802 196.3595 27.088214 210.02539 7.7617188 L 205.4082 0.27148438 z "
     id="Path" />
  <path
     style="color:#000000;font-style:normal;font-variant:normal;font-weight:normal;font-stretch:normal;font-size:medium;line-height:normal;font-family:sans-serif;font-variant-ligatures:normal;font-variant-position:normal;font-variant-caps:normal;font-variant-numeric:normal;font-variant-alternates:normal;font-variant-east-asian:normal;font-feature-settings:normal;font-variation-settings:normal;text-indent:0;text-align:start;text-decoration:none;text-decoration-line:none;text-decoration-style:solid;text-decoration-color:#000000;letter-spacing:normal;word-spacing:normal;text-transform:none;writing-mode:lr-tb;direction:ltr;text-orientation:mixed;dominant-baseline:auto;baseline-shift:baseline;text-anchor:start;white-space:normal;shape-padding:0;shape-margin:0;inline-size:0;clip-rule:nonzero;display:inline;overflow:visible;visibility:visible;isolation:auto;mix-blend-mode:normal;color-interpolation:sRGB;color-interpolation-filters:linearRGB;solid-color:#000000;solid-opacity:1;vector-effect:none;fill:#bababa;fill-opacity:1;fill-rule:evenodd;stroke:none;stroke-linecap:butt;stroke-linejoin:miter;stroke-miterlimit:4;stroke-dasharray:none;stroke-dashoffset:0;stroke-opacity:1;color-rendering:auto;image-rendering:auto;shape-rendering:auto;text-rendering:auto;enable-background:accumulate;stop-color:#000000;stop-opacity:1;opacity:1"
     d="M 133.25586 52.855469 C 112.95602 52.532718 93.179394 60.962585 79.126953 76.404297 L 71.882812 76.404297 L 71.873047 76.404297 C 38.917005 76.338005 12.042496 103.10134 11.970703 136.05859 C 11.899193 169.01912 38.662497 195.89909 71.623047 195.9707 L 71.628906 195.9707 L 71.632812 195.9707 L 210.42578 195.9707 C 232.82083 195.9707 251.07813 177.71341 251.07812 155.31836 C 251.07812 132.92331 232.82083 114.66602 210.42578 114.66602 L 202.94531 114.66602 C 199.15673 87.646813 180.45435 64.868433 154.26172 56.357422 C 147.35535 54.113272 140.28004 52.967147 133.25586 52.855469 z M 133.0918 62.412109 C 139.17926 62.510808 145.31498 63.508153 151.30664 65.455078 C 175.27329 73.24278 192.15076 94.688546 194.08398 119.81445 L 194.42383 124.23047 L 210.42578 124.23047 C 227.65137 124.23047 241.51367 138.09277 241.51367 155.31836 C 241.51367 172.54395 227.65137 186.40625 210.42578 186.40625 L 71.644531 186.40625 L 71.632812 186.40625 C 43.847201 186.33951 21.47487 163.86529 21.535156 136.07812 C 21.595696 108.287 44.072181 85.910288 71.863281 85.970703 L 71.867188 85.970703 L 83.3125 85.970703 L 84.746094 84.287109 C 96.996087 69.894313 114.8294 62.116013 133.0918 62.412109 z "
     id="path424" />
  <path
     id="path426"
     style="color:#000000;font-style:normal;font-variant:normal;font-weight:normal;font-stretch:normal;font-size:medium;line-height:normal;font-family:sans-serif;font-variant-ligatures:normal;font-variant-position:normal;font-variant-caps:normal;font-variant-numeric:normal;font-variant-alternates:normal;font-variant-east-asian:normal;font-feature-settings:normal;font-variation-settings:normal;text-indent:0;text-align:start;text-decoration:none;text-decoration-line:none;text-decoration-style:solid;text-decoration-color:#000000;letter-spacing:normal;word-spacing:normal;text-transform:none;writing-mode:lr-tb;direction:ltr;text-orientation:mixed;dominant-baseline:auto;baseline-shift:baseline;text-anchor:start;white-space:normal;shape-padding:0;shape-margin:0;inline-size:0;clip-rule:nonzero;display:inline;overflow:visible;visibility:visible;isolation:auto;mix-blend-mode:normal;color-interpolation:sRGB;color-interpolation-filters:linearRGB;solid-color:#000000;solid-opacity:1;vector-effect:none;fill:#288adb;fill-opacity:1;fill-rule:evenodd;stroke:none;stroke-linecap:butt;stroke-linejoin:miter;stroke-miterlimit:4;stroke-dasharray:none;stroke-dashoffset:0;stroke-opacity:1;color-rendering:auto;image-rendering:auto;shape-rendering:auto;text-rendering:auto;enable-background:accumulate;stop-color:#000000;stop-opacity:1;opacity:1"
     d="M 129.26367 210.65234 L 129.26367 240.64258 L 103.29492 225.64258 L 98.511719 233.92578 L 124.46289 248.91406 L 98.511719 263.9043 L 103.29492 272.18555 L 129.26367 257.18555 L 129.26367 287.17578 L 138.83008 287.17578 L 138.83008 257.21484 L 164.75 272.18555 L 169.53516 263.9043 L 143.58398 248.91406 L 169.53516 233.92578 L 164.75 225.64258 L 138.83008 240.61523 L 138.83008 210.65234 L 129.26367 210.65234 z " />
</svg>
