<?xml version="1.0" encoding="UTF-8" standalone="no"?>
<svg
   xmlns:dc="http://purl.org/dc/elements/1.1/"
   xmlns:cc="http://creativecommons.org/ns#"
   xmlns:rdf="http://www.w3.org/1999/02/22-rdf-syntax-ns#"
   xmlns:svg="http://www.w3.org/2000/svg"
   xmlns="http://www.w3.org/2000/svg"
   xmlns:sodipodi="http://sodipodi.sourceforge.net/DTD/sodipodi-0.dtd"
   xmlns:inkscape="http://www.inkscape.org/namespaces/inkscape"
   width="288px"
   height="288px"
   viewBox="0 0 288 288"
   version="1.1"
   id="svg606"
   sodipodi:docname="44.svg"
   inkscape:version="1.0.2-2 (e86c870879, 2021-01-15)">
  <metadata
     id="metadata612">
    <rdf:RDF>
      <cc:Work
         rdf:about="">
        <dc:format>image/svg+xml</dc:format>
        <dc:type
           rdf:resource="http://purl.org/dc/dcmitype/StillImage" />
      </cc:Work>
    </rdf:RDF>
  </metadata>
  <defs
     id="defs610" />
  <sodipodi:namedview
     pagecolor="#ffffff"
     bordercolor="#666666"
     borderopacity="1"
     objecttolerance="10"
     gridtolerance="10"
     guidetolerance="10"
     inkscape:pageopacity="0"
     inkscape:pageshadow="2"
     inkscape:window-width="1920"
     inkscape:window-height="1017"
     id="namedview608"
     showgrid="false"
     inkscape:zoom="2.8733637"
     inkscape:cx="144"
     inkscape:cy="116.15807"
     inkscape:window-x="-8"
     inkscape:window-y="-8"
     inkscape:window-maximized="1"
     inkscape:current-layer="svg606" />
  <!-- Generator: Sketch 57.1 (83088) - https://sketch.com -->
  <title
     id="title579">ICONS / Forecast / Color / 44 - Mostly Cloudy with Snow Night LK</title>
  <desc
     id="desc581">Created with Sketch.</desc>
  <path
     style="color:#000000;font-style:normal;font-variant:normal;font-weight:normal;font-stretch:normal;font-size:medium;line-height:normal;font-family:sans-serif;font-variant-ligatures:normal;font-variant-position:normal;font-variant-caps:normal;font-variant-numeric:normal;font-variant-alternates:normal;font-variant-east-asian:normal;font-feature-settings:normal;font-variation-settings:normal;text-indent:0;text-align:start;text-decoration:none;text-decoration-line:none;text-decoration-style:solid;text-decoration-color:#000000;letter-spacing:normal;word-spacing:normal;text-transform:none;writing-mode:lr-tb;direction:ltr;text-orientation:mixed;dominant-baseline:auto;baseline-shift:baseline;text-anchor:start;white-space:normal;shape-padding:0;shape-margin:0;inline-size:0;clip-rule:nonzero;display:inline;overflow:visible;visibility:visible;isolation:auto;mix-blend-mode:normal;color-interpolation:sRGB;color-interpolation-filters:linearRGB;solid-color:#000000;solid-opacity:1;vector-effect:none;fill:#686763;fill-opacity:1;fill-rule:evenodd;stroke:none;stroke-linecap:butt;stroke-linejoin:bevel;stroke-miterlimit:4;stroke-dasharray:none;stroke-dashoffset:0;stroke-opacity:1;color-rendering:auto;image-rendering:auto;shape-rendering:auto;text-rendering:auto;enable-background:accumulate;stop-color:#000000;stop-opacity:1;opacity:1"
     d="M 205.99805 0.25585938 C 175.40673 4.8699822 151.60847 29.366413 147.87891 60.078125 L 157.4043 61.234375 C 160.1791 38.384804 175.81385 19.648726 196.98828 12.371094 C 187.10733 33.3398 188.59943 58.28695 201.77148 78.025391 C 214.92514 97.736285 237.34597 108.67866 260.4668 107.63672 C 253.29417 115.53416 244.09188 121.4239 233.76172 124.58203 L 236.56836 133.75781 C 252.61801 128.85112 266.34058 118.28031 275.17969 104.01367 L 270.04688 96.804688 C 246.88188 102.02391 222.9347 92.448818 209.75391 72.697266 C 196.5731 52.945714 196.92129 27.1578 210.63086 7.7695312 L 205.99805 0.25585938 z "
     id="Path" />
  <path
     style="color:#000000;font-style:normal;font-variant:normal;font-weight:normal;font-stretch:normal;font-size:medium;line-height:normal;font-family:sans-serif;font-variant-ligatures:normal;font-variant-position:normal;font-variant-caps:normal;font-variant-numeric:normal;font-variant-alternates:normal;font-variant-east-asian:normal;font-feature-settings:normal;font-variation-settings:normal;text-indent:0;text-align:start;text-decoration:none;text-decoration-line:none;text-decoration-style:solid;text-decoration-color:#000000;letter-spacing:normal;word-spacing:normal;text-transform:none;writing-mode:lr-tb;direction:ltr;text-orientation:mixed;dominant-baseline:auto;baseline-shift:baseline;text-anchor:start;white-space:normal;shape-padding:0;shape-margin:0;inline-size:0;clip-rule:nonzero;display:inline;overflow:visible;visibility:visible;isolation:auto;mix-blend-mode:normal;color-interpolation:sRGB;color-interpolation-filters:linearRGB;solid-color:#000000;solid-opacity:1;vector-effect:none;fill:#bababa;fill-opacity:1;fill-rule:evenodd;stroke:none;stroke-linecap:butt;stroke-linejoin:miter;stroke-miterlimit:4;stroke-dasharray:none;stroke-dashoffset:0;stroke-opacity:1;color-rendering:auto;image-rendering:auto;shape-rendering:auto;text-rendering:auto;enable-background:accumulate;stop-color:#000000;stop-opacity:1;opacity:1"
     d="M 133.61523 53.007812 C 113.24994 52.684021 93.409926 61.140901 79.3125 76.632812 L 72.046875 76.632812 L 72.035156 76.632812 C 38.974663 76.567364 12.013424 103.41463 11.941406 136.47656 C 11.869669 169.54244 38.719261 196.5082 71.785156 196.58008 L 71.791016 196.58008 L 71.796875 196.58008 L 211.03125 196.58008 C 233.49787 196.58008 251.81445 178.26546 251.81445 155.79883 C 251.81445 133.3322 233.49787 115.01562 211.03125 115.01562 L 203.52734 115.01562 C 199.72666 87.91004 180.96582 65.059704 154.68945 56.521484 C 147.76101 54.270161 140.66187 53.119848 133.61523 53.007812 z M 133.45117 62.595703 C 139.5581 62.694717 145.71184 63.693336 151.72266 65.646484 C 175.76591 73.459078 192.69731 94.975421 194.63672 120.18164 L 194.97852 124.61133 L 211.03125 124.61133 C 228.31189 124.61133 242.21875 138.51818 242.21875 155.79883 C 242.21875 173.07948 228.31189 186.98438 211.03125 186.98438 L 71.806641 186.98438 L 71.796875 186.98438 C 43.921516 186.91847 21.47663 164.3747 21.537109 136.49805 C 21.597839 108.61811 44.145461 86.167908 72.025391 86.228516 L 72.03125 86.228516 L 83.513672 86.228516 L 84.949219 84.541016 C 97.238367 70.102216 115.1304 62.29866 133.45117 62.595703 z "
     id="path584" />
  <path
     id="path586"
     style="color:#000000;font-style:normal;font-variant:normal;font-weight:normal;font-stretch:normal;font-size:medium;line-height:normal;font-family:sans-serif;font-variant-ligatures:normal;font-variant-position:normal;font-variant-caps:normal;font-variant-numeric:normal;font-variant-alternates:normal;font-variant-east-asian:normal;font-feature-settings:normal;font-variation-settings:normal;text-indent:0;text-align:start;text-decoration:none;text-decoration-line:none;text-decoration-style:solid;text-decoration-color:#000000;letter-spacing:normal;word-spacing:normal;text-transform:none;writing-mode:lr-tb;direction:ltr;text-orientation:mixed;dominant-baseline:auto;baseline-shift:baseline;text-anchor:start;white-space:normal;shape-padding:0;shape-margin:0;inline-size:0;clip-rule:nonzero;display:inline;overflow:visible;visibility:visible;isolation:auto;mix-blend-mode:normal;color-interpolation:sRGB;color-interpolation-filters:linearRGB;solid-color:#000000;solid-opacity:1;vector-effect:none;fill:#288adb;fill-opacity:1;fill-rule:evenodd;stroke:none;stroke-linecap:butt;stroke-linejoin:miter;stroke-miterlimit:4;stroke-dasharray:none;stroke-dashoffset:0;stroke-opacity:1;color-rendering:auto;image-rendering:auto;shape-rendering:auto;text-rendering:auto;enable-background:accumulate;stop-color:#000000;stop-opacity:1;opacity:1"
     d="M 129.61133 211.31055 L 129.61133 241.39648 L 103.55859 226.34766 L 98.759766 234.65625 L 124.79297 249.69336 L 98.759766 264.73047 L 103.55859 273.04102 L 129.61133 257.99219 L 129.61133 288.07812 L 139.20703 288.07812 L 139.20703 258.01953 L 165.21094 273.04102 L 170.00977 264.73047 L 143.97656 249.69336 L 170.00977 234.65625 L 165.21094 226.34766 L 139.20703 241.36719 L 139.20703 211.31055 L 129.61133 211.31055 z M 45.550781 221.00195 L 45.550781 241.42383 L 27.892578 231.24023 L 23.099609 239.55273 L 40.769531 249.74219 L 23.099609 259.93164 L 27.892578 268.24414 L 45.550781 258.06055 L 45.550781 278.48242 L 55.146484 278.48242 L 55.146484 258.0332 L 72.853516 268.24414 L 77.646484 259.93164 L 59.976562 249.74219 L 77.646484 239.55273 L 72.853516 231.24023 L 55.146484 241.45117 L 55.146484 221.00195 L 45.550781 221.00195 z M 213.62305 221.00195 L 213.62305 241.45117 L 195.91602 231.24023 L 191.12305 239.55273 L 208.79297 249.74219 L 191.12305 259.93164 L 195.91602 268.24414 L 213.62305 258.0332 L 213.62305 278.48242 L 223.21875 278.48242 L 223.21875 258.06055 L 240.87695 268.24414 L 245.66992 259.93164 L 228 249.74219 L 245.66992 239.55273 L 240.87695 231.24023 L 223.21875 241.42383 L 223.21875 221.00195 L 213.62305 221.00195 z " />
</svg>
