<?xml version="1.0" encoding="UTF-8" standalone="no"?>
<svg
   xmlns:dc="http://purl.org/dc/elements/1.1/"
   xmlns:cc="http://creativecommons.org/ns#"
   xmlns:rdf="http://www.w3.org/1999/02/22-rdf-syntax-ns#"
   xmlns:svg="http://www.w3.org/2000/svg"
   xmlns="http://www.w3.org/2000/svg"
   xmlns:sodipodi="http://sodipodi.sourceforge.net/DTD/sodipodi-0.dtd"
   xmlns:inkscape="http://www.inkscape.org/namespaces/inkscape"
   width="288px"
   height="288px"
   viewBox="0 0 288 288"
   version="1.1"
   id="svg78"
   sodipodi:docname="6.svg"
   inkscape:version="1.0.2-2 (e86c870879, 2021-01-15)">
  <metadata
     id="metadata84">
    <rdf:RDF>
      <cc:Work
         rdf:about="">
        <dc:format>image/svg+xml</dc:format>
        <dc:type
           rdf:resource="http://purl.org/dc/dcmitype/StillImage" />
        <dc:title>ICONS / Forecast / Color / 06 - Mostly Cloudy LK</dc:title>
      </cc:Work>
    </rdf:RDF>
  </metadata>
  <defs
     id="defs82" />
  <sodipodi:namedview
     pagecolor="#ffffff"
     bordercolor="#666666"
     borderopacity="1"
     objecttolerance="10"
     gridtolerance="10"
     guidetolerance="10"
     inkscape:pageopacity="0"
     inkscape:pageshadow="2"
     inkscape:window-width="1920"
     inkscape:window-height="1017"
     id="namedview80"
     showgrid="false"
     inkscape:zoom="2.9513889"
     inkscape:cx="73.185882"
     inkscape:cy="144"
     inkscape:window-x="-8"
     inkscape:window-y="-8"
     inkscape:window-maximized="1"
     inkscape:current-layer="svg78" />
  <!-- Generator: Sketch 57.1 (83088) - https://sketch.com -->
  <title
     id="title63">ICONS / Forecast / Color / 06 - Mostly Cloudy LK</title>
  <desc
     id="desc65">Created with Sketch.</desc>
  <path
     id="path72"
     style="color:#000000;font-style:normal;font-variant:normal;font-weight:normal;font-stretch:normal;font-size:medium;line-height:normal;font-family:sans-serif;font-variant-ligatures:normal;font-variant-position:normal;font-variant-caps:normal;font-variant-numeric:normal;font-variant-alternates:normal;font-variant-east-asian:normal;font-feature-settings:normal;font-variation-settings:normal;text-indent:0;text-align:start;text-decoration:none;text-decoration-line:none;text-decoration-style:solid;text-decoration-color:#000000;letter-spacing:normal;word-spacing:normal;text-transform:none;writing-mode:lr-tb;direction:ltr;text-orientation:mixed;dominant-baseline:auto;baseline-shift:baseline;text-anchor:start;white-space:normal;shape-padding:0;shape-margin:0;inline-size:0;clip-rule:nonzero;display:inline;overflow:visible;visibility:visible;isolation:auto;mix-blend-mode:normal;color-interpolation:sRGB;color-interpolation-filters:linearRGB;solid-color:#000000;solid-opacity:1;vector-effect:none;fill:#ff8700;fill-opacity:1;fill-rule:evenodd;stroke:none;stroke-linecap:butt;stroke-linejoin:miter;stroke-miterlimit:4;stroke-dasharray:none;stroke-dashoffset:0;stroke-opacity:1;color-rendering:auto;image-rendering:auto;shape-rendering:auto;text-rendering:auto;enable-background:accumulate;stop-color:#000000;stop-opacity:1;opacity:1"
     d="m 99.988281,92.667969 c -3.928216,0.01275 -7.888038,0.552244 -11.773437,1.646484 -15.541597,4.37696 -27.451886,16.935557 -30.998047,32.687497 -3.546161,15.75195 1.833425,32.20554 14,42.82032 l 6.427734,-7.36915 c -9.474839,-8.26636 -13.650279,-21.03575 -10.888672,-33.30273 2.761607,-12.26698 12.008163,-22.01523 24.111329,-25.42383 12.103162,-3.4086 25.076542,0.0826 33.833982,9.10547 l 7.01563,-6.81055 C 123.28276,97.331818 111.77293,92.629711 99.988281,92.667969 Z M 41.171875,70.916016 34.257812,77.830078 58.458984,102.03125 65.373047,95.117188 Z M 12,131.76953 v 9.77735 h 34.222656 v -9.77735 z M 95.111328,49 v 34.222656 h 9.777342 V 49 Z" />
  <path
     style="color:#000000;font-style:normal;font-variant:normal;font-weight:normal;font-stretch:normal;font-size:medium;line-height:normal;font-family:sans-serif;font-variant-ligatures:normal;font-variant-position:normal;font-variant-caps:normal;font-variant-numeric:normal;font-variant-alternates:normal;font-variant-east-asian:normal;font-feature-settings:normal;font-variation-settings:normal;text-indent:0;text-align:start;text-decoration:none;text-decoration-line:none;text-decoration-style:solid;text-decoration-color:#000000;letter-spacing:normal;word-spacing:normal;text-transform:none;writing-mode:lr-tb;direction:ltr;text-orientation:mixed;dominant-baseline:auto;baseline-shift:baseline;text-anchor:start;white-space:normal;shape-padding:0;shape-margin:0;inline-size:0;clip-rule:nonzero;display:inline;overflow:visible;visibility:visible;opacity:1;isolation:auto;mix-blend-mode:normal;color-interpolation:sRGB;color-interpolation-filters:linearRGB;solid-color:#000000;solid-opacity:1;vector-effect:none;fill:#bababa;fill-opacity:1;fill-rule:evenodd;stroke:none;stroke-linecap:butt;stroke-linejoin:miter;stroke-miterlimit:4;stroke-dasharray:none;stroke-dashoffset:0;stroke-opacity:1;color-rendering:auto;image-rendering:auto;shape-rendering:auto;text-rendering:auto;enable-background:accumulate;stop-color:#000000;stop-opacity:1"
     d="m 156.91406,97.865234 c -7.18566,0.111729 -14.4245,1.283124 -21.49023,3.578126 -26.79693,8.70383 -45.923411,32.01437 -49.779299,59.6582 h -7.595703 c -22.892594,0 -41.554687,18.66405 -41.554687,41.55664 0,22.8926 18.662095,41.55469 41.554687,41.55469 h 141.779292 0.002 c 33.67223,-0.0293 61.05859,-27.43908 61.05859,-61.11133 0,-16.20579 -6.43921,-31.75171 -17.89844,-43.21094 -11.45922,-11.45922 -27.00709,-17.90039 -43.21289,-17.90039 h -7.50976 C 197.90717,106.1792 177.68029,97.542343 156.91406,97.865234 Z m 0.16406,9.769536 c 18.68224,-0.29638 36.92215,7.6731 49.43946,22.41015 l 1.46484,1.72461 h 11.79492 c 13.61633,0 26.67064,5.40696 36.29883,15.03516 9.6282,9.62819 15.03516,22.68055 15.03516,36.29687 0,28.39096 -22.89813,51.3093 -51.28906,51.33399 H 78.048828 c -17.60829,0 -31.777344,-14.16906 -31.777344,-31.77735 0,-17.60828 14.169056,-31.77734 31.777344,-31.77734 h 16.3125 l 0.34375,-4.51758 c 1.957895,-25.70629 19.218532,-47.6569 43.738282,-55.62109 6.12994,-1.99105 12.40735,-3.00863 18.63476,-3.10742 z"
     id="path74" />
</svg>
