<?xml version="1.0" encoding="UTF-8" standalone="no"?>
<svg
   xmlns:dc="http://purl.org/dc/elements/1.1/"
   xmlns:cc="http://creativecommons.org/ns#"
   xmlns:rdf="http://www.w3.org/1999/02/22-rdf-syntax-ns#"
   xmlns:svg="http://www.w3.org/2000/svg"
   xmlns="http://www.w3.org/2000/svg"
   xmlns:sodipodi="http://sodipodi.sourceforge.net/DTD/sodipodi-0.dtd"
   xmlns:inkscape="http://www.inkscape.org/namespaces/inkscape"
   width="288px"
   height="288px"
   viewBox="0 0 288 288"
   version="1.1"
   id="svg64"
   sodipodi:docname="7.svg"
   inkscape:version="1.0.2-2 (e86c870879, 2021-01-15)">
  <metadata
     id="metadata70">
    <rdf:RDF>
      <cc:Work
         rdf:about="">
        <dc:format>image/svg+xml</dc:format>
        <dc:type
           rdf:resource="http://purl.org/dc/dcmitype/StillImage" />
      </cc:Work>
    </rdf:RDF>
  </metadata>
  <defs
     id="defs68" />
  <sodipodi:namedview
     pagecolor="#ffffff"
     bordercolor="#666666"
     borderopacity="1"
     objecttolerance="10"
     gridtolerance="10"
     guidetolerance="10"
     inkscape:pageopacity="0"
     inkscape:pageshadow="2"
     inkscape:window-width="1920"
     inkscape:window-height="1017"
     id="namedview66"
     showgrid="false"
     inkscape:zoom="2.8692412"
     inkscape:cx="115.07249"
     inkscape:cy="144"
     inkscape:window-x="-8"
     inkscape:window-y="-8"
     inkscape:window-maximized="1"
     inkscape:current-layer="svg64" />
  <!-- Generator: Sketch 57.1 (83088) - https://sketch.com -->
  <title
     id="title57">ICONS / Forecast / Color / 07 - Cloudy LK</title>
  <desc
     id="desc59">Created with Sketch.</desc>
  <path
     style="color:#000000;font-style:normal;font-variant:normal;font-weight:normal;font-stretch:normal;font-size:medium;line-height:normal;font-family:sans-serif;font-variant-ligatures:normal;font-variant-position:normal;font-variant-caps:normal;font-variant-numeric:normal;font-variant-alternates:normal;font-variant-east-asian:normal;font-feature-settings:normal;font-variation-settings:normal;text-indent:0;text-align:start;text-decoration:none;text-decoration-line:none;text-decoration-style:solid;text-decoration-color:#000000;letter-spacing:normal;word-spacing:normal;text-transform:none;writing-mode:lr-tb;direction:ltr;text-orientation:mixed;dominant-baseline:auto;baseline-shift:baseline;text-anchor:start;white-space:normal;shape-padding:0;shape-margin:0;inline-size:0;clip-rule:nonzero;display:inline;overflow:visible;visibility:visible;isolation:auto;mix-blend-mode:normal;color-interpolation:sRGB;color-interpolation-filters:linearRGB;solid-color:#000000;solid-opacity:1;vector-effect:none;fill:#bababa;fill-opacity:1;fill-rule:evenodd;stroke:none;stroke-linecap:butt;stroke-linejoin:miter;stroke-miterlimit:4;stroke-dasharray:none;stroke-dashoffset:0;stroke-opacity:1;color-rendering:auto;image-rendering:auto;shape-rendering:auto;text-rendering:auto;enable-background:accumulate;stop-color:#000000;stop-opacity:1;opacity:1"
     d="M 142.20898 69.974609 C 134.86002 70.088878 127.45484 71.287605 120.22852 73.634766 C 92.822147 82.536551 73.261454 106.37772 69.318359 134.65039 L 61.550781 134.65039 C 38.137902 134.65039 19.050781 153.73751 19.050781 177.15039 C 19.050781 200.56327 38.137902 219.65039 61.550781 219.65039 L 206.55273 219.65039 L 206.55469 219.65039 C 240.99219 219.62044 269 191.58791 269 157.15039 C 269 140.57628 262.41302 124.67474 250.69336 112.95508 C 238.9737 101.23541 223.07411 94.650391 206.5 94.650391 L 198.81836 94.650391 C 184.13158 78.479975 163.4472 69.644376 142.20898 69.974609 z M 142.375 79.966797 C 161.48183 79.663679 180.13766 87.814733 192.93945 102.88672 L 194.4375 104.65039 L 206.5 104.65039 C 220.42579 104.65039 233.77603 110.18033 243.62305 120.02734 C 253.47006 129.87436 259 143.2246 259 157.15039 C 259 186.18659 235.5811 209.62514 206.54492 209.65039 L 61.550781 209.65039 C 43.542302 209.65039 29.050781 195.15887 29.050781 177.15039 C 29.050781 159.14191 43.542302 144.65039 61.550781 144.65039 L 78.234375 144.65039 L 78.585938 140.0293 C 80.58833 113.73878 98.241341 91.289727 123.31836 83.144531 C 129.58762 81.108232 136.00606 80.067836 142.375 79.966797 z "
     id="Path" />
</svg>
