<?xml version="1.0" encoding="UTF-8" standalone="no"?>
<svg
   xmlns:dc="http://purl.org/dc/elements/1.1/"
   xmlns:cc="http://creativecommons.org/ns#"
   xmlns:rdf="http://www.w3.org/1999/02/22-rdf-syntax-ns#"
   xmlns:svg="http://www.w3.org/2000/svg"
   xmlns="http://www.w3.org/2000/svg"
   xmlns:sodipodi="http://sodipodi.sourceforge.net/DTD/sodipodi-0.dtd"
   xmlns:inkscape="http://www.inkscape.org/namespaces/inkscape"
   width="288px"
   height="288px"
   viewBox="0 0 288 288"
   version="1.1"
   id="svg105"
   sodipodi:docname="8.svg"
   inkscape:version="1.0.2-2 (e86c870879, 2021-01-15)">
  <metadata
     id="metadata111">
    <rdf:RDF>
      <cc:Work
         rdf:about="">
        <dc:format>image/svg+xml</dc:format>
        <dc:type
           rdf:resource="http://purl.org/dc/dcmitype/StillImage" />
      </cc:Work>
    </rdf:RDF>
  </metadata>
  <defs
     id="defs109" />
  <sodipodi:namedview
     pagecolor="#ffffff"
     bordercolor="#666666"
     borderopacity="1"
     objecttolerance="10"
     gridtolerance="10"
     guidetolerance="10"
     inkscape:pageopacity="0"
     inkscape:pageshadow="2"
     inkscape:window-width="1920"
     inkscape:window-height="1017"
     id="namedview107"
     showgrid="false"
     inkscape:zoom="2.8733637"
     inkscape:cx="144"
     inkscape:cy="144"
     inkscape:window-x="-8"
     inkscape:window-y="-8"
     inkscape:window-maximized="1"
     inkscape:current-layer="svg105" />
  <!-- Generator: Sketch 57.1 (83088) - https://sketch.com -->
  <title
     id="title96">ICONS / Forecast / Color / 08 - Dreary LK</title>
  <desc
     id="desc98">Created with Sketch.</desc>
  <path
     id="Path"
     style="color:#000000;font-style:normal;font-variant:normal;font-weight:normal;font-stretch:normal;font-size:medium;line-height:normal;font-family:sans-serif;font-variant-ligatures:normal;font-variant-position:normal;font-variant-caps:normal;font-variant-numeric:normal;font-variant-alternates:normal;font-variant-east-asian:normal;font-feature-settings:normal;font-variation-settings:normal;text-indent:0;text-align:start;text-decoration:none;text-decoration-line:none;text-decoration-style:solid;text-decoration-color:#000000;letter-spacing:normal;word-spacing:normal;text-transform:none;writing-mode:lr-tb;direction:ltr;text-orientation:mixed;dominant-baseline:auto;baseline-shift:baseline;text-anchor:start;white-space:normal;shape-padding:0;shape-margin:0;inline-size:0;clip-rule:nonzero;display:inline;overflow:visible;visibility:visible;isolation:auto;mix-blend-mode:normal;color-interpolation:sRGB;color-interpolation-filters:linearRGB;solid-color:#000000;solid-opacity:1;vector-effect:none;fill:#bababa;fill-opacity:1;fill-rule:evenodd;stroke:none;stroke-linecap:butt;stroke-linejoin:miter;stroke-miterlimit:4;stroke-dasharray:none;stroke-dashoffset:0;stroke-opacity:1;color-rendering:auto;image-rendering:auto;shape-rendering:auto;text-rendering:auto;enable-background:accumulate;stop-color:#000000;stop-opacity:1;opacity:1"
     d="M 131.74414 54.970703 C 131.08418 54.963208 130.42292 54.964328 129.76172 54.974609 C 122.44048 55.088447 115.06429 56.28279 107.86523 58.621094 C 80.56271 67.489149 61.075129 91.24084 57.146484 119.40625 L 49.408203 119.40625 C 26.083676 119.40625 7.0683594 138.42157 7.0683594 161.74609 C 7.0683594 185.07063 26.083677 204.08594 49.408203 204.08594 L 137.9082 204.08594 C 137.70883 205.37884 137.60156 206.70001 137.60156 208.04492 C 137.60156 221.88985 148.55816 233.39344 162.38672 234.06641 L 162.50781 234.07227 L 244.04883 234.07227 L 244.07422 234.07227 C 264.46487 233.85231 280.98047 217.15515 280.98047 196.76367 L 280.98047 196.75977 L 280.98047 196.75586 C 280.9538 179.42581 268.96997 164.80817 252.86328 160.73633 C 258.52411 142.98698 255.96467 123.48646 245.64258 107.71875 C 234.17687 90.204113 214.6603 79.616614 193.72656 79.556641 L 193.71875 79.556641 L 186.16016 79.556641 C 171.98598 63.950055 152.203 55.203061 131.74414 54.970703 z M 129.92773 64.929688 C 148.96246 64.627713 167.5473 72.748562 180.30078 87.763672 L 181.79297 89.519531 L 193.71094 89.519531 C 211.30108 89.574528 227.67192 98.456141 237.30664 113.17383 C 246.35651 126.99811 248.21059 144.1864 242.625 159.60352 L 240.57422 159.60352 C 240.10395 159.10199 239.62072 158.61702 239.13086 158.14062 C 238.98178 157.99556 238.8305 157.85368 238.67969 157.71094 C 238.28665 157.33926 237.88898 156.97478 237.48438 156.61914 C 237.37195 156.52018 237.26173 156.41804 237.14844 156.32031 C 237.10984 156.28707 237.06995 156.25575 237.03125 156.22266 C 236.59513 155.84967 236.1516 155.48729 235.70312 155.13281 C 235.47802 154.95449 235.25153 154.7791 235.02344 154.60547 C 234.72835 154.38138 234.42886 154.16344 234.12891 153.94727 C 233.64294 153.59611 233.15049 153.25796 232.65234 152.92773 C 232.46325 152.80276 232.27672 152.67467 232.08594 152.55273 C 231.71383 152.31416 231.33729 152.08435 230.95898 151.85742 C 230.85126 151.79302 230.74297 151.72947 230.63477 151.66602 C 224.02497 147.77703 216.51545 145.66187 208.83398 145.58984 C 208.82487 145.58976 208.81575 145.58992 208.80664 145.58984 C 208.79948 145.58977 208.79231 145.58992 208.78516 145.58984 C 208.47523 145.58729 208.16588 145.57401 207.85547 145.57812 C 206.62795 145.59439 205.39772 145.66725 204.16797 145.78711 C 204.12761 145.79097 204.08724 145.7968 204.04688 145.80078 C 203.60507 145.84508 203.16418 145.89333 202.72266 145.95117 C 202.46139 145.985 202.20056 146.02582 201.93945 146.06445 C 201.69273 146.1013 201.44573 146.13467 201.19922 146.17578 C 200.8303 146.23686 200.4621 146.30813 200.09375 146.37891 C 199.93954 146.40869 199.78494 146.43337 199.63086 146.46484 C 199.15709 146.56119 198.68529 146.6687 198.21289 146.78125 C 198.15967 146.79396 198.10593 146.80349 198.05273 146.81641 C 196.9864 147.07469 195.92335 147.37294 194.86719 147.71484 C 189.90678 149.32063 185.38692 151.76372 181.42969 154.85352 C 180.78431 155.35742 180.15362 155.87823 179.53906 156.41602 C 177.98347 157.77728 176.52481 159.24209 175.17969 160.80273 C 171.01259 165.63751 167.90115 171.3666 166.12305 177.61523 C 165.7173 179.04113 165.37874 180.49339 165.11523 181.96875 L 162.625 181.96875 L 162.62305 181.96875 C 153.64575 181.982 145.3982 186.6527 140.6875 194.12305 L 49.408203 194.12305 C 31.467681 194.12305 17.03125 179.68662 17.03125 161.74609 C 17.03125 143.80558 31.467682 129.36914 49.408203 129.36914 L 66.029297 129.36914 L 66.378906 124.76562 C 68.373743 98.574313 85.960963 76.210163 110.94336 68.095703 C 117.18896 66.067088 123.58283 65.030344 129.92773 64.929688 z M 208.00195 155.5332 C 208.1455 155.53122 208.28821 155.53924 208.43164 155.53906 C 209.02302 155.53844 209.61437 155.55008 210.20312 155.58008 C 210.49605 155.59497 210.78801 155.61822 211.08008 155.64062 C 211.54783 155.67657 212.01346 155.72225 212.47852 155.77734 C 212.77109 155.81195 213.06415 155.84654 213.35547 155.88867 C 213.93783 155.97301 214.51727 156.07335 215.09375 156.1875 C 215.37467 156.24306 215.65428 156.30265 215.93359 156.36523 C 216.488 156.48957 217.04058 156.62558 217.58789 156.77734 C 217.88065 156.85848 218.17044 156.9482 218.46094 157.03711 C 218.91175 157.17516 219.35982 157.32187 219.80469 157.47852 C 220.06098 157.56872 220.3181 157.65757 220.57227 157.75391 C 221.1613 157.97727 221.74375 158.21669 222.32031 158.47266 C 222.5259 158.56389 222.72972 158.65856 222.93359 158.75391 C 223.48875 159.01363 224.03849 159.28623 224.58008 159.57617 C 224.81952 159.70432 225.0544 159.84061 225.29102 159.97461 C 225.73693 160.22722 226.17802 160.49044 226.61328 160.76367 C 226.82586 160.89709 227.0401 161.02772 227.25 161.16602 C 227.81181 161.53625 228.36282 161.92326 228.9043 162.32812 C 229.03229 162.4238 229.16031 162.5196 229.28711 162.61719 C 229.81941 163.027 230.33938 163.45708 230.84961 163.90039 C 231.03138 164.05828 231.20984 164.22071 231.38867 164.38281 C 231.81063 164.7654 232.22404 165.15862 232.62891 165.56445 C 232.78361 165.71949 232.93969 165.87285 233.0918 166.03125 C 233.63361 166.59563 234.16457 167.17464 234.67188 167.78125 L 236.16406 169.56641 L 243.87109 169.56641 C 258.92061 169.62129 270.99637 181.71986 271.01953 196.77148 C 271.0153 211.81377 259.0089 223.94711 243.9668 224.10938 L 162.83008 224.10938 C 154.22844 223.66893 147.56445 216.66309 147.56445 208.04492 C 147.56445 199.42675 154.22844 192.42092 162.83008 191.98047 L 174.05273 191.98047 L 174.37305 187.34375 C 174.43333 186.47347 174.52604 185.61098 174.65039 184.75781 C 176.51569 171.96034 185.46929 161.24137 197.91602 157.20312 C 201.23514 156.12626 204.63351 155.57981 208.00195 155.5332 z " />
</svg>
